<?xml version="1.0" standalone="no"?>
<!DOCTYPE svg PUBLIC "-//W3C//DTD SVG 1.1//EN" "http://www.w3.org/Graphics/SVG/1.1/DTD/svg11.dtd" >
<svg>
<metadata>
Created by FontForge 20090914 at Fri Jun  3 19:25:00 2016
 By www-data
</metadata>
<defs>
<font id="Logo-Sistema-S" horiz-adv-x="338" >
  <font-face 
    font-family="Logo-Sistema-S"
    font-weight="500"
    font-stretch="normal"
    units-per-em="1024"
    panose-1="0 0 0 0 0 0 0 0 0 0"
    ascent="819"
    descent="-205"
    x-height="516"
    cap-height="741"
    bbox="-81 -232.999 1169 1039"
    underline-thickness="51"
    underline-position="-108"
    unicode-range="U+0020-U+F002"
  />
<missing-glyph 
 />
    <glyph glyph-name=".notdef" 
 />
    <glyph glyph-name="space" unicode=" " 
 />
    <glyph glyph-name="space" unicode="&#xa0;" 
 />
    <glyph glyph-name="exclam" unicode="!" horiz-adv-x="451" 
d="M129 0l32 161h186l-33 -161h-185v0zM194 218l72 540h226l-145 -540h-153v0z" />
    <glyph glyph-name="quotedbl" unicode="&#x22;" horiz-adv-x="516" 
d="M194 468l56 282h129l-56 -282h-129v0zM379 468l64 282h129l-64 -282h-129v0z" />
    <glyph glyph-name="numbersign" unicode="#" horiz-adv-x="685" 
d="M161 0l81 225h-105l24 98h113l32 89h-104l23 104h114l64 210h97l-65 -210h73l73 210h96l-72 -210h88l-16 -104h-105l-31 -89h88l-17 -98h-104l-81 -225h-96l81 225h-73l-81 -225h-97v0zM443 323l33 89h-81l-33 -89h81v0z" />
    <glyph glyph-name="dollar" unicode="$" horiz-adv-x="685" 
d="M314 129l32.9971 160.996c-10.667 2.66699 -25.167 6.5 -43.5 11.5s-36.833 11.833 -55.5 20.5c-30 12.667 -57.333 30 -82 52s-37 50 -37 84v4.5v4.5c6.66699 86.667 35.834 149.334 87.501 188.001s107.834 64 168.501 76c9.33301 2 19 3.66699 29 5l29 4l17 99h88
l-16 -98c70.667 -7.33301 123.334 -24.5 158.001 -51.5s52 -66.167 52 -117.5c0 -9.33301 -0.666992 -19.666 -2 -30.999s-3.33301 -22.666 -6 -33.999l-210 1c2.66699 6 4.66699 12.167 6 18.5s2 12.166 2 17.499c0 11.333 -2.5 21.5 -7.5 30.5s-13.167 16.167 -24.5 21.5
l-32 -144c12 -4 27.5 -8.16699 46.5 -12.5s38.167 -10.166 57.5 -17.499c32 -12 61.5 -30.5 88.5 -55.5s40.5 -61.5 40.5 -109.5c-4 -88.667 -37.333 -155 -100 -199s-132.667 -66.333 -210 -67h-4.5h-5.5c-1.33301 0.666992 -2.83301 1 -4.5 1h-5.5l-17 -96h-88l17 96h-6
c-2 0 -3.66699 -0.333008 -5 -1h-4.5h-4.5c-56 0 -104 14.333 -144 43s-60.333 73.334 -61 134.001c0 8.66699 0.5 17.667 1.5 27s2.83301 19 5.5 29l209 1l-2 -12.5c-0.666992 -4.33301 -1 -8.5 -1 -12.5c-0.666992 -2 -1 -4.16699 -1 -6.5v-6.5
c0 -15.333 3.16699 -29 9.5 -41s17.833 -18 34.5 -18v1zM402.997 128.996c22 1.33301 40.832 9.16699 56.499 23.5s25.834 29.833 30.501 46.5c0.666992 2.66699 1.5 5.5 2.5 8.5s1.5 5.83301 1.5 8.5c0 13.333 -5.16699 24.833 -15.5 34.5s-27.5 14.5 -51.5 14.5l-24 -136
v0zM386.996 482.997l25.001 114c-16.667 -6.66699 -29.834 -14.5 -39.501 -23.5s-16.834 -18.167 -21.501 -27.5c-2 -4 -3.5 -8.33301 -4.5 -13s-1.5 -9 -1.5 -13c0 -10.667 3.33301 -19.667 10 -27s15.334 -11 26.001 -11h3.5h2.5v1z" />
    <glyph glyph-name="percent" unicode="%" horiz-adv-x="1024" 
d="M645 161c12 88.667 36.5 152.498 73.5 191.498s87.5 58.5 151.5 58.5c68.667 0 110.167 -15.333 124.5 -46s21.5 -64 21.5 -100c0 -11.333 -1.33301 -29.666 -4 -54.999s-9.33398 -52 -20.001 -80c-13.333 -36.667 -35.666 -70.167 -66.999 -100.5s-78 -45.5 -140 -45.5
h-5h-6c-32.667 0 -62.667 8.83301 -90 26.5s-41 54.5 -41 110.5c0 6 0.166992 12.333 0.5 19s0.833008 13.334 1.5 20.001v1zM879 201.998c0 1.33301 0.165039 3.16699 0.498047 5.5s0.833008 4.83301 1.5 7.5c1.33301 8.66699 2.5 17.5 3.5 26.5s1.5 17.167 1.5 24.5
c0 13.333 -2.33301 24.5 -7 33.5s-12.667 13.5 -24 13.5c-16.667 0 -29.667 -10.667 -39 -32s-17.666 -48 -24.999 -80l-8.5 -47.5c-2.33301 -13 -3.5 -24.167 -3.5 -33.5c0 -12 2.33301 -21 7 -27s11.334 -10.333 20.001 -13c1.33301 -0.666992 2.5 -1 3.5 -1h3.5
c14.667 0 27.5 10.833 38.5 32.5s20.167 51.5 27.5 89.5v1zM273.998 -0.000976562l508 734h121l-508 -734h-121v0zM168.998 507.999c12 68 37.001 122.5 75.001 163.5s91 61.5 159 61.5c52 0 89.333 -11.167 112 -33.5s34 -59.833 34 -112.5v-15.5
c0 -5.66699 -0.333008 -11.167 -1 -16.5c-6.66699 -77.333 -30.834 -138.333 -72.501 -183s-92.834 -67 -153.501 -67h-8h-8c-35.333 0 -67.666 8.33301 -96.999 25s-44 56.334 -44 119.001c0 8.66699 0.333008 17.667 1 27s1.66699 19.666 3 30.999v1zM402.999 531.999
c1.33301 13.333 2.83594 25.833 4.50293 37.5s2.5 21.5 2.5 29.5c0 12.667 -2.33301 22 -7 28s-12.667 9 -24 9c-13.333 0 -24.333 -7.16699 -33 -21.5s-15.667 -30.166 -21 -47.499l-6 -23.5c-2 -7.66699 -3.66699 -14.5 -5 -20.5c-0.666992 -4 -1.5 -8.16699 -2.5 -12.5
l-3.5 -14.5c-0.666992 -3.33301 -1.33398 -7 -2.00098 -11l-2 -12c-0.666992 -5.33301 -1.33398 -11 -2.00098 -17s-1 -11.333 -1 -16c0 -10.667 1.66699 -19.834 5 -27.501s9.66602 -11.5 18.999 -11.5h1.5c0.333008 0 0.833008 0.333008 1.5 1h1.5h1.5
c20 0 35 11.5 45 34.5s19 54.5 27 94.5v1z" />
    <glyph glyph-name="ampersand" unicode="&#x26;" horiz-adv-x="911" 
d="M298 403c-24 23.333 -40.8311 47.168 -50.498 71.501s-14.5 48.5 -14.5 72.5c0 56 19.667 98.833 59 128.5s82.666 50.834 129.999 63.501c24.667 6 48.667 10.5 72 13.5s44 4.5 62 4.5h10.5h11.5c59.333 -2 113.5 -13.333 162.5 -34s73.5 -59.334 73.5 -116.001v-2.5
v-2.5v-3v-3c-2.66699 -36.667 -17 -70.834 -43 -102.501s-54.333 -57.5 -85 -77.5c-12.667 -8.66699 -25.334 -16.334 -38.001 -23.001s-24.667 -11.667 -36 -15l81 -95c16.667 10.667 32.334 27.5 47.001 50.5s26 48.833 34 77.5l177 1
c0 -15.333 -3.16699 -31.666 -9.5 -48.999s-14.833 -35.333 -25.5 -54c-7.33301 -13.333 -15.333 -26.5 -24 -39.5s-18 -25.5 -28 -37.5c-14.667 -19.333 -28.5 -35.333 -41.5 -48s-23.5 -20.667 -31.5 -24l129 -160h-267l-32 48c-18 -12.667 -36.667 -23.167 -56 -31.5
s-39 -14.5 -59 -18.5c-26 -5.33301 -51.333 -9 -76 -11s-47.334 -3 -68.001 -3c-68 0 -130 10 -186 30s-87.667 66.333 -95 139v3v3v2.5v2.5c-0.666992 48.667 15.5 89.5 48.5 122.5s69.833 61.167 110.5 84.5l29 16l29 15v1zM524.002 161.002l-104.998 122l-18 -6.5
c-6.66699 -2.33301 -13 -4.83301 -19 -7.5c-19.333 -8.66699 -36.833 -20.667 -52.5 -36s-23.834 -31.666 -24.501 -48.999v-2c0 -0.666992 0.333008 -1.33398 1 -2.00098v-2v-2c5.33301 -20 17.166 -33.833 35.499 -41.5s38.166 -11.5 59.499 -11.5h8.5
c3 0 5.83301 0.333008 8.5 1c21.333 1.33301 41.5 5 60.5 11s32.5 12.667 40.5 20c1.33301 0.666992 2.33301 1.5 3 2.5s1.33398 1.83301 2.00098 2.5v1zM500.004 492.002c20 4.66699 37.999 13.668 53.999 27.001s28 27 36 41c2.66699 5.33301 4.83398 11 6.50098 17
s2.5 11.333 2.5 16c0 12 -5.16699 22.167 -15.5 30.5s-27.5 12.5 -51.5 12.5c-28 0 -48.167 -6.83301 -60.5 -20.5s-18.833 -29.5 -19.5 -47.5c0 -2 0.166992 -4.16699 0.5 -6.5s0.5 -4.5 0.5 -6.5c2.66699 -12.667 8 -24.834 16 -36.501s18.333 -21.167 31 -28.5v2z" />
    <glyph glyph-name="quotesingle" unicode="'" 
d="M137 468l129 273h202l-178 -273h-153v0z" />
    <glyph glyph-name="parenleft" unicode="(" 
d="M96 233c2 62 14.5 123.334 37.5 184.001s47.833 115 74.5 163c22.667 40.667 44.167 75.167 64.5 103.5s34.166 47.166 41.499 56.499l129 1c-44 -82 -80.667 -156.5 -110 -223.5s-50.666 -132.167 -63.999 -195.5c-2.66699 -12 -4.83398 -24.167 -6.50098 -36.5
s-3.16699 -24.5 -4.5 -36.5c-2 -16 -3.66699 -33.667 -5 -53s-2 -41 -2 -65c0 -29.333 1.66699 -62.833 5 -100.5s9.33301 -79.834 18 -126.501h-137c-8.66699 28 -16.167 61.5 -22.5 100.5s-11.166 79.833 -14.499 122.5c-1.33301 18 -2.33301 35.833 -3 53.5
s-1 34.834 -1 51.501v1z" />
    <glyph glyph-name="parenright" unicode=")" 
d="M25 -96l33.5 60.5c12.333 22.333 24.833 46.166 37.5 71.499l38 83.5c12.667 29 24.334 58.5 35.001 88.5c14.667 40 26.5 79.5 35.5 118.5s13.5 74.833 13.5 107.5v26.5c0 9 -0.333008 17.833 -1 26.5c-0.666992 48 -2.5 94.667 -5.5 140s-6.16699 83 -9.5 113l129 1
c6.66699 -19.333 12.167 -40 16.5 -62s8.16602 -44.667 11.499 -68c4 -32.667 7 -64.167 9 -94.5s3 -55.166 3 -74.499c0 -80 -16 -157.833 -48 -233.5s-66.667 -145.167 -104 -208.5l-29.5 -50l-28.5 -46h-136v0z" />
    <glyph glyph-name="asterisk" unicode="*" horiz-adv-x="572" 
d="M177 460l25 129l137 -33l-73 106l129 72l8 -145l73 145l105 -72l-121 -106l145 33l-24 -137l-129 31l72 -112l-137 -57l-8 129l-73 -137l-104 73l121 104l-146 -23v0z" />
    <glyph glyph-name="plus" unicode="+" horiz-adv-x="676" 
d="M113 194l32 129h202l40 193h129l-40 -193h194l-25 -129h-202l-40 -194h-129l40 194h-201v0z" />
    <glyph glyph-name="comma" unicode="," 
d="M8 -121l129 290h202l-185 -290h-146v0z" />
    <glyph glyph-name="hyphen" unicode="-" 
d="M56 210l25 137h298l-25 -137h-298v0z" />
    <glyph glyph-name="period" unicode="." 
d="M73 0l31 161h194l-32 -161h-193v0z" />
    <glyph glyph-name="slash" unicode="/" horiz-adv-x="282" 
d="M-81 -96l428 846h145l-419 -846h-154v0z" />
    <glyph glyph-name="zero" unicode="0" horiz-adv-x="685" 
d="M96 274c7.33301 134 48.8311 242.002 124.498 324.002s157.834 126.667 246.501 134c4 0 8 0.166992 12 0.5s8.33301 0.5 13 0.5c96.667 0 162.334 -27.167 197.001 -81.5s52 -115.833 52 -184.5c0 -21.333 -1.33301 -42.833 -4 -64.5s-6.66699 -43.834 -12 -66.501
c-22.667 -90 -65.834 -172.667 -129.501 -248s-145.167 -113.333 -244.5 -114h-5.5h-4.5c-1.33301 0.666992 -2.83301 1 -4.5 1h-5.5c-102.667 7.33301 -167.167 38.666 -193.5 93.999s-40.166 115.333 -41.499 180v12v12v1zM540.998 476.002
c0.666992 2.66699 1.00195 5.50098 1.00195 8.50098v9.5c0 30 -7 52 -21 66s-31 21 -51 21c-4.66699 0 -9.83398 -0.5 -15.501 -1.5s-11.167 -2.5 -16.5 -4.5c-19.333 -6.66699 -37.333 -18.334 -54 -35.001s-29 -38.334 -37 -65.001l-15 -46l-14 -45
c-7.33301 -28 -13.166 -56.333 -17.499 -85s-7.83301 -58.667 -10.5 -90v-2v-1v-2v-2c0 -25.333 7.33301 -44.666 22 -57.999s32.667 -20 54 -20c5.33301 0 10.666 0.5 15.999 1.5s10.666 2.16699 15.999 3.5c18.667 6 36.5 17.5 53.5 34.5s30.5 39.833 40.5 68.5
c12 36 22.167 74.5 30.5 115.5s14.5 83.5 18.5 127.5v1z" />
    <glyph glyph-name="one" unicode="1" horiz-adv-x="685" 
d="M306 0l113 524.001c-6 -5.33301 -15.333 -11.5 -28 -18.5s-26.667 -14.167 -42 -21.5c-4.66699 -2.66699 -9.5 -5.16699 -14.5 -7.5s-10.167 -4.5 -15.5 -6.5c-19.333 -8.66699 -37.333 -16.334 -54 -23.001s-30 -11 -40 -13l41 171c30 2.66699 63.333 12.5 100 29.5
s73.667 38.167 111 63.5c2.66699 2 5.16699 4 7.5 6s4.83301 3.66699 7.5 5l170 1l-154 -710h-202v0z" />
    <glyph glyph-name="two" unicode="2" horiz-adv-x="685" 
d="M32 0l24.002 128.998c39.333 34.667 92 71.834 158 111.501s134.667 89.167 206 148.5c1.33301 0.666992 2.5 1.5 3.5 2.5s2.16699 1.83301 3.5 2.5l18 16c6.66699 6 13 12 19 18l24 27c8 9.33301 15 19 21 29c6 9.33301 11 18.833 15 28.5s6 19.167 6 28.5
c0 5.33301 -1 10.666 -3 15.999s-5.66699 10 -11 14c-6.66699 6 -14.5 10.667 -23.5 14s-18.167 5 -27.5 5h-2.5h-3.5c-24 -1.33301 -46.167 -9.66602 -66.5 -24.999s-30.5 -32.666 -30.5 -51.999v-2.5v-3.5l-208 1c11.333 80 51.333 136 120 168s143 48.333 223 49h1h2
c73.333 0 130.666 -11.5 171.999 -34.5s62 -62.833 62 -119.5c0 -46 -14.333 -88.5 -43 -127.5s-60.334 -73.5 -95.001 -103.5c-13.333 -12.667 -27 -24.5 -41 -35.5l-39 -31.5c-6 -6 -17.833 -15.333 -35.5 -28l-58.5 -40c-1.33301 -0.666992 -2.83301 -1.66699 -4.5 -3
s-3.5 -2.33301 -5.5 -3l-56.5 -37.5c-17.667 -11.667 -31.5 -20.167 -41.5 -25.5l331 1l-24 -137h-589v0z" />
    <glyph glyph-name="three" unicode="3" horiz-adv-x="685" 
d="M145 524c10.667 63.333 47 112.832 109 148.499s129 55.5 201 59.5c4.66699 0.666992 9.33398 1 14.001 1h14c73.333 0 134.666 -11 183.999 -33s74 -59.333 74 -112c0 -48.667 -17.167 -92.834 -51.5 -132.501s-83.833 -65.5 -148.5 -77.5
c56.667 -12 93.5 -30.167 110.5 -54.5s25.5 -54.833 25.5 -91.5c0 -6.66699 -0.333008 -13.334 -1 -20.001s-1.66699 -13.667 -3 -21c-9.33301 -50.667 -40.333 -97 -93 -139s-135.667 -64.667 -249 -68c-92 0 -159.833 15.667 -203.5 47s-65.5 80.333 -65.5 147
c0 6 0.166992 12.333 0.5 19s1.16602 13.334 2.49902 20.001l201 1c0 -36.667 5.5 -60.834 16.5 -72.501s32.5 -17.5 64.5 -17.5c37.333 0 65.833 7 85.5 21s32.5 29.667 38.5 47c1.33301 4.66699 2.5 9.33398 3.5 14.001s1.5 9.33398 1.5 14.001v3.5v2.5
c0 28 -10.167 46.833 -30.5 56.5s-42.833 14.834 -67.5 15.501h-4.5h-5.5c-8 0 -16.167 -0.333008 -24.5 -1s-15.833 -1 -22.5 -1c-6.66699 -0.666992 -12.667 -1.33398 -18 -2.00098s-9.66602 -1 -12.999 -1l24 138c2 -0.666992 4.16699 -1 6.5 -1h6.5
c11.333 0 24.5 0.166992 39.5 0.5s30.833 1.5 47.5 3.5c26 4.66699 50.5 13.667 73.5 27s37.833 35.333 44.5 66c0.666992 1.33301 1.16699 3 1.5 5s0.5 3.66699 0.5 5c0 14.667 -7.5 27.5 -22.5 38.5s-34.833 16.5 -59.5 16.5c-24 0 -43 -4.5 -57 -13.5
s-24.333 -18.833 -31 -29.5c-3.33301 -5.33301 -5.83301 -10.666 -7.5 -15.999s-2.5 -10 -2.5 -14l-209 1v0z" />
    <glyph glyph-name="four" unicode="4" horiz-adv-x="685" 
d="M40 137l33 137l387 444h241l-89 -444h106l-25 -137h-112l-25 -137h-202l25 137h-339v0zM412 274l48 250l-210 -250h162v0z" />
    <glyph glyph-name="five" unicode="5" horiz-adv-x="685" 
d="M113 290l105.002 428.001h516l-24 -137h-339l-48 -178c4.66699 4.66699 9.16699 9.5 13.5 14.5s8.83301 9.5 13.5 13.5c23.333 22 47.666 37.333 72.999 46s56.333 13 93 13c60.667 0 104 -16.667 130 -50s39 -78.333 39 -135c0 -92 -30.833 -165.833 -92.5 -221.5
s-129.834 -87.834 -204.501 -96.501c-6.66699 -1.33301 -13.5 -2.16602 -20.5 -2.49902s-13.833 -0.5 -20.5 -0.5c-76 0 -138.833 12.5 -188.5 37.5s-74.5 70.167 -74.5 135.5c0 7.33301 0.333008 15.666 1 24.999s2 18.333 4 27l194 1v-3v-1v-2v-2
c-0.666992 -26.667 6.33301 -46.667 21 -60s31.334 -20 50.001 -20c4.66699 0 9.5 0.333008 14.5 1s10.167 2 15.5 4c22 6.66699 42.667 22.167 62 46.5s31.666 57.5 36.999 99.5c0 24 -6 43.333 -18 58s-29.667 22 -53 22c-20.667 0 -39 -3.5 -55 -10.5
s-30.333 -24.833 -43 -53.5l-201 1v0z" />
    <glyph glyph-name="six" unicode="6" horiz-adv-x="685" 
d="M89 266c0.666992 6.66699 1.33398 13.834 2.00098 21.501s1.66699 15.167 3 22.5c13.333 104 52.5 199.167 117.5 285.5s159.167 129.5 282.5 129.5h3.5h3.5h3.5h3.5c62 0 114.333 -12.333 157 -37s64 -64.667 64 -120c0 -5.33301 -0.166992 -11 -0.5 -17
s-1.16602 -12.667 -2.49902 -20l-194 1c0 19.333 -7.16699 33.5 -21.5 42.5s-31.166 13.5 -50.499 13.5c-37.333 0 -65 -12.833 -83 -38.5s-31.667 -54.167 -41 -85.5c-2.66699 -8 -5.16699 -16.167 -7.5 -24.5l-6.5 -23.5l-4 -11.5l-4 -10.5c2 2.66699 4.5 5.66699 7.5 9
s6.16699 6.33301 9.5 9c18 18 41.667 34.167 71 48.5s64.666 21.5 105.999 21.5c60.667 0 109.5 -17.333 146.5 -52s55.5 -76.334 55.5 -125.001c-4 -108 -41.833 -187.333 -113.5 -238s-149.834 -78 -234.501 -82c-4 -0.666992 -7.83301 -1 -11.5 -1h-11.5
c-88.667 3.33301 -149.834 24.5 -183.501 63.5s-54.167 82.167 -61.5 129.5c-2 15.333 -3.33301 30.5 -4 45.5s-1 29.167 -1 42.5v1zM508 258c0.666992 2 1 4 1 6v6c0.666992 26.667 -7.5 46.667 -24.5 60s-36.833 20.333 -59.5 21
c-4.66699 0 -9.33398 -0.333008 -14.001 -1l-14 -2c-23.333 -5.33301 -45.166 -17.5 -65.499 -36.5s-34.166 -45.5 -41.499 -79.5l-2 -14.5c-0.666992 -5 -1 -9.83301 -1 -14.5c-0.666992 -26.667 6.66602 -47.167 21.999 -61.5s33 -21.5 53 -21.5
c48.667 0 85.167 13.833 109.5 41.5s36.5 59.5 36.5 95.5v1z" />
    <glyph glyph-name="seven" unicode="7" horiz-adv-x="685" 
d="M161 0l395 564h-387l33 154h580l-32 -154l-388 -564h-201v0z" />
    <glyph glyph-name="eight" unicode="8" horiz-adv-x="685" 
d="M290 379c-35.333 -0.666992 -65.668 12.499 -91.001 39.499s-38 56.5 -38 88.5c0 63.333 27 113 81 149s113.333 58 178 66l28.5 2c9.66699 0.666992 18.834 1 27.501 1c12.667 0 26.167 -0.166992 40.5 -0.5s28.5 -1.16602 42.5 -2.49902
c48 -4 91.833 -16.167 131.5 -36.5s59.5 -58.5 59.5 -114.5c0 -49.333 -19.167 -90.833 -57.5 -124.5s-80.5 -57.5 -126.5 -71.5c-2.66699 -0.666992 -5.5 -1.5 -8.5 -2.5s-6.16699 -1.83301 -9.5 -2.5c6.66699 0 13.834 -0.5 21.501 -1.5s15.167 -3.16699 22.5 -6.5
c27.333 -7.33301 52.333 -22 75 -44s34 -50.667 34 -86c0 -69.333 -32.833 -128 -98.5 -176s-153.5 -72 -263.5 -72h-12h-13c-80.667 0 -142.334 15.667 -185.001 47s-64 77 -64 137c0 48.667 21.5 92.667 64.5 132s96.5 65.333 160.5 78v1zM499.998 232.999
c0 20 -5.99902 38.332 -17.999 54.999s-38.333 25 -79 25c-5.33301 0 -10.5 -0.5 -15.5 -1.5s-10.167 -2.16699 -15.5 -3.5c-24.667 -8 -47.167 -22.667 -67.5 -44s-30.5 -45 -30.5 -71c0 -23.333 9.16699 -41.166 27.5 -53.499s39.5 -18.5 63.5 -18.5
c4 0 8 0.166992 12 0.5s8 0.833008 12 1.5c25.333 4 49.166 15 71.499 33s35.5 43.333 39.5 76v1zM547.999 540.998c0 23.333 -5.66797 39.1689 -17.001 47.502s-23.333 13.166 -36 14.499c-4.66699 0.666992 -9.33398 1 -14.001 1h-13c-4.66699 0 -9.5 -0.333008 -14.5 -1
s-10.167 -1.66699 -15.5 -3c-21.333 -4.66699 -40.666 -14.834 -57.999 -30.501s-26 -36.5 -26 -62.5v-2.5v-3.5c0 -22.667 7.5 -39.5 22.5 -50.5s32.167 -16.5 51.5 -16.5c3.33301 0 6.83301 0.166992 10.5 0.5s7.83398 0.833008 12.501 1.5c23.333 4 44.833 15 64.5 33
s30.5 41.667 32.5 71v1z" />
    <glyph glyph-name="nine" unicode="9" horiz-adv-x="685" 
d="M121 427c0.666992 13.333 2.66895 27.667 6.00195 43s7.66602 30.666 12.999 45.999c20 50.667 55.833 97.334 107.5 140.001s125.167 65.667 220.5 69c80.667 0 146.334 -19.167 197.001 -57.5s76 -100.166 76 -185.499c0 -20.667 -1.16699 -41.667 -3.5 -63
s-5.83301 -42.666 -10.5 -63.999c-20 -93.333 -62.5 -178.5 -127.5 -255.5s-154.5 -115.5 -268.5 -115.5c-76 0 -138.167 12.167 -186.5 36.5s-72.833 69.166 -73.5 134.499v7.5c0 2.33301 0.333008 4.83301 1 7.5c0 2 0.166992 4.16699 0.5 6.5s0.5 4.83301 0.5 7.5l201 1
c0 -2 -0.166992 -3.5 -0.5 -4.5s-0.5 -2.16699 -0.5 -3.5c-0.666992 -1.33301 -1 -2.5 -1 -3.5v-3.5c0 -12.667 6 -24.167 18 -34.5s33.333 -15.5 64 -15.5c41.333 0 75.666 19 102.999 57s45.666 80 54.999 126c0.666992 2.66699 1.33398 5.5 2.00098 8.5
s1.33398 6.5 2.00098 10.5c-14.667 -14.667 -33.334 -27.834 -56.001 -39.501s-46.334 -20.5 -71.001 -26.5c-10 -2 -19.833 -3.66699 -29.5 -5s-19.167 -2 -28.5 -2c-56 0 -104 13.5 -144 40.5s-62 72.5 -66 136.5v1zM541.002 500.001v2.49902c0 1 0.333008 1.83301 1 2.5
v3.5v2.5c0 28 -10 47.833 -30 59.5s-43 17.5 -69 17.5c-32.667 -2 -59.5 -14 -80.5 -36s-34.167 -46 -39.5 -72c-1.33301 -4 -2.33301 -8 -3 -12s-1 -8 -1 -12c0 -20 6 -37.667 18 -53s31.333 -23.666 58 -24.999c36 0 69.333 11 100 33s46 51.333 46 88v1z" />
    <glyph glyph-name="colon" unicode=":" 
d="M73 0l31 154h194l-32 -154h-193v0zM145 354l32 162h194l-32 -162h-194v0z" />
    <glyph glyph-name="semicolon" unicode=";" 
d="M8 -121l129 282h202l-185 -282h-146v0zM161 354l33 162h193l-33 -162h-193v0z" />
    <glyph glyph-name="less" unicode="&#x3c;" horiz-adv-x="676" 
d="M121 202l16 112l573 227l-25 -129l-395 -154l331 -145l-32 -138l-468 227v0z" />
    <glyph glyph-name="equal" unicode="=" horiz-adv-x="368" 
d="M74 355h218v27h-218v-27zM74 709h218v27h-218v-27zM74 536h218v26h-218v-26zM74 175h218v27h-218v-27zM74 0h218v27h-218v-27zM214 357z" />
    <glyph glyph-name="greater" unicode="&#x3e;" horiz-adv-x="676" 
d="M483 266l-322 146l24 144l477 -242l-25 -104l-572 -242l24 136l394 162v0z" />
    <glyph glyph-name="question" unicode="?" horiz-adv-x="572" 
d="M137 0l32 154h193l-31 -154h-194v0zM194 194l15.998 89c6 27.333 19.167 51.666 39.5 72.999s41.833 42 64.5 62c1.33301 0.666992 3 1.66699 5 3s3.66699 2.66602 5 3.99902c22 18.667 42 37.5 60 56.5s29.667 40.833 35 65.5c0.666992 2.66699 1 5.16699 1 7.5v6.5
c0.666992 24 -10.5 42.167 -33.5 54.5s-52.167 18.5 -87.5 18.5c-16 0 -33 -1.16699 -51 -3.5s-36 -5.83301 -54 -10.5l24 130c28 7.33301 55.833 13 83.5 17s53.5 6 77.5 6c76.667 0 133.334 -8.66699 170.001 -26s62 -36.666 76 -57.999
c8.66699 -13.333 14.167 -26.166 16.5 -38.499s3.5 -22.5 3.5 -30.5v-7.5c0 -2.33301 0.333008 -4.5 1 -6.5c0 -43.333 -13.167 -81.5 -39.5 -114.5s-60.166 -64.833 -101.499 -95.5c-9.33301 -7.33301 -19.166 -14.333 -29.499 -21l-32.5 -22
c-18.667 -12 -32.834 -24.833 -42.501 -38.5s-16.834 -27.5 -21.501 -41.5c-4 -11.333 -7 -22.5 -9 -33.5s-3.66699 -21.5 -5 -31.5c0 -2.66699 -0.166992 -5.16699 -0.5 -7.5s-1.16602 -4.83301 -2.49902 -7.5l-168 1v0z" />
    <glyph glyph-name="at" unicode="@" horiz-adv-x="757" 
d="M56 298c8 134 58.9922 246.667 152.992 338s202.333 137 325 137h6.5h7.5c112 -4.66699 191 -33 237 -85s69 -110.333 69 -175c0 -5.33301 -0.166992 -10.833 -0.5 -16.5s-0.833008 -11.167 -1.5 -16.5c-4 -44 -16.167 -86.5 -36.5 -127.5s-45.166 -75.5 -74.499 -103.5
l-11.5 -11c-4.33301 -4 -9.16602 -8 -14.499 -12c-8.66699 -6.66699 -18.5 -13.167 -29.5 -19.5l-33.5 -18.5c-17.333 -9.33301 -33.666 -17 -48.999 -23s-28.333 -10 -39 -12c-8 -2.66699 -15.833 -4.66699 -23.5 -6s-15.167 -2 -22.5 -2
c-15.333 -0.666992 -27.666 2.66602 -36.999 9.99902s-14 18.333 -14 33v6.5c0 2.33301 0.333008 4.5 1 6.5c-10.667 -10.667 -21.667 -19.667 -33 -27s-22.666 -13 -33.999 -17c-7.33301 -2.66699 -14.666 -4.83398 -21.999 -6.50098s-15 -2.5 -23 -2.5
c-30.667 0 -58.167 10.667 -82.5 32s-40.5 49.666 -48.5 84.999c-1.33301 5.33301 -2.5 11.166 -3.5 17.499s-1.5 12.833 -1.5 19.5c0 14.667 1.66699 29.5 5 44.5s8.33301 30.167 15 45.5c19.333 49.333 50.5 94.333 93.5 135s92.167 61 147.5 61h5.5h5.5
c24.667 0 46.334 -5.83301 65.001 -17.5s32 -27.5 40 -47.5l24 58h97l-97 -267c-0.666992 -2.66699 -1.5 -5 -2.5 -7s-1.83301 -4 -2.5 -6l-5.5 -18.5c-1.66699 -5.66699 -2.5 -10.5 -2.5 -14.5c0 -3.33301 0.833008 -6 2.5 -8s5.16699 -3 10.5 -3
c16 0 30.167 5.83301 42.5 17.5s22.833 24.167 31.5 37.5c2.66699 4 5.33398 8.33301 8.00098 13s5 9 7 13c13.333 28 23 54 29 78s9 46.333 9 67c0.666992 58 -17.166 103.5 -53.499 136.5s-76.5 53.167 -120.5 60.5c-6.66699 1.33301 -13.5 2.33301 -20.5 3
s-14.167 1 -21.5 1c-105.333 -3.33301 -187.333 -39 -246 -107s-93.667 -142.667 -105 -224c-1.33301 -9.33301 -2.33301 -18.666 -3 -27.999s-1 -18.666 -1 -27.999c2.66699 -78 28.834 -132.833 78.501 -164.5s104.167 -47.5 163.5 -47.5h2.5h3.5
c40 0.666992 78.667 7.16699 116 19.5s66.666 28.5 87.999 48.5l105 1c-2.66699 -6 -5.83398 -11.667 -9.50098 -17s-7.83398 -10.666 -12.501 -15.999c-21.333 -24 -50.333 -46.833 -87 -68.5s-74.667 -38.5 -114 -50.5c-18.667 -5.33301 -37.167 -9.66602 -55.5 -12.999
s-36.166 -5 -53.499 -5h-7.5h-7.5c-88.667 4 -165 30 -229 78s-98 126.333 -102 235v1zM540.992 379c1.33301 4 2.16797 8.16895 2.50098 12.502s0.5 8.16602 0.5 11.499c0 22 -7 36.833 -21 44.5s-29.667 11.5 -47 11.5c-34.667 0 -62 -10.333 -82 -31s-33.333 -43 -40 -67
c-0.666992 -5.33301 -1.33398 -10.333 -2.00098 -15s-1 -9.33398 -1 -14.001c0 -18.667 4.5 -34.5 13.5 -47.5s21.833 -19.5 38.5 -19.5c7.33301 0 16.333 1.16699 27 3.5s21.667 6.5 33 12.5c17.333 8 33.5 20 48.5 36s24.833 36.333 29.5 61v1z" />
    <glyph glyph-name="A" unicode="A" horiz-adv-x="855" 
d="M8 0l444 741h258l137 -741h-235l-23 145h-291l-80 -145h-210v0zM572 298l-31 314l-162 -314h193v0z" />
    <glyph glyph-name="B" unicode="B" horiz-adv-x="758" 
d="M73 0l160.002 741.001h267c79.333 -0.666992 150.166 -6 212.499 -16s93.5 -46.667 93.5 -110v-2.5v-2.5v-3v-3c0 -56.667 -17.167 -102.834 -51.5 -138.501s-81.833 -59.5 -142.5 -71.5c60.667 -16.667 100.167 -37.334 118.5 -62.001s27.5 -55 27.5 -91
c0 -64 -24.833 -117.167 -74.5 -159.5s-104.167 -68.5 -163.5 -78.5c-8.66699 -1.33301 -17.334 -2.16602 -26.001 -2.49902s-17 -0.5 -25 -0.5h-8.5h-8.5h-379v0zM314.002 154.001l128.999 0.00195312c20.667 -0.666992 39.667 7.16602 57 23.499s28 34.166 32 53.499
c0.666992 2.66699 1.33398 5.5 2.00098 8.5s1 5.83301 1 8.5c0 16 -6.33301 29.5 -19 40.5s-34 16.5 -64 16.5l-105 1l-33 -152v0zM379.001 468.003h121c24.667 -0.666992 44.5 6.5 59.5 21.5s23.833 31.5 26.5 49.5c0 2 0.166992 3.83301 0.5 5.5s0.5 3.16699 0.5 4.5
c0 16.667 -6.16699 31.167 -18.5 43.5s-32.5 18.5 -60.5 18.5l-105 1l-24 -144v0z" />
    <glyph glyph-name="C" unicode="C" horiz-adv-x="798" 
d="M104 266c0 26.667 2.17383 56.6689 6.50684 90.002s11.5 66.666 21.5 99.999c24 76 68.667 145.833 134 209.5s164.666 96.834 297.999 99.501c16 0 32.833 -0.5 50.5 -1.5s35.834 -2.83301 54.501 -5.5c52 -7.33301 99.833 -24 143.5 -50s65.5 -68.333 65.5 -127
c0 -8.66699 -0.666992 -17.834 -2 -27.501s-3.33301 -19.834 -6 -30.501l-225 1c0.666992 3.33301 1.16699 7 1.5 11s0.5 7.33301 0.5 10c0 24.667 -7 42.667 -21 54s-29 19.333 -45 24c-8.66699 2 -17.334 3.33301 -26.001 4s-16.334 1 -23.001 1c-6 0 -12 -0.5 -18 -1.5
s-12 -2.16699 -18 -3.5c-30.667 -9.33301 -60.334 -32.666 -89.001 -69.999s-51.334 -93 -68.001 -167c-1.33301 -6 -2.5 -12.167 -3.5 -18.5s-1.83301 -12.5 -2.5 -18.5c-2 -12.667 -3.5 -25.167 -4.5 -37.5s-1.5 -24.5 -1.5 -36.5c0 -38.667 7.66699 -71.667 23 -99
s44 -41 86 -41h11.5c4.33301 0 8.5 0.333008 12.5 1c6.66699 0 13.667 0.833008 21 2.5s15 4.16699 23 7.5c20 8.66699 38.5 22.167 55.5 40.5s26.833 39.166 29.5 62.499l217 1c0.666992 -2 1.16699 -3.83301 1.5 -5.5s0.5 -3.5 0.5 -5.5c0 -12 -4.5 -29 -13.5 -51
s-23.167 -45 -42.5 -69c-28.667 -34 -69.834 -65 -123.501 -93s-122.834 -42 -207.501 -42h-8h-10c-114.667 0 -191.334 23.5 -230.001 70.5s-61 99.167 -67 156.5c-0.666992 8.66699 -1.16699 17.667 -1.5 27s-0.5 18.333 -0.5 27v1z" />
    <glyph glyph-name="D" unicode="D" horiz-adv-x="855" 
d="M65 0l160.002 740.999h307c4 -0.666992 8 -1.16699 12 -1.5s7.66699 -0.5 11 -0.5c87.333 -4 167.166 -20.5 239.499 -49.5s108.5 -98.167 108.5 -207.5v-7.5v-7.5c0 -20 -1.16699 -40.167 -3.5 -60.5s-5.83301 -41.166 -10.5 -62.499
c-20.667 -86 -69.334 -164.833 -146.001 -236.5s-198 -107.5 -364 -107.5h-314v0zM314.002 153.999h80.999c1.33301 -0.666992 2.5 -1 3.5 -1h3.5h4h4c68 -0.666992 125 22.166 171 68.499s75.667 97.5 89 153.5c2.66699 9.33301 4.5 18.833 5.5 28.5s1.5 19.167 1.5 28.5
c0 41.333 -12.167 77.833 -36.5 109.5s-63.166 49.834 -116.499 54.501l-121 1l-89 -443v0z" />
    <glyph glyph-name="E" unicode="E" horiz-adv-x="685" 
d="M56 0l154 741h572l-32 -144h-355l-33 -145h331l-31 -154h-331l-33 -144h364l-33 -154h-573v0z" />
    <glyph glyph-name="F" unicode="F" horiz-adv-x="628" 
d="M73 0l152 741h525l-24 -144h-323l-32 -162h299l-33 -152h-298l-56 -283h-210v0z" />
    <glyph glyph-name="G" unicode="G" horiz-adv-x="855" 
d="M96 283c4 144 52.1699 259.004 144.503 345.004s211.166 129 356.499 129c16 0 32.833 -0.333008 50.5 -1s35.5 -2 53.5 -4c46 -5.33301 88.333 -19.666 127 -42.999s58 -64.333 58 -123c0 -8.66699 -0.5 -18.334 -1.5 -29.001s-2.83301 -22 -5.5 -34l-202 1
c-3.33301 27.333 -13.166 48.666 -29.499 63.999s-46.833 23 -91.5 23c-60 0 -113.167 -28.333 -159.5 -85s-73.833 -119.334 -82.5 -188.001c-0.666992 -2.66699 -1 -5.83398 -1 -9.50098v-12.5c0 -9.33301 0.666992 -19.333 2 -30s3.66602 -21.334 6.99902 -32.001
c8 -31.333 24.167 -60.166 48.5 -86.499s59.5 -39.5 105.5 -39.5c11.333 0 27.333 1 48 3s45 9.33301 73 22l24 121h-145l32 153h355l-81 -402c-72.667 -12.667 -138.834 -22.667 -198.501 -30s-111.834 -11 -156.501 -11h-5.5h-4.5h-4.5h-5.5
c-113.333 -0.666992 -193.5 27.166 -240.5 83.499s-70.5 127.833 -70.5 214.5v1z" />
    <glyph glyph-name="H" unicode="H" horiz-adv-x="798" 
d="M65 0l177 741h193l-64 -281h250l56 281h210l-153 -741h-210l65 306h-250l-65 -306h-209v0z" />
    <glyph glyph-name="I" unicode="I" 
d="M65 0l160 741h210l-152 -741h-218v0z" />
    <glyph glyph-name="J" unicode="J" horiz-adv-x="628" 
d="M56 250l202.002 0.000976562c-0.666992 -7.33301 -1.5 -14.5 -2.5 -21.5s-1.5 -14.167 -1.5 -21.5c0 -18.667 3.5 -35.167 10.5 -49.5s20.833 -21.5 41.5 -21.5s38.167 8 52.5 24s25.5 34 33.5 54c5.33301 10.667 9.66602 21.334 12.999 32.001
s5.66602 19.667 6.99902 27l96 468h210l-97 -467c-18 -112.667 -57.333 -187.667 -118 -225s-126 -58.333 -196 -63c-8 -0.666992 -16.167 -1.16699 -24.5 -1.5s-16.5 -0.5 -24.5 -0.5c-75.333 2.66699 -130.5 19.167 -165.5 49.5s-52.5 70.5 -52.5 120.5
c0 15.333 1.5 30.666 4.5 45.999s6.83301 31.666 11.5 48.999v1z" />
    <glyph glyph-name="K" unicode="K" horiz-adv-x="798" 
d="M73 0l152 741h210l-64 -306l299 306h258l-331 -314l185 -427h-258l-162 395l-79 -395h-210v0z" />
    <glyph glyph-name="L" unicode="L" horiz-adv-x="628" 
d="M56 0l154 741h217l-129 -580h339l-32 -161h-549v0z" />
    <glyph glyph-name="M" unicode="M" horiz-adv-x="1024" 
d="M56 0l162 741h323l15 -475l218 475h323l-154 -741h-185l129 621l-298 -621h-186l-32 621l-129 -621h-186v0z" />
    <glyph glyph-name="N" unicode="N" horiz-adv-x="855" 
d="M56 0l154 741h298l129 -531l121 531h193l-160 -741h-291l-138 564l-112 -564h-194v0z" />
    <glyph glyph-name="O" unicode="O" horiz-adv-x="855" 
d="M104 274c11.333 172 60.6709 293.166 148.004 363.499s182 109.5 284 117.5c7.33301 0.666992 14.666 1.16699 21.999 1.5s15 0.5 23 0.5c112.667 0 194.5 -24.5 245.5 -73.5s76.5 -116.167 76.5 -201.5c0 -27.333 -2.33301 -56.5 -7 -87.5s-12.334 -62.5 -23.001 -94.5
c-26.667 -81.333 -74.834 -155.666 -144.501 -222.999s-170.834 -101.333 -303.501 -102h-6h-7c-119.333 3.33301 -199 31.333 -239 84s-62.667 110 -68 172c0 6.66699 -0.166992 13.667 -0.5 21s-0.5 14.333 -0.5 21v1zM339.005 386.999c-4 -20 -7 -38.667 -9 -56
s-3 -33.666 -3 -48.999c0 -48 10.167 -84.333 30.5 -109s51.833 -37 94.5 -37c77.333 0 134.5 34 171.5 102s57.5 144.333 61.5 229c0 40 -10 74 -30 102s-50.333 42 -91 42c-48 0 -91.5 -15.333 -130.5 -46s-70.5 -90.334 -94.5 -179.001v1z" />
    <glyph glyph-name="P" unicode="P" horiz-adv-x="741" 
d="M65 0l153.001 741.001h346c8.66699 -0.666992 17.5 -1.16699 26.5 -1.5s17.833 -0.833008 26.5 -1.5c53.333 -3.33301 102.166 -16.833 146.499 -40.5s66.5 -68.5 66.5 -134.5c0 -108.667 -34.333 -186.834 -103 -234.501s-150 -71.5 -244 -71.5l-152 1l-57 -258h-209v0z
M362.001 403.001h114.001c30.667 -0.666992 57.5 8.83301 80.5 28.5s37.5 41.167 43.5 64.5c1.33301 4 2.33301 8 3 12s1 8 1 12c0 18.667 -7.33301 34.667 -22 48s-39.334 20 -74.001 20l-105 1l-41 -186v0z" />
    <glyph glyph-name="Q" unicode="Q" horiz-adv-x="855" 
d="M104 283c12 132 59.501 243.995 142.501 335.995s197.167 138 342.5 138c112.667 -3.33301 189.5 -26.833 230.5 -70.5s66.167 -91.5 75.5 -143.5c2 -11.333 3.66699 -22.666 5 -33.999s2.33301 -22.666 3 -33.999c0 -24.667 -2.5 -51.167 -7.5 -79.5
s-13.833 -57.166 -26.5 -86.499c-15.333 -34 -37 -67.5 -65 -100.5s-65 -62.5 -111 -88.5c16.667 6.66699 37.667 11.834 63 15.501s51.333 6.16699 78 7.5c6 0.666992 12 1 18 1h18l-31 -144h-283l-14.5 -2c-5 -0.666992 -10.833 -1.66699 -17.5 -3
c-16 -2 -33.667 -3.83301 -53 -5.5s-39.333 -2.5 -60 -2.5c-10 0 -20.333 0.333008 -31 1s-21.667 1.66699 -33 3c-60.667 6 -116.334 29.333 -167.001 70s-76 114.334 -76 221.001v1zM347.001 386.995c-4.66699 -22 -8.33301 -42.667 -11 -62s-4 -38 -4 -56
c0 -42 8.66699 -76 26 -102s45.666 -39 84.999 -39c58.667 0 105.334 18.667 140.001 56s59.334 78 74.001 122c5.33301 17.333 9.83301 34.166 13.5 50.499s5.83398 31.5 6.50098 45.5c1.33301 10 2.33301 19.667 3 29s1 18.333 1 27c0 44 -7 76.667 -21 98
s-29.667 36 -47 44c-8.66699 4.66699 -17.5 7.66699 -26.5 9s-16.5 2 -22.5 2h-2.5h-2.5h-3h-3c-53.333 0.666992 -96.833 -20.666 -130.5 -63.999s-57.5 -91 -71.5 -143c-0.666992 -2.66699 -1.33398 -5.5 -2.00098 -8.5s-1.33398 -6.16699 -2.00098 -9.5v1z" />
    <glyph glyph-name="R" unicode="R" horiz-adv-x="741" 
d="M56 0l153.999 741.005h322c0.666992 -0.666992 1.33398 -1 2.00098 -1h2c69.333 0 133 -9.16699 191 -27.5s87 -58.833 87 -121.5v-2.5v-2.5v-3v-3c-2.66699 -52 -18.167 -93.833 -46.5 -125.5s-59.166 -55.5 -92.499 -71.5c-13.333 -6 -26.833 -10.667 -40.5 -14
s-26.167 -6 -37.5 -8h1h1c2.66699 -0.666992 5.5 -1.16699 8.5 -1.5s5.83301 -0.833008 8.5 -1.5c25.333 -4 48.666 -12 69.999 -24s32 -37.667 32 -77c0 -18 -0.5 -35.167 -1.5 -51.5s-2.16699 -32.5 -3.5 -48.5c-1.33301 -16.667 -2.5 -33.334 -3.5 -50.001
s-1.5 -34 -1.5 -52c0 -8.66699 0.166992 -17.834 0.5 -27.501s0.833008 -18.834 1.5 -27.501h-227c-0.666992 4 -1.16699 8.16699 -1.5 12.5s-0.5 9.16602 -0.5 14.499c0 11.333 0.666992 23 2 35l4 35c0.666992 3.33301 1.16699 6.83301 1.5 10.5
s0.833008 7.16699 1.5 10.5c2 15.333 4.16699 30.166 6.5 44.499s3.5 28.166 3.5 41.499c0 20.667 -4 37.334 -12 50.001s-23 19 -45 19h-2h-2h-2h-2l-104 1l-57 -274h-218v0zM361.999 427.005l106.001 0.000976562c28.667 -0.666992 53.167 7.16602 73.5 23.499
s34.166 34.5 41.499 54.5l2 10.5c0.666992 3.66699 1 7.16699 1 10.5c0 16 -6 30 -18 42s-32 18.667 -60 20l-113 1l-33 -162v0z" />
    <glyph glyph-name="S" unicode="S" horiz-adv-x="741" 
d="M154 492c7.33301 92 46.666 159.17 117.999 201.503s155.333 63.5 252 63.5c8 0 16.333 -0.166992 25 -0.5s17 -0.833008 25 -1.5c52.667 -4 100.834 -17.833 144.501 -41.5s65.834 -65.167 66.501 -124.5c0 -10.667 -0.833008 -22.167 -2.5 -34.5s-4.5 -25.5 -8.5 -39.5
l-210 1c1.33301 4 2.16602 8.16699 2.49902 12.5s0.5 8.16602 0.5 11.499c0.666992 24 -7.5 41.167 -24.5 51.5s-36.5 15.5 -58.5 15.5h-6h-7c-22.667 -2 -43.667 -9.66699 -63 -23s-29 -31 -29 -53c0 -20.667 19.667 -38.834 59 -54.501s87 -29.834 143 -42.501
c46 -10 80.333 -25 103 -45s38 -40.667 46 -62c4 -10 6.83301 -20.333 8.5 -31s2.5 -21 2.5 -31c0 -72.667 -32.167 -137.667 -96.5 -195s-161.166 -86 -290.499 -86c-112 0 -185 19.333 -219 58s-51 83 -51 133c0 5.33301 0.166992 10.833 0.5 16.5s0.5 11.167 0.5 16.5
l2 16c0.666992 5.33301 1.33398 11 2.00098 17l209 1c-0.666992 -4.66699 -1 -9 -1 -13v-11c0 -26.667 7.16699 -48.334 21.5 -65.001s37.166 -25 68.499 -25c6.66699 0 15.167 0.833008 25.5 2.5s20.5 4.16699 30.5 7.5c18.667 6 35.5 15.167 50.5 27.5
s22.5 28.833 22.5 49.5v4.5v4.5c0 17.333 -13 31.833 -39 43.5s-54.667 21.834 -86 30.501l-57.5 15.5c-18.333 5 -33.5 9.83301 -45.5 14.5c-0.666992 0 -1.5 0.166992 -2.5 0.5s-1.83301 0.833008 -2.5 1.5h-1v0c-6.66699 2.66699 -13.834 5.16699 -21.501 7.5
s-15.5 5.16602 -23.5 8.49902c-20.667 8.66699 -39.667 23.334 -57 44.001s-26 54 -26 100v2z" />
    <glyph glyph-name="T" unicode="T" horiz-adv-x="685" 
d="M225 0l129 597h-225l32 144h669l-24 -144h-234l-129 -597h-218v0z" />
    <glyph glyph-name="U" unicode="U" horiz-adv-x="855" 
d="M129 290l96.002 451.004h210l-96 -458c-0.666992 -3.33301 -1.16699 -6.5 -1.5 -9.5s-0.5 -5.5 -0.5 -7.5c-0.666992 -2.66699 -1.16699 -5.33398 -1.5 -8.00098s-0.5 -5.33398 -0.5 -8.00098c0 -30 10 -56.5 30 -79.5s49 -34.5 87 -34.5h7.5h6.5
c45.333 -0.666992 80.5 10.166 105.5 32.499s42.833 46.5 53.5 72.5c3.33301 8 6 16.167 8 24.5s3.33301 16.166 4 23.499l97 452h209l-88 -427c-20.667 -106 -65.334 -187.5 -134.001 -244.5s-169.334 -85.5 -302.001 -85.5c-98 0 -171.833 19.667 -221.5 59
s-74.5 97.333 -74.5 174c0 11.333 0.5 22.833 1.5 34.5s2.5 24.167 4.5 37.5v1z" />
    <glyph glyph-name="V" unicode="V" horiz-adv-x="798" 
d="M266 0l-105 741h234l57 -523l282 523h217l-427 -741h-258v0z" />
    <glyph glyph-name="W" unicode="W" horiz-adv-x="1024" 
d="M129 0l32 741h210l-48 -531l233 531h250v-516l170 516h193l-282 -741h-250l-8 548l-250 -548h-250v0z" />
    <glyph glyph-name="X" unicode="X" horiz-adv-x="855" 
d="M362 387l-185 354h275l89 -225l193 225h250l-339 -346l194 -395h-267l-104 258l-218 -258h-250l362 387v0z" />
    <glyph glyph-name="Y" unicode="Y" horiz-adv-x="798" 
d="M290 0l57 266l-186 475h242l89 -306l234 306h217l-387 -467l-56 -274h-210v0z" />
    <glyph glyph-name="Z" unicode="Z" horiz-adv-x="685" 
d="M16 0l32 154l476 435h-363l33 152h564l-40 -193l-435 -394h402l-32 -154h-637v0z" />
    <glyph glyph-name="bracketleft" unicode="[" 
d="M16 -104l178 854h282l-24 -121h-113l-129 -613h113l-25 -120h-282v0z" />
    <glyph glyph-name="backslash" unicode="\" horiz-adv-x="282" 
d="M242 0l-202 750h162l201 -750h-161v0z" />
    <glyph glyph-name="bracketright" unicode="]" 
d="M137 16l129 621h-112l23 113h266l-177 -846h-266l25 112h112v0z" />
    <glyph glyph-name="asciicircum" unicode="^" horiz-adv-x="676" 
d="M145 339l274 379h129l122 -387l-129 -48l-89 281l-210 -290l-97 65v0z" />
    <glyph glyph-name="underscore" unicode="_" horiz-adv-x="516" 
d="M-32 -121l16 56h516l-17 -56h-515v0z" />
    <glyph glyph-name="grave" unicode="`" 
d="M89 734h225l81 -153h-129l-177 153v0z" />
    <glyph glyph-name="a" unicode="a" horiz-adv-x="628" 
d="M145 362c3.33301 54.667 29.1738 95.834 77.5068 123.501s100.833 44.834 157.5 51.501c9.33301 1.33301 18.666 2.16602 27.999 2.49902s18.333 0.5 27 0.5c82.667 0 139.5 -13 170.5 -39s46.5 -57.667 46.5 -95c0 -5.33301 -0.333008 -11 -1 -17l-2 -18
c-0.666992 -2.66699 -1.33398 -5.66699 -2.00098 -9s-1.33398 -6.33301 -2.00098 -9l-56 -264l-8 -89h-194v16c0 5.33301 0.333008 10.666 1 15.999c0.666992 4.66699 1.5 9.5 2.5 14.5s2.5 10.5 4.5 16.5c-16.667 -23.333 -38.834 -41.166 -66.501 -53.499
s-56.5 -20.166 -86.5 -23.499c-4.66699 0 -9.16699 -0.166992 -13.5 -0.5s-8.5 -0.5 -12.5 -0.5c-40 0 -76.167 9.5 -108.5 28.5s-49.5 48.833 -51.5 89.5v3v3v2.5v2.5c-0.666992 52 15.333 93.833 48 125.5s68 55.5 106 71.5c19.333 7.33301 38 13.333 56 18
s34 7.66699 48 9c12 2 24.167 3.5 36.5 4.5s24.5 1.83301 36.5 2.5s24 1 36 1h37c1.33301 8.66699 2.16602 16.667 2.49902 24s0.5 13.666 0.5 18.999c0 22 -3.83301 36.333 -11.5 43s-20.834 10 -39.501 10c-20.667 0 -38.334 -7.33301 -53.001 -22
s-24 -34.334 -28 -59.001l-186 1v0zM427.008 250c-1.33301 -0.666992 -2.83301 -0.998047 -4.5 -0.998047s-3.16699 0.333008 -4.5 1h-4h-4c-39.333 -0.666992 -73.833 -9.5 -103.5 -26.5s-44.834 -38.167 -45.501 -63.5c0 -6.66699 1 -13.334 3 -20.001
s5.33301 -13.334 10 -20.001c4.66699 -6 10.334 -10.667 17.001 -14s13.667 -5 21 -5c5.33301 0 11 0.666992 17 2s11.667 3.33301 17 6c20.667 8.66699 39.5 24 56.5 46s25.5 47 25.5 75v10c0 3.33301 -0.333008 6.33301 -1 9v1z" />
    <glyph glyph-name="b" unicode="b" horiz-adv-x="685" 
d="M56 0l154 741.001h202l-58 -281c16.667 15.333 37.334 29.166 62.001 41.499s50.334 20.833 77.001 25.5c6.66699 1.33301 13.167 2.33301 19.5 3s12.833 1 19.5 1c64.667 -4 110.5 -22.667 137.5 -56s40.5 -76.333 40.5 -129c0 -20.667 -1.83301 -43.667 -5.5 -69
s-9.83398 -51.333 -18.501 -78c-17.333 -54 -47.333 -103.333 -90 -148s-104 -67 -184 -67c-52.667 0 -86.834 8.66699 -102.501 26s-27.5 38 -35.5 62l-24 -72h-194v0zM492 250.001c2.66699 16.667 4.83398 32 6.50098 46s2.5 27 2.5 39c0 24.667 -4.83301 43.5 -14.5 56.5
s-26.834 19.5 -51.501 19.5c-32 0 -58.667 -16.667 -80 -50s-36.333 -69.666 -45 -108.999c-2 -10 -3.66699 -20.333 -5 -31s-2 -21.334 -2 -32.001c0 -26 4.33301 -48.167 13 -66.5s21.334 -27.5 38.001 -27.5c40 0 70.833 13.833 92.5 41.5s35.5 58.167 41.5 91.5
c0.666992 3.33301 1.16699 6.83301 1.5 10.5s1.16602 7.16699 2.49902 10.5v1z" />
    <glyph glyph-name="c" unicode="c" horiz-adv-x="628" 
d="M73 194c8 92 39.8291 172.666 95.4961 241.999s141.834 104 258.501 104c67.333 0 117.333 -11.667 150 -35s54.334 -49 65.001 -77c4.66699 -12 8 -23.667 10 -35s3 -22 3 -32c0 -4 -0.166992 -8 -0.5 -12s-0.833008 -7.66699 -1.5 -11l-201 1
c1.33301 4.66699 2.33301 9.5 3 14.5s1 10.167 1 15.5c0 20 -6 33.167 -18 39.5s-26.333 9.5 -43 9.5c-26.667 0 -49.834 -16.5 -69.501 -49.5s-33.5 -69.167 -41.5 -108.5c-2.66699 -10.667 -4.66699 -21.5 -6 -32.5s-2 -21.5 -2 -31.5
c0 -25.333 4.33301 -47.166 13 -65.499s22.667 -27.5 42 -27.5c20.667 0 37.834 7.16699 51.501 21.5s24.834 30.5 33.501 48.5c2.66699 6 4.83398 12.167 6.50098 18.5l4.5 17.5l194 1c-1.33301 -12 -4.33301 -25.333 -9 -40s-11 -29.334 -19 -44.001
c-20 -33.333 -51.333 -64 -94 -92s-100.667 -42 -174 -42h-9h-10c-68 0 -122.833 13.333 -164.5 40s-64.5 80.334 -68.5 161.001v1z" />
    <glyph glyph-name="d" unicode="d" horiz-adv-x="685" 
d="M81 185c4 92 35.501 174.168 94.501 246.501s126.833 108.5 203.5 108.5c30.667 0 56.667 -6.83301 78 -20.5s42 -31.834 62 -54.501c0.666992 -1.33301 1.5 -2.5 2.5 -3.5l2.5 -2.5l57 282h201l-153 -741h-202l16 81c-16 -28.667 -41.167 -52 -75.5 -70
s-73.5 -27 -117.5 -27c-45.333 0 -79.833 12 -103.5 36s-40.834 50.667 -51.501 80c-5.33301 15.333 -9 30.5 -11 45.5s-3 27.833 -3 38.5v1zM298.001 274.001c-2.66699 -14.667 -4.66797 -28.668 -6.00098 -42.001s-2 -25.666 -2 -36.999c0 -26.667 4.5 -48.667 13.5 -66
s25.833 -26 50.5 -26c28.667 0 54.167 13.5 76.5 40.5s37.5 56.5 45.5 88.5c0.666992 1.33301 1.16699 3 1.5 5s0.5 3.66699 0.5 5c2.66699 10 5 21.167 7 33.5s3.33301 24.833 4 37.5v5v5c0 22 -3.66699 41.5 -11 58.5s-21.666 26.833 -42.999 29.5h-2.5
c-1 0 -1.83301 0.333008 -2.5 1h-3h-3c-33.333 0 -60.833 -13.5 -82.5 -40.5s-36.167 -59.833 -43.5 -98.5v1z" />
    <glyph glyph-name="e" unicode="e" horiz-adv-x="628" 
d="M73 210c15.333 119.333 54.002 201.503 116.002 246.503s128.333 69.5 199 73.5c5.33301 0.666992 10.666 1 15.999 1h15c78 0 135.667 -14.833 173 -44.5s56 -75.834 56 -138.501c0 -18.667 -1.5 -38.834 -4.5 -60.501s-7.83301 -45.167 -14.5 -70.5l-371 1
c-0.666992 -6 -1.33398 -11.5 -2.00098 -16.5s-1 -10.167 -1 -15.5c0 -30.667 7.33301 -53.334 22 -68.001s32 -22 52 -22c4 0 8.16699 0.333008 12.5 1s8.5 1.66699 12.5 3c16 4 31.333 12.5 46 25.5s26.334 29.833 35.001 50.5l186 1c-16 -60.667 -54.5 -108 -115.5 -142
s-130.167 -51 -207.5 -51c-96.667 0 -158.334 22.5 -185.001 67.5s-40 97.5 -40 157.5v1zM290.002 331.003h178.001c0.666992 2.66699 1.16699 5.66699 1.5 9s0.5 6.66602 0.5 9.99902c0 2.66699 -0.166992 5.66699 -0.5 9s-0.5 6.33301 -0.5 9
c-2.66699 16.667 -9.33398 31.834 -20.001 45.501s-26 20.5 -46 20.5c-24.667 0 -47.667 -9.33301 -69 -28s-36 -44 -44 -76v1z" />
    <glyph glyph-name="f" unicode="f" horiz-adv-x="451" 
d="M113 0l81.001 387.001h-98l25 129h104c0.666992 4 1.16699 8.66699 1.5 14s1.16602 10.333 2.49902 15c7.33301 44 24.666 84.833 51.999 122.5s68 61.834 122 72.501c8 1.33301 18.833 2.5 32.5 3.5s27.834 1.5 42.501 1.5h12h12
c18 -0.666992 35.5 -1.83398 52.5 -3.50098s31.167 -4.5 42.5 -8.5l-25 -128c-9.33301 4 -19 7.66699 -29 11s-19.667 5 -29 5c-6.66699 0 -13.167 -0.833008 -19.5 -2.5s-12.5 -4.16699 -18.5 -7.5c-16 -7.33301 -28.333 -19.5 -37 -36.5s-15 -35.167 -19 -54.5
c0 -1.33301 -0.166992 -2.33301 -0.5 -3s-0.5 -1.33398 -0.5 -2.00098l122 1l-25 -129h-121l-81 -387h-201v0z" />
    <glyph glyph-name="g" unicode="g" horiz-adv-x="685" 
d="M89 210c0 92 30.501 168.502 91.501 229.502s129.833 91.5 206.5 91.5c32 0 60.167 -5.66699 84.5 -17s44.5 -35.333 60.5 -72l16 74h193l-96 -476c-16.667 -76.667 -55.5 -136.167 -116.5 -178.5s-137.833 -63.5 -230.5 -63.5c-82 0 -142.667 12.167 -182 36.5
s-59 57.5 -59 99.5c0 7.33301 0.5 15.166 1.5 23.499s3.16699 17.166 6.5 26.499h185c-0.666992 -2.66699 -1 -5.16699 -1 -7.5v-6.5c0 -19.333 7 -32.666 21 -39.999s31.667 -11 53 -11h3h3h2.5h2.5c37.333 -0.666992 64 13.166 80 41.499s27 59.5 33 93.5
c0.666992 6 1.5 11.833 2.5 17.5s1.83301 11.167 2.5 16.5c-20 -24.667 -45.833 -43 -77.5 -55s-67.834 -18 -108.501 -18c-56 0 -99.5 17.333 -130.5 52s-46.5 82 -46.5 142v1zM306.001 274.002c-2 -10 -3.5 -19.5 -4.5 -28.5s-1.5 -17.167 -1.5 -24.5
c0 -26 5.66699 -46.667 17 -62s29.333 -23 54 -23c28 0 52.167 9.83301 72.5 29.5s36.5 47.5 48.5 83.5c0.666992 1.33301 1.16699 2.83301 1.5 4.5s0.5 3.5 0.5 5.5c2 6.66699 3.66699 13.834 5 21.501l4 23.5c0.666992 4 1.16699 8.5 1.5 13.5s0.5 9.83301 0.5 14.5
c0 22 -4.83301 40.667 -14.5 56s-28.167 23 -55.5 23c-36 0 -64.5 -13.833 -85.5 -41.5s-35.5 -59.834 -43.5 -96.501v1z" />
    <glyph glyph-name="h" unicode="h" horiz-adv-x="685" 
d="M65 0l153 741.002h201l-57 -265c8 7.33301 16.167 14.166 24.5 20.499s16.833 12.166 25.5 17.499c25.333 14.667 49.833 23.834 73.5 27.501s44.5 5.5 62.5 5.5c50 0 86 -11.833 108 -35.5s35.333 -49.834 40 -78.501c0.666992 -4.66699 1.16699 -9.33398 1.5 -14.001
s0.5 -9.66699 0.5 -15c0 -7.33301 -0.5 -14.666 -1.5 -21.999s-2.16699 -14.333 -3.5 -21l-72 -361h-202l64 306c2.66699 8.66699 4.5 17.167 5.5 25.5s1.5 15.833 1.5 22.5c0 18 -4.16699 32 -12.5 42s-22.5 15 -42.5 15c-28 0 -50.333 -7.5 -67 -22.5s-29 -34.5 -37 -58.5
l-65 -330h-201v0z" />
    <glyph glyph-name="i" unicode="i" 
d="M65 0l112 532h202l-105 -532h-209v0zM194 612l31 129h202l-32 -129h-201v0z" />
    <glyph glyph-name="j" unicode="j" 
d="M-40 -185l24.002 119.999c4 -1.33301 7.66699 -2.33301 11 -3s6.66602 -1 9.99902 -1c24 0 41.5 13.333 52.5 40s19.833 56.334 26.5 89.001c0.666992 4.66699 1.5 9.33398 2.5 14.001s1.83301 9.33398 2.5 14.001l88 436h194l-88 -451
c-8 -48.667 -16.833 -89.5 -26.5 -122.5s-22.5 -59.5 -38.5 -79.5c-14.667 -18 -32.667 -31.833 -54 -41.5s-43.333 -16.167 -66 -19.5c-9.33301 -2 -18.833 -3.5 -28.5 -4.5s-18.834 -1.5 -27.501 -1.5c-17.333 -0.666992 -33 0.166016 -47 2.49902
s-25.333 5.16602 -34 8.49902h-1zM194.002 604.999l31 136h202l-32 -136h-201v0z" />
    <glyph glyph-name="k" unicode="k" horiz-adv-x="685" 
d="M56 0l162 741h201l-96 -435l218 218h217l-217 -218l136 -306h-242l-121 283l-56 -283h-202v0z" />
    <glyph glyph-name="l" unicode="l" 
d="M65 0l160 741h194l-153 -741h-201v0z" />
    <glyph glyph-name="m" unicode="m" horiz-adv-x="1024" 
d="M48 0c9.33301 32 18.333 65.832 27 101.499l25 106.5l34 167c10.667 54.667 19.667 104 27 148l201 1l-15 -72c0.666992 0 1.33398 0.166992 2.00098 0.5s1 0.833008 1 1.5c24 19.333 49.833 37 77.5 53s65.5 24 113.5 24c36 0 66.167 -6.33301 90.5 -19
s42.166 -33 53.499 -61c5.33301 3.33301 12.333 9 21 17s19.334 16.667 32.001 26c17.333 11.333 38.833 21.833 64.5 31.5s56.5 14.5 92.5 14.5c52.667 0 91.167 -14.5 115.5 -43.5s36.5 -65.167 36.5 -108.5c0 -8.66699 -0.666992 -18 -2 -28s-3 -20 -5 -30l-64 -330h-202
l56 290c2 9.33301 3.66699 18.5 5 27.5s2 17.167 2 24.5c0 22.667 -4.66699 39.834 -14 51.501s-23 17.5 -41 17.5c-42 0 -68.833 -14 -80.5 -42s-20.167 -59.667 -25.5 -95c-0.666992 -2.66699 -1.16699 -5 -1.5 -7s-0.5 -4 -0.5 -6l-2 -10l-2 -10l-49 -241h-209l64 306
c2 8 3.33301 15.833 4 23.5s1 14.5 1 20.5c0.666992 20.667 -4 36 -14 46s-26 15 -48 15c-32 0 -55.333 -14.5 -70 -43.5s-26.334 -65.833 -35.001 -110.5l-56 -257h-210v0z" />
    <glyph glyph-name="n" unicode="n" horiz-adv-x="685" 
d="M65 0l12.5 58.5029l13.5 58.5l47 209.5c14.667 67.667 25 133.167 31 196.5l202 1l-9 -56c28 19.333 57.167 36.166 87.5 50.499s63.166 21.5 98.499 21.5c48.667 -4.66699 84 -17.334 106 -38.001s36.333 -42.667 43 -66c2.66699 -8.66699 4.66699 -17.167 6 -25.5
s2 -16.166 2 -23.499c0 -6.66699 -0.333008 -12.834 -1 -18.501s-1.66699 -10.834 -3 -15.501l-80 -353h-202l64 298c2.66699 10 4.5 19.5 5.5 28.5s1.5 16.833 1.5 23.5c0 18 -4.16699 31.167 -12.5 39.5s-22.5 12.5 -42.5 12.5c-30.667 0 -53.167 -9.83301 -67.5 -29.5
s-25.166 -41.5 -32.499 -65.5l-6 -19.5c-2 -6.33301 -3.66699 -12.833 -5 -19.5c0 -0.666992 -0.166992 -1.16699 -0.5 -1.5s-0.5 -0.833008 -0.5 -1.5l-57 -265h-201v0z" />
    <glyph glyph-name="o" unicode="o" horiz-adv-x="685" 
d="M89 194c3.33301 106 37.6689 187.333 103.002 244s137 89.667 215 99c7.33301 1.33301 14.666 2.16602 21.999 2.49902s15 0.5 23 0.5c94.667 -4 160 -26 196 -66s54 -86.333 54 -139v-11c0 -4 -0.333008 -7.66699 -1 -11c0 -18.667 -2.33301 -40.167 -7 -64.5
s-13 -49.166 -25 -74.499c-22 -48 -58.333 -91.667 -109 -131s-121.667 -59 -213 -59c-96.667 0 -163.834 19.667 -201.501 59s-56.5 89.333 -56.5 150v1zM290.003 194c0 -24.667 4.00098 -46 12.001 -64s28 -27 60 -27h5h4c30.667 -0.666992 56.167 13 76.5 41
s35.166 59 44.499 93c2 7.33301 3.66699 14.666 5 21.999s2.33301 15 3 23c0.666992 5.33301 1.16699 10.333 1.5 15s0.5 9.33398 0.5 14.001c0 2 0.166992 4.33301 0.5 7s0.5 5 0.5 7c0 28 -5.33301 50.5 -16 67.5s-30.667 25.5 -60 25.5
c-28.667 0 -53.167 -13.667 -73.5 -41s-35.833 -57.333 -46.5 -90c-6 -18 -10.333 -35.167 -13 -51.5s-4 -30.5 -4 -42.5v1z" />
    <glyph glyph-name="p" unicode="p" horiz-adv-x="685" 
d="M8 -202l152.999 718h201l-15 -73l15 17.5c6 7 12.667 13.833 20 20.5c16.667 15.333 37.667 29 63 41s57.333 18 96 18c56.667 0 99 -19.5 127 -58.5s42 -86.833 42 -143.5v-10v-10c-4 -86 -33.167 -164.667 -87.5 -236s-130.166 -107 -227.499 -107
c-31.333 0 -57.333 8.16699 -78 24.5s-37 33.833 -49 52.5l-1.5 1.5c-0.333008 0.333008 -0.5 0.833008 -0.5 1.5l-56 -257h-202v0zM297.999 218c-0.666992 -5.33301 -1.16699 -10.499 -1.5 -15.499s-0.5 -9.83301 -0.5 -14.5c0 -24 4.83301 -43.167 14.5 -57.5
s24.167 -23.5 43.5 -27.5c1.33301 0 2.5 -0.166992 3.5 -0.5s2.16699 -0.5 3.5 -0.5h3.5h3.5c32 0 57.833 13.5 77.5 40.5s35.167 65.167 46.5 114.5c3.33301 12 5.5 23.667 6.5 35s1.5 21.666 1.5 30.999c0 30 -5.5 52.167 -16.5 66.5s-24.5 21.5 -40.5 21.5
c-40 0 -71.167 -18.167 -93.5 -54.5s-39.5 -82.833 -51.5 -139.5v1z" />
    <glyph glyph-name="q" unicode="q" horiz-adv-x="685" 
d="M89 194c0.666992 14.667 2 29.6689 4 45.002s4.66699 31.333 8 48c14.667 61.333 43.5 118 86.5 170s109.5 79.667 199.5 83c27.333 0 51.333 -7.33301 72 -22s38 -30.667 52 -48c2.66699 -3.33301 5 -6.5 7 -9.5s4 -6.16699 6 -9.5l17 65h193l-153 -718h-194l56 275
c-13.333 -16.667 -26 -30.334 -38 -41.001s-23.667 -19.334 -35 -26.001c-16 -8 -32.167 -13.667 -48.5 -17s-34.833 -5 -55.5 -5c-62 0 -104.833 14.167 -128.5 42.5s-38.167 59.5 -43.5 93.5c-2 12 -3.33301 24.333 -4 37s-1 24.667 -1 36v1zM298 250.002
c-1.33301 -5.33301 -2.49902 -10.832 -3.49902 -16.499s-1.83301 -10.834 -2.5 -15.501c-0.666992 -5.33301 -1.16699 -10.5 -1.5 -15.5s-0.5 -10.5 -0.5 -16.5c0 -22.667 4.5 -42.167 13.5 -58.5s25.833 -24.5 50.5 -24.5c28.667 0 53.5 9.33301 74.5 28
s39.167 58 54.5 118c3.33301 9.33301 6 20.333 8 33s3 25.667 3 39c0 24.667 -5.16699 47 -15.5 67s-30.166 30 -59.499 30c-26.667 0 -48.334 -10.5 -65.001 -31.5s-29.667 -44.167 -39 -69.5c-4.66699 -12 -8.33398 -24 -11.001 -36s-4.66699 -22.667 -6 -32v1z" />
    <glyph glyph-name="r" unicode="r" horiz-adv-x="451" 
d="M65 0l12.498 56.501l13.5 58.5c0.666992 3.33301 1.5 6.83301 2.5 10.5s1.83301 7.16699 2.5 10.5c16 67.333 30.833 133.833 44.5 199.5s23.167 125.5 28.5 179.5l202 1l-17 -81c22.667 25.333 49.834 47.666 81.501 66.999s65.834 29.333 102.501 30h9.5
c3 0 5.83301 -0.333008 8.5 -1l-32 -169c-2 -0.666992 -3.83301 -1 -5.5 -1s-3.16699 0.333008 -4.5 1h-5.5h-5.5c-64 0 -109.5 -14.667 -136.5 -44s-44.5 -63 -52.5 -101l-48 -217h-201v0z" />
    <glyph glyph-name="s" unicode="s" horiz-adv-x="572" 
d="M121 339c0 10 1.50195 21.833 4.50195 35.5s8.16699 27.834 15.5 42.501c15.333 28.667 42.166 54.834 80.499 78.501s93.5 35.5 165.5 35.5h10.5h11.5c51.333 -0.666992 98 -9.66699 140 -27s63 -62 63 -134v-8v-9l-193 1c0.666992 2.66699 1.16699 5.66699 1.5 9
s0.5 6.33301 0.5 9c0 15.333 -4.66699 26.833 -14 34.5s-24.333 11.5 -45 11.5c-11.333 0 -21 -3.66699 -29 -11s-14.333 -17 -19 -29c0 -0.666992 -0.166992 -1.33398 -0.5 -2.00098s-0.5 -1.33398 -0.5 -2.00098v-2v-2c0 -14.667 9.5 -25.334 28.5 -32.001
s39.5 -12 61.5 -16l20.5 -4l20.5 -4c8 -1.33301 15.5 -2.66602 22.5 -3.99902s12.5 -3 16.5 -5c36 -11.333 61.333 -26 76 -44s22 -40.667 22 -68c0 -72.667 -27.167 -126.167 -81.5 -160.5s-114.5 -53.166 -180.5 -56.499c-3.33301 -0.666992 -6.83301 -1 -10.5 -1h-10.5
c-98.667 2.66699 -161.334 17.5 -188.001 44.5s-40.334 58.167 -41.001 93.5c0 9.33301 0.5 18.666 1.5 27.999s1.83301 18.333 2.5 27l193 1c-1.33301 -4.66699 -2.33301 -9 -3 -13s-1 -8 -1 -12c-0.666992 -15.333 4 -27 14 -35s21 -12.667 33 -14h2.5h2.5
c20 0 35.833 4.16699 47.5 12.5s17.5 20.5 17.5 36.5c0 11.333 -3.5 20.333 -10.5 27s-16.833 12.667 -29.5 18c-4.66699 1.33301 -9.83398 3.16602 -15.501 5.49902s-11.5 4.5 -17.5 6.5c-2 0.666992 -4 1.16699 -6 1.5s-4 0.833008 -6 1.5
c-7.33301 1.33301 -15.166 3.16602 -23.499 5.49902s-16.166 4.83301 -23.499 7.5l-27.5 8c-9 2.66699 -17.5 5 -25.5 7c-20 6.66699 -35.833 17.834 -47.5 33.501s-19.5 31.834 -23.5 48.501c-0.666992 4 -1.16699 8 -1.5 12s-0.5 8 -0.5 12v1z" />
    <glyph glyph-name="t" unicode="t" horiz-adv-x="451" 
d="M137 145l56.999 233.997h-105l32 137h97l15 73l219 73l-33 -146h113l-24 -137h-121l-40 -210l-2 -15.5c-0.666992 -5 -1 -9.16699 -1 -12.5c0 -14.667 3 -24.167 9 -28.5s14.333 -6.5 25 -6.5c4.66699 0 9.83398 0.333008 15.501 1s11.834 1.33398 18.501 2.00098
c4.66699 0.666992 9.66699 1.33398 15 2.00098s10.666 1 15.999 1l-24 -120l-10.5 -2.5l-14.5 -3.5c-12.667 -2.66699 -27.834 -5.16699 -45.501 -7.5s-36.167 -3.5 -55.5 -3.5h-6.5h-6.5c-38 1.33301 -72.833 9.83301 -104.5 25.5s-47.5 44.5 -47.5 86.5
c0 8 0.833008 16.833 2.5 26.5s3.83398 19.834 6.50098 30.501v1z" />
    <glyph glyph-name="u" unicode="u" horiz-adv-x="685" 
d="M113 225l64.002 291.003h194l-57 -291c-2 -9.33301 -3.5 -17.833 -4.5 -25.5s-1.5 -14.834 -1.5 -21.501c0 -23.333 5.16699 -40.333 15.5 -51s22.5 -16 36.5 -16c4 0 8.33301 0.333008 13 1s9 2 13 4c17.333 6 33.166 17.167 47.499 33.5s23.166 36.166 26.499 59.499
l64 307h202l-105 -516h-202l8 56c-14.667 -15.333 -31 -28 -49 -38s-36.333 -17.667 -55 -23c-12 -3.33301 -24.333 -6 -37 -8s-24.667 -3 -36 -3c-50 6 -87.667 20 -113 42s-38 56 -38 102c0 13.333 1 28.166 3 44.499s5.66699 33.5 11 51.5v1z" />
    <glyph glyph-name="v" unicode="v" horiz-adv-x="628" 
d="M202 0l-89 516h218l23 -355l178 355h194l-307 -516h-217v0z" />
    <glyph glyph-name="w" unicode="w" horiz-adv-x="967" 
d="M161 0l-40 516h202v-355l169 355h218l8 -355l169 355h177l-273 -516h-219l-16 347l-177 -347h-218v0z" />
    <glyph glyph-name="x" unicode="x" horiz-adv-x="628" 
d="M242 274l-105 242h234l32 -145l105 145h210l-226 -242l120 -274h-233l-40 185l-129 -185h-210l242 274v0z" />
    <glyph glyph-name="y" unicode="y" horiz-adv-x="628" 
d="M225 -16l-112 532h218l23 -362l194 362h193l-443 -718h-194l121 186v0z" />
    <glyph glyph-name="z" unicode="z" horiz-adv-x="572" 
d="M40 0l25 121l322 266h-250l24 129h468l-24 -121l-322 -266h273l-24 -129h-492v0z" />
    <glyph glyph-name="braceleft" unicode="{" 
d="M73 371c3.33301 -1.33301 6.66504 -2.00195 9.99805 -2.00195h9c39.333 0 65.166 10.167 77.499 30.5s20.5 45.5 24.5 75.5l31 146c10 37.333 27.5 64.666 52.5 81.999s51.833 28.666 80.5 33.999c10.667 2.66699 21.834 4.33398 33.501 5.00098s22.5 1 32.5 1
c7.33301 0 14.5 -0.166992 21.5 -0.5s13.5 -0.5 19.5 -0.5c5.33301 -0.666992 10.333 -1.16699 15 -1.5s8.66699 -0.5 12 -0.5l-16 -95c-2 -0.666992 -4.16699 -1 -6.5 -1h-6.5c-21.333 0.666992 -40.166 -1.66602 -56.499 -6.99902s-28.166 -24.333 -35.499 -57l-24 -137
c-4 -40.667 -17.5 -69.667 -40.5 -87s-52.5 -26 -88.5 -26c2.66699 -1.33301 5.33398 -2.5 8.00098 -3.5s5.33398 -2.16699 8.00098 -3.5c3.33301 -0.666992 6.66602 -1.66699 9.99902 -3s6.33301 -2.66602 9 -3.99902c12 -4.66699 23.333 -11.334 34 -20.001s16 -23 16 -43
c0 -4.66699 -0.5 -10 -1.5 -16l-3.5 -20l-32 -144c-2 -8.66699 -3.66699 -16.5 -5 -23.5s-2 -13.167 -2 -18.5c0 -19.333 6 -30.666 18 -33.999s25.333 -5 40 -5h2.5h2.5h4.5h4.5l-17 -96h-9h-10h-35c-12.667 0 -25.667 0.666992 -39 2
c-30.667 2.66699 -58.834 11.167 -84.501 25.5s-38.5 40.5 -38.5 78.5c0 6.66699 0.5 13.834 1.5 21.501s2.5 15.5 4.5 23.5l33 147c1.33301 4.66699 2.5 9.5 3.5 14.5s1.5 9.83301 1.5 14.5c0 20.667 -7.33301 34 -22 40s-30.667 9.33301 -48 10h-12h-12l25 98v0z" />
    <glyph glyph-name="bar" unicode="|" horiz-adv-x="282" 
d="M73 0l160 750h138l-161 -750h-137v0z" />
    <glyph glyph-name="braceright" unicode="}" 
d="M250 314c-31.333 8 -52.1631 18.3281 -62.4961 30.9951s-15.5 27.334 -15.5 44.001c0 4.66699 0.333008 10 1 16s1.33398 11.667 2.00098 17c0.666992 2 1.16699 4 1.5 6s0.5 4 0.5 6l33 147c2 6.66699 3.5 12.834 4.5 18.501s1.5 10.834 1.5 15.501
c0 19.333 -6.83301 30.333 -20.5 33s-29.5 4 -47.5 4h-5h-6l24 98h113c33.333 -4 58.5 -16.333 75.5 -37s25.5 -45.334 25.5 -74.001c0 -5.33301 -0.333008 -11 -1 -17s-1.66699 -12 -3 -18l-32 -144c-2 -7.33301 -3.5 -14.166 -4.5 -20.499s-1.5 -12.166 -1.5 -17.499
c0 -18.667 6.5 -32 19.5 -40s35.167 -12 66.5 -12l-16 -104c-2.66699 0 -5.33398 0.166992 -8.00098 0.5s-5.33398 0.5 -8.00098 0.5c-1.33301 0 -2.83301 0.166992 -4.5 0.5s-3.16699 0.5 -4.5 0.5c-3.33301 0 -6.83301 -0.166992 -10.5 -0.5
s-7.16699 -0.833008 -10.5 -1.5c-16.667 -2.66699 -32 -9.66699 -46 -21s-23.333 -28.666 -28 -51.999l-25 -137c-4 -38 -21 -72.833 -51 -104.5s-67.333 -47.834 -112 -48.501h-3.5h-3.5c-1.33301 0.666992 -2.5 1 -3.5 1h-3.5h-97l16 96
c3.33301 0 6.66602 -0.166992 9.99902 -0.5s6.66602 -0.833008 9.99902 -1.5c3.33301 0 6.83301 -0.166992 10.5 -0.5s7.16699 -0.5 10.5 -0.5c13.333 0 26 4.33301 38 13s20.333 29.334 25 62.001l25 130c0.666992 2 1.16699 4.5 1.5 7.5s1.16602 5.83301 2.49902 8.5
c6.66699 24 19.5 46 38.5 66s41.5 30 67.5 30h3h3c0.666992 -0.666992 1.5 -1 2.5 -1h2.5v1z" />
    <glyph glyph-name="asciitilde" unicode="~" horiz-adv-x="676" 
d="M129 225c6 6 13.3311 14.332 21.998 24.999l28 34c15.333 17.333 33 33.166 53 47.499s42 21.5 66 21.5c19.333 0 38.166 -3.66699 56.499 -11s36.5 -16 54.5 -26l50 -24c16 -7.33301 31.667 -11 47 -11h3c0.666992 0 1.33398 0.333008 2.00098 1h3h2
c10 2 18.833 4.83301 26.5 8.5s14.834 8.83398 21.501 15.501s13.834 14.5 21.501 23.5l26.5 31.5l50 -78c-20.667 -32.667 -46.167 -61.334 -76.5 -86.001s-61.5 -37 -93.5 -37c-21.333 0 -40.833 3.33301 -58.5 10s-34.5 14.334 -50.5 23.001l-31.5 15.5
c-10.333 5 -20.5 8.83301 -30.5 11.5c-4 1.33301 -8.5 2.5 -13.5 3.5s-9.83301 1.5 -14.5 1.5h-2.5h-2.5c-0.666992 -0.666992 -1.5 -1 -2.5 -1h-2.5c-4 0 -8 -0.5 -12 -1.5s-8 -2.5 -12 -4.5c-8.66699 -4 -17.5 -10 -26.5 -18s-17.167 -16 -24.5 -24
c-6.66699 -7.33301 -12.667 -14.666 -18 -21.999l-13 -18l-48 89v0z" />
    <glyph glyph-name="glyph98" unicode="&#xa1;" horiz-adv-x="451" 
d="M73 -194l145 525h153l-65 -525h-233v0zM218 387l32 161h185l-32 -161h-185v0z" />
    <glyph glyph-name="cent" unicode="&#xa2;" horiz-adv-x="685" 
d="M104 202c4 88 33.335 163.837 88.002 227.504s138.334 97.5 251.001 101.5l65 131h154l-73 -146c26.667 -14.667 50.167 -33.167 70.5 -55.5s30.833 -50.833 31.5 -85.5c0 -6.66699 -0.5 -13.834 -1.5 -21.501s-2.5 -15.5 -4.5 -23.5l-202 1
c0.666992 2.66699 1 5.16699 1 7.5v7.5c0.666992 17.333 -2.83301 29.166 -10.5 35.499s-15.834 10.166 -24.501 11.499c-2 0.666992 -4.33301 1 -7 1h-7c-24 0 -45.667 -8 -65 -24s-35 -48.333 -47 -97c-2.66699 -16 -5.33398 -31 -8.00098 -45s-4 -27.333 -4 -40
c0 -19.333 3.83301 -34.833 11.5 -46.5s20.834 -18.834 39.501 -21.501c24.667 0 44.5 7.66699 59.5 23s24.5 32 28.5 50c0.666992 2.66699 1.16699 5.33398 1.5 8.00098s0.5 5.33398 0.5 8.00098l210 1c-1.33301 -10 -3.83301 -20.167 -7.5 -30.5
s-7.83398 -20.833 -12.501 -31.5c-20 -41.333 -54 -79 -102 -113s-112.333 -51 -193 -51l-73 -145h-153l89 177c-34.667 12.667 -59.834 33.5 -75.501 62.5s-25.167 59.167 -28.5 90.5c-0.666992 5.33301 -1.16699 10.666 -1.5 15.999s-0.5 10.666 -0.5 15.999v1z" />
    <glyph glyph-name="sterling" unicode="&#xa3;" horiz-adv-x="685" 
d="M73 290l31.002 144.998h98c20 92 54.5 162 103.5 210s129.833 72 242.5 72c61.333 0 114.666 -11 159.999 -33s68 -63.667 68 -125c0.666992 -10.667 0 -22.5 -2 -35.5s-4.66699 -26.833 -8 -41.5l-202 1c1.33301 6.66699 2.16602 13.5 2.49902 20.5s0.5 13.167 0.5 18.5
c0 22.667 -4.16699 39.334 -12.5 50.001s-23.833 16 -46.5 16c-20 0 -39 -10.167 -57 -30.5s-32 -42.166 -42 -65.499c-4 -10 -7.33301 -20.167 -10 -30.5s-4 -19.5 -4 -27.5l153 1l-32 -145h-145l-32 -153h314l-24 -137h-597l24 137h81l32 153h-96v0z" />
    <glyph glyph-name="Idieresis" unicode="&#xa4;" horiz-adv-x="676" 
d="M161 194c-4 12 -6.83789 24.1641 -8.50488 36.4971s-2.5 24.5 -2.5 36.5c0 38.667 7.33301 74.334 22 107.001s32.334 58.334 53.001 77.001l-40 49l98 81l40 -40c15.333 7.33301 30.833 13.5 46.5 18.5s31.834 8.83301 48.501 11.5c8 1.33301 16.167 2.33301 24.5 3
s16.5 1 24.5 1c24.667 0 47.5 -2.83301 68.5 -8.5s38.833 -14.5 53.5 -26.5l64 49l65 -89l-56 -48c5.33301 -14.667 9.33301 -28.834 12 -42.501s4 -27.167 4 -40.5c0 -35.333 -7 -69.166 -21 -101.499s-31.333 -60.166 -52 -83.499l40 -39l-104 -89l-41 48
c-15.333 -10.667 -32.333 -19 -51 -25s-38 -10 -58 -12c-5.33301 -0.666992 -10.666 -1.16699 -15.999 -1.5s-11 -0.5 -17 -0.5c-27.333 0 -52.166 3.16699 -74.499 9.5s-39.166 15.833 -50.499 28.5l-56 -47l-73 89l57 49v0zM531.995 338.997
c0 0.666992 0.331055 1.5 0.998047 2.5s1 2.16699 1 3.5v3.5v3.5v6.5c0 2.33301 -0.666992 5.16602 -2 8.49902c-2.66699 17.333 -11.167 32.833 -25.5 46.5s-35.5 20.5 -63.5 20.5c-41.333 0 -74.833 -12.167 -100.5 -36.5s-41.5 -51.166 -47.5 -80.499
c-1.33301 -4 -2.16602 -8.16699 -2.49902 -12.5s-0.5 -8.5 -0.5 -12.5c-0.666992 -24 6.83301 -45.167 22.5 -63.5s39.834 -27.5 72.501 -27.5c36 0 69.167 13.833 99.5 41.5s45.5 59.5 45.5 95.5v1z" />
    <glyph glyph-name="ae" unicode="&#xa5;" horiz-adv-x="685" 
d="M113 314l24 138h88l-80 266h209l65 -283l186 283h217l-201 -266h97l-25 -138h-161l-32 -48h177l-24 -137h-193l-25 -129h-202l25 129h-185l23 137h187l-17 48h-153v0z" />
    <glyph glyph-name="brokenbar" unicode="&#xa6;" 
 />
    <glyph glyph-name="section" unicode="&#xa7;" horiz-adv-x="685" 
d="M306 508c-0.666992 -0.666992 -1.16113 -0.833984 -1.49414 -0.500977s-0.833008 0.5 -1.5 0.5c-15.333 4.66699 -29.333 14.5 -42 29.5s-19 34.5 -19 58.5c0 49.333 20 87.166 60 113.499s84.333 43.166 133 50.499c10.667 2 21.5 3.33301 32.5 4s21.833 1 32.5 1
c12 0 24.833 -0.833008 38.5 -2.5l43.5 -5.5l16.5 -2l17.5 -2c8.66699 -1.33301 17.5 -2.33301 26.5 -3s18.167 -1 27.5 -1l-25 -128l-29.5 6.5c-10.333 2.33301 -20.5 4.5 -30.5 6.5c-11.333 2 -22.666 3.5 -33.999 4.5s-22.333 1.5 -33 1.5c-20 0 -37 -2.16699 -51 -6.5
s-22 -11.833 -24 -22.5v-1.5v-1.5c0 -11.333 5.83301 -20.5 17.5 -27.5s26.834 -13.5 45.501 -19.5c8 -2.66699 16.667 -5.33398 26 -8.00098s18.666 -5.66699 27.999 -9c29.333 -10.667 56.166 -25.667 80.499 -45s36.5 -48.666 36.5 -87.999
c0 -26 -8.66699 -50.667 -26 -74s-36.333 -43 -57 -59c-8 -6 -16 -11.5 -24 -16.5s-15.333 -9.16699 -22 -12.5c7.33301 -4.66699 14.166 -9.5 20.499 -14.5s11.5 -9.83301 15.5 -14.5c8.66699 -10 14.334 -20.333 17.001 -31s4 -22.667 4 -36
c0 -45.333 -22.667 -85.166 -68 -119.499s-108.333 -51.5 -189 -51.5c-6.66699 0 -13.5 0.166992 -20.5 0.5s-14.167 0.833008 -21.5 1.5c-10.667 0 -24.834 0.5 -42.501 1.5s-35.834 2.5 -54.501 4.5c-16.667 1.33301 -32.834 2.83301 -48.501 4.5s-28.834 3.5 -39.501 5.5
l24 121c5.33301 -2 11.166 -3.83301 17.499 -5.5l20.5 -5.5c15.333 -3.33301 33.666 -6.66602 54.999 -9.99902s46.666 -5 75.999 -5c30 0 53.333 6 70 18s22.334 25.667 17.001 41c-2.66699 6.66699 -8.33398 13.334 -17.001 20.001s-21 13 -37 19
c-9.33301 3.33301 -21.666 7 -36.999 11s-31.333 9 -48 15c-25.333 9.33301 -48.5 22.833 -69.5 40.5s-31.5 41.167 -31.5 70.5c0 32 12.167 62.5 36.5 91.5s60.5 57.5 108.5 85.5v1zM435.006 290c10.667 7.33301 20.5 16.8311 29.5 28.498s15.5 23.167 19.5 34.5
c2.66699 5.33301 4.66699 10.833 6 16.5s2 11.167 2 16.5v2v2c-1.33301 10.667 -7.5 21.334 -18.5 32.001s-22.833 19.667 -35.5 27c-4.66699 2 -9.16699 3.83301 -13.5 5.5s-8.5 3.16699 -12.5 4.5c-16.667 -8 -31.667 -19.833 -45 -35.5s-20 -33.5 -20 -53.5
c0 -11.333 5.66699 -23.666 17 -36.999s35 -28 71 -44v1z" />
    <glyph glyph-name="dieresis" unicode="&#xa8;" 
d="M73 589l31 161h179l-33 -161h-177v0zM339 589l32 161h177l-32 -161h-177v0z" />
    <glyph glyph-name="copyright" unicode="&#xa9;" horiz-adv-x="822" 
d="M89 298c9.33301 126.667 52.667 228.168 130 304.501s161.333 125.833 252 148.5c18.667 4.66699 37.167 8.16699 55.5 10.5s36.5 3.5 54.5 3.5c6 0 11.833 -0.166992 17.5 -0.5s11.5 -0.833008 17.5 -1.5c68 -8.66699 130.333 -39.667 187 -93s85 -122.666 85 -207.999
v-14c0 -4.66699 -0.333008 -9.33398 -1 -14.001c-6 -115.333 -43.5 -209 -112.5 -281s-144.167 -121.333 -225.5 -148c-24 -6.66699 -47.5 -11.834 -70.5 -15.501s-45.167 -5.5 -66.5 -5.5c-105.333 0 -185.5 31 -240.5 93s-82.5 135.333 -82.5 220v1zM202.001 339.001
c-0.666992 -4.66699 -0.999023 -9.16797 -0.999023 -13.501v-12.5c0 -56 16 -106.667 48 -152s91.333 -69.666 178 -72.999c19.333 0 40.166 2.16699 62.499 6.5s45.166 11.5 68.499 21.5c54.667 22 105 59.167 151 111.5s70.333 123.833 73 214.5
c0 56.667 -20.833 105.834 -62.5 147.501s-98.834 62.5 -171.501 62.5c-75.333 0 -138 -19.333 -188 -58s-88 -81.334 -114 -128.001c-13.333 -23.333 -23.666 -46 -30.999 -68s-11.666 -42 -12.999 -60v1zM283.002 323c7.33301 88 35.5029 155.506 84.5029 202.506
s111.833 70.5 188.5 70.5c43.333 0 75.5 -7.83301 96.5 -23.5s35.5 -32.834 43.5 -51.501c6.66699 -15.333 10.667 -29.5 12 -42.5s2 -22.167 2 -27.5l-98 1c0 23.333 -5.5 39.166 -16.5 47.499s-23.167 13.166 -36.5 14.499c-4.66699 0.666992 -9.16699 1 -13.5 1h-13.5
c-34 0 -62 -13.333 -84 -40s-37.333 -55.667 -46 -87c-2 -6 -3.5 -12 -4.5 -18s-1.83301 -11.667 -2.5 -17c-0.666992 -2.66699 -1 -5.5 -1 -8.5v-9.5c0 -30.667 8 -55.5 24 -74.5s35.333 -28.5 58 -28.5c23.333 0 42.166 4.16699 56.499 12.5s25.166 17.166 32.499 26.499
c5.33301 6.66699 9.33301 13.167 12 19.5s4 11.166 4 14.499l96 1c-12 -43.333 -32.667 -76.5 -62 -99.5s-60.333 -38.5 -93 -46.5c-10.667 -2 -21.334 -3.66699 -32.001 -5s-20.667 -2 -30 -2c-52.667 0 -91.834 11.333 -117.501 34s-42.5 47.667 -50.5 75
c-3.33301 10 -5.66602 20.167 -6.99902 30.5s-2 20.166 -2 29.499v1z" />
    <glyph glyph-name="ellipsis" unicode="&#xaa;" horiz-adv-x="378" 
d="M65 314l16 89h387l-16 -89h-387v0zM121 508c0 34.667 13.835 62.002 41.502 82.002s58.167 34.333 91.5 43c17.333 4 34.166 7 50.499 9s30.5 3 42.5 3h13.5c4.33301 0 7.83301 -0.333008 10.5 -1v4c0 1.33301 0.333008 2.66602 1 3.99902v3v4
c0 4.66699 -1.33301 8.66699 -4 12s-9.66699 5 -21 5c-2.66699 0 -5.5 -0.166992 -8.5 -0.5s-6.16699 -0.833008 -9.5 -1.5c-6 -2 -12 -4.83301 -18 -8.5s-10.333 -8.16699 -13 -13.5l-121 1c2.66699 23.333 14.667 42.166 36 56.499s44.333 25.166 69 32.499
c18 5.33301 34.833 9.16602 50.5 11.499s28.5 3.5 38.5 3.5c36 0 68.167 -6.66699 96.5 -20s42.5 -34.666 42.5 -63.999v-5.5v-4.5c0 -1.33301 -0.166992 -3 -0.5 -5s-0.833008 -4 -1.5 -6c-8 -36 -15.667 -72.333 -23 -109s-13 -73 -17 -109l-145 1l8 25
c-10.667 -9.33301 -22.5 -16.666 -35.5 -21.999s-25.833 -9.33301 -38.5 -12c-4.66699 -0.666992 -9.33398 -1.16699 -14.001 -1.5s-9.66699 -0.5 -15 -0.5c-28.667 0 -53.667 6.83301 -75 20.5s-32 32.167 -32 55.5v2v2v1v2v1zM347.002 572.002
c-20.667 -0.666992 -38.333 -3 -53 -7s-24 -10 -28 -18c-2 -3.33301 -3.5 -6.83301 -4.5 -10.5s-1.5 -7.16699 -1.5 -10.5c0 -8 3.16699 -14 9.5 -18s13.5 -6.33301 21.5 -7c2 0 4.16699 0.166992 6.5 0.5s4.83301 0.833008 7.5 1.5c10 2.66699 19.5 9 28.5 19
s13.5 23.667 13.5 41v2v2v2v2v1z" />
    <glyph glyph-name="ydieresis" unicode="&#xab;" horiz-adv-x="685" 
d="M113 283l177 200h162l-169 -200l79 -210h-160l-89 210v0zM387 283l177 200h162l-170 -200l81 -210h-161l-89 210v0z" />
    <glyph glyph-name="emdash" unicode="&#xac;" 
 />
    <glyph glyph-name="uni00AD" unicode="&#xad;" horiz-adv-x="512" 
 />
    <glyph glyph-name="registered" unicode="&#xae;" horiz-adv-x="822" 
d="M89 298c0.666992 11.333 2.00293 23.167 4.00293 35.5s4.66699 24.833 8 37.5c24 94.667 76.833 181.334 158.5 260.001s183.167 118 304.5 118c105.333 0 185.5 -29 240.5 -87s82.5 -131.333 82.5 -220c0 -114.667 -37.333 -211.834 -112 -291.501
s-157.334 -132.167 -248.001 -157.5c-19.333 -6 -38.333 -10.5 -57 -13.5s-37 -4.5 -55 -4.5h-5h-7c-106.667 4 -184.334 36.333 -233.001 97s-75.334 127 -80.001 199c-0.666992 4 -1 8.33301 -1 13v13v1zM202.003 306.001
c-0.666992 -3.33301 -1.00195 -6.8291 -1.00195 -10.4961v-11.5c0 -10.667 0.833008 -22.334 2.5 -35.001s4.83398 -25.334 9.50098 -38.001c11.333 -30.667 33.333 -58.834 66 -84.501s82 -38.5 148 -38.5c85.333 0 155 21.833 209 65.5s93 91.834 117 144.501
c9.33301 22 16.5 43.5 21.5 64.5s7.5 40.5 7.5 58.5v7v6c-4 72 -26.833 124 -68.5 156s-87.167 49.667 -136.5 53c-3.33301 0.666992 -6.83301 1 -10.5 1h-10.5c-92.667 0 -165 -22.833 -217 -68.5s-88.667 -95.834 -110 -150.501c-8 -20.667 -14.167 -41.334 -18.5 -62.001
s-7.16602 -40 -8.49902 -58v1zM283.001 161.005l87.999 411c20.667 -0.666992 48.334 -1 83.001 -1h118c60.667 0 100.167 -8 118.5 -24s27.5 -40 27.5 -72c0 -40 -12.167 -74.167 -36.5 -102.5s-60.833 -42.5 -109.5 -42.5l65 -169h-113l-56 170h-49l-32 -170h-104v0z
M435 403.005l106 0.000976562c20 -0.666992 36.167 4.16602 48.5 14.499s19.5 21.833 21.5 34.5c0.666992 0.666992 1 1.66699 1 3v4c0 10 -4.33301 19.167 -13 27.5s-23 12.5 -43 12.5l-104 1l-17 -97v0z" />
    <glyph glyph-name="glyph263" unicode="&#xaf;" 
 />
    <glyph glyph-name="glyph264" unicode="&#xb0;" 
 />
    <glyph glyph-name="mu" unicode="&#xb1;" horiz-adv-x="676" 
 />
    <glyph glyph-name="uni00B2" unicode="&#xb2;" 
 />
    <glyph glyph-name="uni00B3" unicode="&#xb3;" 
 />
    <glyph glyph-name="acute" unicode="&#xb4;" 
d="M210 589l137 152h234l-234 -152h-137v0z" />
    <glyph glyph-name="oslash" unicode="&#xb5;" horiz-adv-x="685" 
 />
    <glyph glyph-name="paragraph" unicode="&#xb6;" horiz-adv-x="870" 
d="M218 -177l121 564.001c-44.667 3.33301 -84.167 12.166 -118.5 26.499s-51.5 53.5 -51.5 117.5c0 60.667 25.333 113.5 76 158.5s114 67.5 190 67.5l460 1l-40 -186h-49l-161 -749h-177l161 749h-81l-153 -749h-177v0z" />
    <glyph glyph-name="glyph265" unicode="&#xb7;" 
 />
    <glyph glyph-name="glyph121" unicode="&#xb8;" 
d="M16 -89l97.001 105h81l-65 -64c5.33301 0.666992 11.333 1.33398 18 2.00098l20 2h10c3.33301 0 6.66602 -0.333008 9.99902 -1c20 -2 38.167 -8 54.5 -18s24.5 -26.667 24.5 -50c-4 -40 -23.333 -68.667 -58 -86s-82.334 -26 -143.001 -26c-8 0 -16.667 0.333008 -26 1
s-19 1.66699 -29 3c-13.333 1.33301 -26.5 3.66602 -39.5 6.99902s-24.167 7.33301 -33.5 12l31 65c2 -1.33301 3.66699 -2.5 5 -3.5s3 -1.83301 5 -2.5c8 -4.66699 19.167 -9.16699 33.5 -13.5s28.833 -7.16602 43.5 -8.49902c4 -0.666992 8.33301 -1.16699 13 -1.5
s9 -0.5 13 -0.5c18 0 33.167 2.66699 45.5 8s18.5 15.333 18.5 30c0 9.33301 -4.5 16.166 -13.5 20.499s-20.5 6.83301 -34.5 7.5h-7.5c-2.33301 0 -4.5 -0.333008 -6.5 -1c-7.33301 -0.666992 -14.666 -2 -21.999 -4s-14.333 -4.33301 -21 -7l-24 24v0z" />
    <glyph glyph-name="uni00B9" unicode="&#xb9;" 
 />
    <glyph glyph-name="Agrave" unicode="&#xba;" horiz-adv-x="411" 
d="M73 314l16 89h394l-15 -89h-395v0zM129 556c0 68 21.832 119.832 65.499 155.499s99.5 53.5 167.5 53.5c56.667 0 99.167 -11.167 127.5 -33.5s42.5 -51.5 42.5 -87.5c0 -56 -18.667 -104 -56 -144s-96.666 -62 -177.999 -66c-8.66699 0 -18.167 0.166992 -28.5 0.5
s-20.5 1.5 -30.5 3.5c-27.333 4 -52.5 14.333 -75.5 31s-34.5 45.334 -34.5 86.001v1zM265.999 596.999l-1.99902 -12c-0.666992 -4 -1 -8.33301 -1 -13v-4.5v-5.5c1.33301 -13.333 5.5 -25.833 12.5 -37.5s17.167 -17.5 30.5 -17.5c22.667 0 41.167 9.5 55.5 28.5
s23.833 40.167 28.5 63.5c1.33301 4.66699 2.16602 9.5 2.49902 14.5s0.5 9.83301 0.5 14.5c0 18 -3.66699 33.167 -11 45.5s-19 18.5 -35 18.5s-30.167 -7 -42.5 -21s-22.166 -29.333 -29.499 -46c-2 -4.66699 -3.83301 -9.5 -5.5 -14.5s-2.83398 -9.83301 -3.50098 -14.5
v1z" />
    <glyph glyph-name="Ydieresis" unicode="&#xbb;" horiz-adv-x="685" 
d="M233 274l-79 209h169l89 -209l-179 -201h-168l168 201v0zM508 274l-81 209h170l88 -209l-177 -201h-169l169 201v0z" />
    <glyph glyph-name="onequarter" unicode="&#xbc;" 
 />
    <glyph glyph-name="glyph243" unicode="&#xbd;" horiz-adv-x="1024" 
 />
    <glyph glyph-name="threequarters" unicode="&#xbe;" 
 />
    <glyph glyph-name="oe" unicode="&#xbf;" horiz-adv-x="572" 
d="M32 -40c2 48.667 16.6689 88.3301 44.002 118.997s57.333 56.667 90 78l42.5 27l39.5 25c8.66699 6.66699 16.667 13.334 24 20.001s13.333 13.334 18 20.001c1.33301 2 2.5 4 3.5 6s2.16699 4 3.5 6c6 12.667 10.333 25.334 13 38.001s5 25 7 37
c0.666992 4.66699 1.66699 9 3 13s2.33301 8 3 12l160 1l-2 -14c-0.666992 -4.66699 -1 -9.33398 -1 -14.001c-0.666992 -3.33301 -1.16699 -7.33301 -1.5 -12s-0.833008 -9 -1.5 -13c-2 -18 -5.33301 -35.167 -10 -51.5s-12.667 -29.833 -24 -40.5
c-6.66699 -7.33301 -18.5 -18.333 -35.5 -33l-54.5 -49l-16.5 -16c-5.66699 -5.33301 -11.5 -11.333 -17.5 -18c-17.333 -18 -31.833 -35.167 -43.5 -51.5s-17.5 -30.5 -17.5 -42.5c0 -26.667 12 -44.5 36 -53.5s50.667 -13.833 80 -14.5h4.5h4.5
c16 0.666992 31.833 2 47.5 4s29.5 4.33301 41.5 7c2 0 3.83301 0.166992 5.5 0.5s3.5 0.833008 5.5 1.5l-23 -137c-34.667 -4 -64.834 -7.83301 -90.501 -11.5s-50.167 -5.5 -73.5 -5.5h-3.5h-2.5c-80.667 0 -143.834 12.833 -189.501 38.5s-68.5 66.834 -68.5 123.501v0z
M314.002 402.996l33 161h194l-33 -161h-194v0z" />
    <glyph glyph-name="currency" unicode="&#xc0;" horiz-adv-x="855" 
d="M8 0l444 741h258l137 -741h-235l-23 145h-291l-80 -145h-210v0zM572 298l-31 314l-162 -314h193v0zM387 968h225l81 -154h-129l-177 154v0z" />
    <glyph glyph-name="breve" unicode="&#xc1;" horiz-adv-x="855" 
d="M8 0l444 741h258l137 -741h-235l-23 145h-291l-80 -145h-210v0zM572 298l-31 314l-162 -314h193v0zM548 814l137 154h235l-235 -154h-137v0z" />
    <glyph glyph-name="tilde" unicode="&#xc2;" horiz-adv-x="855" 
d="M8 0l444 741h258l137 -741h-235l-23 145h-291l-80 -145h-210v0zM572 298l-31 314l-162 -314h193v0zM395 814l161 162h170l104 -162h-145l-56 81l-97 -81h-137v0z" />
    <glyph glyph-name="guilsinglleft" unicode="&#xc3;" horiz-adv-x="855" 
d="M8 0l444 741h258l137 -741h-235l-23 145h-291l-80 -145h-210v0zM572 298l-31 314l-162 -314h193v0zM362 822c6.66699 35.333 23.498 66.166 50.498 92.499s56.167 44.5 87.5 54.5c6.66699 2 13.334 3.5 20.001 4.5s13.667 1.5 21 1.5c16.667 0 31.834 -2 45.501 -6
s27.5 -9 41.5 -15l37 -13.5c12 -4.33301 24 -6.5 36 -6.5c16.667 0 29.334 2.66699 38.001 8s15 16.333 19 33l89 1c-8.66699 -32.667 -21.334 -59.334 -38.001 -80.001s-33.667 -36.667 -51 -48c-15.333 -9.33301 -30.333 -16.166 -45 -20.499s-26.667 -6.5 -36 -6.5
c-26 0 -46.5 2.33301 -61.5 7s-27.833 9.33398 -38.5 14.001c-2 0.666992 -4.16699 1.5 -6.5 2.5s-4.5 1.83301 -6.5 2.5c-8 4 -17 7.5 -27 10.5s-22.333 4.5 -37 4.5c-11.333 0 -21.5 -2.66699 -30.5 -8s-17.833 -16.333 -26.5 -33l-81 1v0z" />
    <glyph glyph-name="Adieresis" unicode="&#xc4;" horiz-adv-x="855" 
d="M8 0l444 741h258l137 -741h-235l-23 145h-291l-80 -145h-210v0zM572 298l-31 314l-162 -314h193v0zM379 814l33 162h177l-33 -162h-177v0zM645 814l32 162h178l-33 -162h-177v0z" />
    <glyph glyph-name="Aring" unicode="&#xc5;" horiz-adv-x="855" 
d="M8 0l444 741h258l137 -741h-235l-23 145h-291l-80 -145h-210v0zM572 298l-31 314l-162 -314h193v0zM492 911c4 31.333 17.168 60.5 39.501 87.5s57.5 40.5 105.5 40.5c36 0 59.833 -10 71.5 -30s17.5 -42.333 17.5 -67c0 -5.33301 -0.5 -10.5 -1.5 -15.5
s-2.16699 -10.5 -3.5 -16.5c-8 -24.667 -23.833 -47 -47.5 -67s-51.834 -30 -84.501 -30c-32 0 -56.167 9.16699 -72.5 27.5s-24.5 41.5 -24.5 69.5v1zM564.001 928l-0.000976562 -2.99805v-2c-0.666992 -0.666992 -1 -1.33398 -1 -2.00098v-2
c0 -12.667 4 -22.334 12 -29.001s16.667 -10 26 -10h4.5c1.66699 0 3.5 0.333008 5.5 1c10.667 1.33301 20.834 6.5 30.501 15.5s16.5 21.5 20.5 37.5v3v2c0.666992 10.667 -3.5 19 -12.5 25s-18.833 9 -29.5 9h-3.5h-3.5c-11.333 -1.33301 -21.833 -5.83301 -31.5 -13.5
s-15.5 -18.5 -17.5 -32.5v1z" />
    <glyph glyph-name="Oslash" unicode="&#xc6;" horiz-adv-x="1024" 
d="M0 0l492 750h653l-32 -153h-331l-8 -145h282l-32 -146h-266l-17 -152h283l-32 -154h-476l16 145h-234l-80 -145h-218v0zM556 298l25 314l-194 -314h169v0z" />
    <glyph glyph-name="Ccedilla" unicode="&#xc7;" horiz-adv-x="798" 
d="M104 242c0.666992 17.333 1.99805 35.334 3.99805 54.001s4.66699 37 8 55c18 101.333 60.333 194.166 127 278.499s173.667 126.833 321 127.5h4h4h4.5h4.5c114 0 189.667 -20 227 -60s57 -84 59 -132v-5.5v-5.5v-9c0 -3.33301 -0.333008 -6.33301 -1 -9
c0 -6 -0.333008 -12.167 -1 -18.5l-2 -18.5l-226 1c0 1.33301 0.166992 2.83301 0.5 4.5s0.5 3.16699 0.5 4.5c0.666992 1.33301 1 2.83301 1 4.5v5.5c0 22 -7.33301 41.667 -22 59s-43 26 -85 26h-2.5h-3.5c-50 0.666992 -90.5 -23 -121.5 -71s-52.833 -101 -65.5 -159
c-5.33301 -23.333 -9.33301 -46.5 -12 -69.5s-4 -44.167 -4 -63.5c0 -32 7.5 -60.167 22.5 -84.5s42.167 -36.5 81.5 -36.5h3.5h3.5c1.33301 -0.666992 2.5 -1 3.5 -1h3.5c40 0 72.167 12.667 96.5 38s38.833 53.333 43.5 84l225 1
c-11.333 -74 -44.166 -131.333 -98.499 -172s-113.166 -67.667 -176.499 -81c-20 -4.66699 -39.5 -8.16699 -58.5 -10.5s-37.5 -3.5 -55.5 -3.5h-11h-11l-24 -23h9.5h9.5c25.333 -1.33301 48.666 -6.66602 69.999 -15.999s32 -28.333 32 -57c0 -32 -14 -58.667 -42 -80
s-78.667 -32 -152 -32c-34.667 0 -60.667 1.33301 -78 4s-33 5.33398 -47 8.00098l-1 1h-1c-1.33301 0 -2.83301 0.166992 -4.5 0.5s-3.5 0.833008 -5.5 1.5l33 64c20 -7.33301 39 -12.666 57 -15.999s34.333 -5 49 -5c22.667 0 41 2.66699 55 8s22 11.666 24 18.999v1.5
v1.5c0 10.667 -5.33301 19.167 -16 25.5s-23.667 9.83301 -39 10.5c-8 0 -16.167 -1 -24.5 -3s-16.833 -5 -25.5 -9l-24 25l73 80c-70.667 3.33301 -122.167 25.5 -154.5 66.5s-52.166 85.833 -59.499 134.5c-1.33301 9.33301 -2.5 18.666 -3.5 27.999
s-1.5 18.666 -1.5 27.999v1z" />
    <glyph glyph-name="ring" unicode="&#xc8;" horiz-adv-x="685" 
d="M65 0l153 741h573l-33 -144h-355l-32 -145h330l-31 -154h-331l-33 -144h364l-33 -154h-572v0zM298 968h226l81 -154h-129l-178 154v0z" />
    <glyph glyph-name="Eacute" unicode="&#xc9;" horiz-adv-x="685" 
d="M65 0l153 741h573l-33 -144h-355l-32 -145h330l-31 -154h-331l-33 -144h364l-33 -154h-572v0zM452 814l137 154h233l-233 -154h-137v0z" />
    <glyph glyph-name="macron" unicode="&#xca;" horiz-adv-x="685" 
d="M65 0l153 741h573l-33 -144h-355l-32 -145h330l-31 -154h-331l-33 -144h364l-33 -154h-572v0zM306 814l162 162h169l104 -162h-144l-56 81l-98 -81h-137v0z" />
    <glyph glyph-name="dotaccent" unicode="&#xcb;" horiz-adv-x="685" 
d="M65 0l153 741h573l-33 -144h-355l-32 -145h330l-31 -154h-331l-33 -144h364l-33 -154h-572v0zM298 814l33 162h177l-32 -162h-178v0zM564 814l33 162h177l-33 -162h-177v0z" />
    <glyph glyph-name="caron" unicode="&#xcc;" 
d="M65 0l160 741h194l-153 -741h-201v0zM129 959h225l81 -153h-129l-177 153v0z" />
    <glyph glyph-name="cedilla" unicode="&#xcd;" 
d="M65 0l160 741h194l-153 -741h-201v0zM283 814l136 154h234l-234 -154h-136v0z" />
    <glyph glyph-name="hungarumlaut" unicode="&#xce;" 
d="M65 0l160 741h194l-153 -741h-201v0zM129 806l161 162h170l104 -162h-145l-57 81l-96 -81h-137v0z" />
    <glyph glyph-name="ogonek" unicode="&#xcf;" 
d="M65 0l160 741h194l-153 -741h-201v0zM113 814l32 162h178l-33 -162h-177v0zM379 814l33 162h177l-33 -162h-177v0z" />
    <glyph glyph-name="glyph232" unicode="&#xd0;" horiz-adv-x="855" 
 />
    <glyph glyph-name="Ntilde" unicode="&#xd1;" horiz-adv-x="855" 
d="M56 0l154 741h298l129 -531l121 531h193l-160 -741h-291l-138 564l-112 -564h-194v0zM371 839c6.66699 35.333 23.168 65.998 49.501 91.998s54.5 43.667 84.5 53c7.33301 2.66699 14.666 4.5 21.999 5.5s14.333 1.5 21 1.5c16.667 0 32 -2 46 -6s27.667 -8.66699 41 -14
l37.5 -14c12.333 -4.66699 24.833 -7 37.5 -7c16 0 28.333 2.83301 37 8.5s15 16.5 19 32.5l89 1c-8.66699 -33.333 -21.167 -60.166 -37.5 -80.499s-33.5 -36.166 -51.5 -47.499c-15.333 -9.33301 -30.333 -16 -45 -20s-26.667 -6 -36 -6c-26 0 -46.5 2 -61.5 6
s-27.833 8.66699 -38.5 14c-2 0.666992 -4.16699 1.33398 -6.5 2.00098s-4.5 1.66699 -6.5 3c-8 3.33301 -17 6.66602 -27 9.99902s-22.333 5 -37 5c-10.667 0 -20 -2.16699 -28 -6.5s-15.667 -12.5 -23 -24.5c-0.666992 -1.33301 -1.5 -2.83301 -2.5 -4.5
s-1.83301 -3.16699 -2.5 -4.5l-81 1v0z" />
    <glyph glyph-name="scaron" unicode="&#xd2;" 
 />
    <glyph glyph-name="Lslash" unicode="&#xd3;" horiz-adv-x="855" 
d="M104 274c11.333 172 60.6709 293.166 148.004 363.499s182 109.5 284 117.5c7.33301 0.666992 14.666 1.16699 21.999 1.5s15 0.5 23 0.5c112.667 0 194.5 -24.5 245.5 -73.5s76.5 -116.167 76.5 -201.5c0 -27.333 -2.33301 -56.5 -7 -87.5s-12.334 -62.5 -23.001 -94.5
c-26.667 -81.333 -74.834 -155.666 -144.501 -222.999s-170.834 -101.333 -303.501 -102h-6h-7c-119.333 3.33301 -199 31.333 -239 84s-62.667 110 -68 172c0 6.66699 -0.166992 13.667 -0.5 21s-0.5 14.333 -0.5 21v1zM339.005 386.999c-4 -20 -7 -38.667 -9 -56
s-3 -33.666 -3 -48.999c0 -48 10.167 -84.333 30.5 -109s51.833 -37 94.5 -37c77.333 0 134.5 34 171.5 102s57.5 144.333 61.5 229c0 40 -10 74 -30 102s-50.333 42 -91 42c-48 0 -91.5 -15.333 -130.5 -46s-70.5 -90.334 -94.5 -179.001v1zM548.005 805.999l137 153h235
l-235 -153h-137v0z" />
    <glyph glyph-name="lslash" unicode="&#xd4;" horiz-adv-x="855" 
d="M104 274c11.333 172 60.6709 293.166 148.004 363.499s182 109.5 284 117.5c7.33301 0.666992 14.666 1.16699 21.999 1.5s15 0.5 23 0.5c112.667 0 194.5 -24.5 245.5 -73.5s76.5 -116.167 76.5 -201.5c0 -27.333 -2.33301 -56.5 -7 -87.5s-12.334 -62.5 -23.001 -94.5
c-26.667 -81.333 -74.834 -155.666 -144.501 -222.999s-170.834 -101.333 -303.501 -102h-6h-7c-119.333 3.33301 -199 31.333 -239 84s-62.667 110 -68 172c0 6.66699 -0.166992 13.667 -0.5 21s-0.5 14.333 -0.5 21v1zM339.005 386.999c-4 -20 -7 -38.667 -9 -56
s-3 -33.666 -3 -48.999c0 -48 10.167 -84.333 30.5 -109s51.833 -37 94.5 -37c77.333 0 134.5 34 171.5 102s57.5 144.333 61.5 229c0 40 -10 74 -30 102s-50.333 42 -91 42c-48 0 -91.5 -15.333 -130.5 -46s-70.5 -90.334 -94.5 -179.001v1zM395.005 805.999
c6.66699 36 23.499 67.1689 50.499 93.502s55.833 43.833 86.5 52.5c6.66699 2 13.5 3.5 20.5 4.5s13.5 1.5 19.5 1.5c16.667 0 32 -2 46 -6s27.667 -8.33301 41 -13c11.333 -4.66699 22.666 -8.83398 33.999 -12.501s22.333 -6.16699 33 -7.5h4h4c16 0 28.333 2.66699 37 8
s15.334 15.666 20.001 30.999l88 1c-8 -32.667 -20.333 -59.167 -37 -79.5s-33.667 -36.5 -51 -48.5c-16 -9.33301 -31.167 -16 -45.5 -20s-26.166 -6 -35.499 -6c-26 0 -46.5 2.16699 -61.5 6.5s-28.167 8.83301 -39.5 13.5c-2 0.666992 -4 1.5 -6 2.5s-4 1.83301 -6 2.5
c-8 4 -17 7.66699 -27 11s-22.667 5 -38 5c-12 0 -22.5 -2.83301 -31.5 -8.5s-17.167 -16.5 -24.5 -32.5l-81 1v0z" />
    <glyph glyph-name="guilsinglright" unicode="&#xd5;" horiz-adv-x="855" 
d="M104 266c11.333 172 60.666 293.168 147.999 363.501s182 109.166 284 116.499l22 2c7.33301 0.666992 15 1 23 1c112.667 0 194.5 -24.5 245.5 -73.5s76.5 -115.833 76.5 -200.5c0 -27.333 -2.33301 -56.666 -7 -87.999s-12.334 -63 -23.001 -95
c-27.333 -81.333 -75.666 -155.5 -144.999 -222.5s-169.666 -100.833 -300.999 -101.5h-7.5h-7.5c-119.333 3.33301 -199 31.166 -239 83.499s-62.667 109.5 -68 171.5c0 6.66699 -0.166992 13.667 -0.5 21s-0.5 14.333 -0.5 21v1zM339 379.001c-4 -20 -7 -38.667 -9 -56
s-3 -34 -3 -50c0 -47.333 10.167 -83.333 30.5 -108s51.833 -37 94.5 -37c77.333 0 134.5 34 171.5 102s57.5 144.333 61.5 229c0 40 -10 74.167 -30 102.5s-50.333 42.5 -91 42.5c-48 0 -91.5 -15.5 -130.5 -46.5s-70.5 -90.833 -94.5 -179.5v1zM395 806.001l161 162h170
l104 -162h-145l-56 81l-97 -81h-137v0z" />
    <glyph glyph-name="Odieresis" unicode="&#xd6;" horiz-adv-x="855" 
d="M104 274c11.333 172 60.6709 293.166 148.004 363.499s182 109.5 284 117.5c7.33301 0.666992 14.666 1.16699 21.999 1.5s15 0.5 23 0.5c112.667 0 194.5 -24.5 245.5 -73.5s76.5 -116.167 76.5 -201.5c0 -27.333 -2.33301 -56.5 -7 -87.5s-12.334 -62.5 -23.001 -94.5
c-26.667 -81.333 -74.834 -155.666 -144.501 -222.999s-170.834 -101.333 -303.501 -102h-6h-7c-119.333 3.33301 -199 31.333 -239 84s-62.667 110 -68 172c0 6.66699 -0.166992 13.667 -0.5 21s-0.5 14.333 -0.5 21v1zM339.005 386.999c-4 -20 -7 -38.667 -9 -56
s-3 -33.666 -3 -48.999c0 -48 10.167 -84.333 30.5 -109s51.833 -37 94.5 -37c77.333 0 134.5 34 171.5 102s57.5 144.333 61.5 229c0 40 -10 74 -30 102s-50.333 42 -91 42c-48 0 -91.5 -15.333 -130.5 -46s-70.5 -90.334 -94.5 -179.001v1zM395.005 805.999l32 162h178
l-33 -162h-177v0zM662.005 805.999l31 162h177l-31 -162h-177v0z" />
    <glyph glyph-name="multiply" unicode="&#xd7;" 
 />
    <glyph glyph-name="plusminus" unicode="&#xd8;" horiz-adv-x="855" 
d="M145 113c-4.66699 6.66699 -8.66602 13.667 -11.999 21s-6.33301 15.333 -9 24c-6.66699 18 -11.334 35.667 -14.001 53s-4 34 -4 50c0 14.667 0.833008 28.5 2.5 41.5l4.5 35.5c16.667 120.667 66.167 223.334 148.5 308.001s194.166 127 335.499 127
c13.333 0 30 -1.33301 50 -4s41 -7 63 -13c24 -6 46.833 -14.333 68.5 -25s38.834 -23.667 51.501 -39l121 107l65 -81l-129 -106c8.66699 -20 15 -40.667 19 -62s6 -43.333 6 -66c0 -8.66699 -0.333008 -17.334 -1 -26.001l-2 -26
c-4.66699 -40.667 -13.5 -80.667 -26.5 -120s-27.5 -73.666 -43.5 -102.999c-48.667 -84.667 -107.5 -143.334 -176.5 -176.001s-150.167 -49 -243.5 -49c-44 0 -83.833 4.16699 -119.5 12.5s-65.5 22.5 -89.5 42.5l-129 -104l-56 81l120 97v0zM354.001 169
c1.33301 -2 2.66602 -3.50195 3.99902 -4.50195s3.33301 -1.83301 6 -2.5c8.66699 -6 21.334 -11.5 38.001 -16.5s35.334 -7.5 56.001 -7.5c6.66699 0 13.667 0.333008 21 1s14.666 1.66699 21.999 3c12 2.66699 24.167 6.83398 36.5 12.501s23.833 12.834 34.5 21.501
c19.333 15.333 36 34.5 50 57.5s25.333 46.833 34 71.5c10 26.667 17.333 52.5 22 77.5s7 44.833 7 59.5l-331 -273v0zM331.001 273.998l339.002 282c-8.66699 21.333 -22.834 37.5 -42.501 48.5s-41.5 16.5 -65.5 16.5c-6.66699 0 -13.5 -0.666992 -20.5 -2l-21.5 -4
c-23.333 -6 -46 -17.167 -68 -33.5s-41 -38.5 -57 -66.5c-3.33301 -5.33301 -6.83301 -12 -10.5 -20l-11.5 -25c-10.667 -24.667 -20.334 -54.167 -29.001 -88.5s-13 -70.5 -13 -108.5v1z" />
    <glyph glyph-name="Thorn" unicode="&#xd9;" horiz-adv-x="855" 
d="M137 298l95.999 452.002h210l-96 -460l-2 -16l-2 -16c0 -30 10 -56.5 30 -79.5s49 -34.5 87 -34.5h7.5h6.5c45.333 -0.666992 80.5 10.166 105.5 32.499s42.833 46.5 53.5 72.5c3.33301 8 6 16.167 8 24.5s3.33301 16.166 4 23.499l96 453h210l-88 -427
c-20.667 -106 -65.167 -187.667 -133.5 -245s-169.166 -86 -302.499 -86c-98 0 -171.833 19.667 -221.5 59s-74.5 97.333 -74.5 174c0 11.333 0.5 23 1.5 35s2.5 24.333 4.5 37v1zM394.999 984.002h226l80 -154h-129l-177 154v0z" />
    <glyph glyph-name="Eth" unicode="&#xda;" horiz-adv-x="855" 
d="M129 298l96.002 452.002h210l-96 -460l-2 -16l-2 -16c0 -30 10 -56.5 30 -79.5s49 -34.5 87 -34.5h7.5h6.5c45.333 -0.666992 80.5 10.166 105.5 32.499s42.833 46.5 53.5 72.5c3.33301 8 6 16.167 8 24.5s3.33301 16.166 4 23.499l97 453h209l-88 -427
c-20.667 -106 -65.334 -187.667 -134.001 -245s-169.334 -86 -302.001 -86c-98 0 -171.833 19.667 -221.5 59s-74.5 97.333 -74.5 174c0 11.333 0.5 23 1.5 35s2.5 24.333 4.5 37v1zM556.002 830.002l137 154h235l-235 -154h-137v0z" />
    <glyph glyph-name="eth" unicode="&#xdb;" horiz-adv-x="855" 
d="M129 298l96.002 452.002h210l-96 -460l-2 -16l-2 -16c0 -30 10 -56.5 30 -79.5s49 -34.5 87 -34.5h7.5h6.5c45.333 -0.666992 80.5 10.166 105.5 32.499s42.833 46.5 53.5 72.5c3.33301 8 6 16.167 8 24.5s3.33301 16.166 4 23.499l97 453h209l-88 -427
c-20.667 -106 -65.334 -187.667 -134.001 -245s-169.334 -86 -302.001 -86c-98 0 -171.833 19.667 -221.5 59s-74.5 97.333 -74.5 174c0 11.333 0.5 23 1.5 35s2.5 24.333 4.5 37v1zM403.002 830.002l161 162h170l105 -162h-146l-56 81l-96 -81h-138v0z" />
    <glyph glyph-name="Udieresis" unicode="&#xdc;" horiz-adv-x="855" 
d="M129 298l96.002 452.002h210l-96 -460l-2 -16l-2 -16c0 -30 10 -56.5 30 -79.5s49 -34.5 87 -34.5h7.5h6.5c45.333 -0.666992 80.5 10.166 105.5 32.499s42.833 46.5 53.5 72.5c3.33301 8 6 16.167 8 24.5s3.33301 16.166 4 23.499l97 453h209l-88 -427
c-20.667 -106 -65.334 -187.667 -134.001 -245s-169.334 -86 -302.001 -86c-98 0 -171.833 19.667 -221.5 59s-74.5 97.333 -74.5 174c0 11.333 0.5 23 1.5 35s2.5 24.333 4.5 37v1zM395.002 830.002l32 162h178l-33 -162h-177v0zM662.002 830.002l31 162h177l-31 -162h-177
v0z" />
    <glyph glyph-name="Yacute" unicode="&#xdd;" 
 />
    <glyph glyph-name="glyph236" unicode="&#xde;" horiz-adv-x="741" 
 />
    <glyph glyph-name="germandbls" unicode="&#xdf;" horiz-adv-x="798" 
d="M65 0l112 515.998c17.333 70 45.166 121.333 83.499 154s78.833 54.667 121.5 66c25.333 6.66699 50 11.334 74 14.001s45.667 4.66699 65 6c2 0 3.83301 0.166992 5.5 0.5s3.5 0.5 5.5 0.5c14.667 0 31.667 -0.666992 51 -2s39 -4.33301 59 -9
c37.333 -6.66699 71.5 -19 102.5 -37s46.5 -45 46.5 -81c0 -41.333 -8.83301 -72.166 -26.5 -92.499s-36.5 -37.166 -56.5 -50.499c-4 -2 -8 -4.16699 -12 -6.5s-8 -4.5 -12 -6.5c-12 -7.33301 -23.167 -15.166 -33.5 -23.499s-17.5 -18.5 -21.5 -30.5
c-0.666992 -2 -1.16699 -4 -1.5 -6s-0.5 -4 -0.5 -6c0 -12.667 5.33301 -24 16 -34s24 -19.333 40 -28l16.5 -8.5l17.5 -9.5c22 -12.667 42.333 -27.334 61 -44.001s28 -38.334 28 -65.001c0 -84.667 -30 -144.667 -90 -180s-126.667 -53 -200 -53
c-69.333 0 -118.5 11.167 -147.5 33.5s-43.5 52.833 -43.5 91.5c0 7.33301 0.5 15.333 1.5 24s2.5 17.667 4.5 27l169 1c0 -20.667 3 -36.834 9 -48.501s19 -17.5 39 -17.5c20.667 0 36.5 7.83301 47.5 23.5s16.5 37.5 16.5 65.5c0 12 -8 25.833 -24 41.5s-40 31.5 -72 47.5
c-29.333 14.667 -50.833 30.667 -64.5 48s-21.5 35 -23.5 53c-0.666992 2 -1 4 -1 6v6c2.66699 24.667 9.33398 43.667 20.001 57s24 25.333 40 36c10.667 7.33301 22.667 15.166 36 23.499s27 17.833 41 28.5c9.33301 8.66699 16.5 17.334 21.5 26.001
s7.5 17.334 7.5 26.001c0 15.333 -6.83301 28 -20.5 38s-32.5 15 -56.5 15c-36 0 -66.833 -13.5 -92.5 -40.5s-40.5 -56.5 -44.5 -88.5l-113 -507h-201v0z" />
    <glyph glyph-name="agrave" unicode="&#xe0;" horiz-adv-x="628" 
d="M145 362c3.33301 54.667 29.1738 95.834 77.5068 123.501s100.833 44.834 157.5 51.501c9.33301 1.33301 18.666 2.16602 27.999 2.49902s18.333 0.5 27 0.5c82.667 0 139.5 -13 170.5 -39s46.5 -57.667 46.5 -95c0 -5.33301 -0.333008 -11 -1 -17l-2 -18
c-0.666992 -2.66699 -1.33398 -5.66699 -2.00098 -9s-1.33398 -6.33301 -2.00098 -9l-56 -264l-8 -89h-194v16c0 5.33301 0.333008 10.666 1 15.999c0.666992 4.66699 1.5 9.5 2.5 14.5s2.5 10.5 4.5 16.5c-16.667 -23.333 -38.834 -41.166 -66.501 -53.499
s-56.5 -20.166 -86.5 -23.499c-4.66699 0 -9.16699 -0.166992 -13.5 -0.5s-8.5 -0.5 -12.5 -0.5c-40 0 -76.167 9.5 -108.5 28.5s-49.5 48.833 -51.5 89.5v3v3v2.5v2.5c-0.666992 52 15.333 93.833 48 125.5s68 55.5 106 71.5c19.333 7.33301 38 13.333 56 18
s34 7.66699 48 9c12 2 24.167 3.5 36.5 4.5s24.5 1.83301 36.5 2.5s24 1 36 1h37c1.33301 8.66699 2.16602 16.667 2.49902 24s0.5 13.666 0.5 18.999c0 22 -3.83301 36.333 -11.5 43s-20.834 10 -39.501 10c-20.667 0 -38.334 -7.33301 -53.001 -22
s-24 -34.334 -28 -59.001l-186 1v0zM427.008 250c-1.33301 -0.666992 -2.83301 -0.998047 -4.5 -0.998047s-3.16699 0.333008 -4.5 1h-4h-4c-39.333 -0.666992 -73.833 -9.5 -103.5 -26.5s-44.834 -38.167 -45.501 -63.5c0 -6.66699 1 -13.334 3 -20.001
s5.33301 -13.334 10 -20.001c4.66699 -6 10.334 -10.667 17.001 -14s13.667 -5 21 -5c5.33301 0 11 0.666992 17 2s11.667 3.33301 17 6c20.667 8.66699 39.5 24 56.5 46s25.5 47 25.5 75v10c0 3.33301 -0.333008 6.33301 -1 9v1zM242.008 750.002h226l80 -153h-129
l-177 153v0z" />
    <glyph glyph-name="aacute" unicode="&#xe1;" horiz-adv-x="628" 
d="M145 362c3.33301 54.667 29.1738 95.834 77.5068 123.501s100.833 44.834 157.5 51.501c9.33301 1.33301 18.666 2.16602 27.999 2.49902s18.333 0.5 27 0.5c82.667 0 139.5 -13 170.5 -39s46.5 -57.667 46.5 -95c0 -5.33301 -0.333008 -11 -1 -17l-2 -18
c-0.666992 -2.66699 -1.33398 -5.66699 -2.00098 -9s-1.33398 -6.33301 -2.00098 -9l-56 -264l-8 -89h-194v16c0 5.33301 0.333008 10.666 1 15.999c0.666992 4.66699 1.5 9.5 2.5 14.5s2.5 10.5 4.5 16.5c-16.667 -23.333 -38.834 -41.166 -66.501 -53.499
s-56.5 -20.166 -86.5 -23.499c-4.66699 0 -9.16699 -0.166992 -13.5 -0.5s-8.5 -0.5 -12.5 -0.5c-40 0 -76.167 9.5 -108.5 28.5s-49.5 48.833 -51.5 89.5v3v3v2.5v2.5c-0.666992 52 15.333 93.833 48 125.5s68 55.5 106 71.5c19.333 7.33301 38 13.333 56 18
s34 7.66699 48 9c12 2 24.167 3.5 36.5 4.5s24.5 1.83301 36.5 2.5s24 1 36 1h37c1.33301 8.66699 2.16602 16.667 2.49902 24s0.5 13.666 0.5 18.999c0 22 -3.83301 36.333 -11.5 43s-20.834 10 -39.501 10c-20.667 0 -38.334 -7.33301 -53.001 -22
s-24 -34.334 -28 -59.001l-186 1v0zM427.008 250c-1.33301 -0.666992 -2.83301 -0.998047 -4.5 -0.998047s-3.16699 0.333008 -4.5 1h-4h-4c-39.333 -0.666992 -73.833 -9.5 -103.5 -26.5s-44.834 -38.167 -45.501 -63.5c0 -6.66699 1 -13.334 3 -20.001
s5.33301 -13.334 10 -20.001c4.66699 -6 10.334 -10.667 17.001 -14s13.667 -5 21 -5c5.33301 0 11 0.666992 17 2s11.667 3.33301 17 6c20.667 8.66699 39.5 24 56.5 46s25.5 47 25.5 75v10c0 3.33301 -0.333008 6.33301 -1 9v1zM403.008 597.002l138 153h233l-233 -153
h-138v0z" />
    <glyph glyph-name="acircumflex" unicode="&#xe2;" horiz-adv-x="628" 
d="M145 362c3.33301 54.667 29.1738 95.834 77.5068 123.501s100.833 44.834 157.5 51.501c9.33301 1.33301 18.666 2.16602 27.999 2.49902s18.333 0.5 27 0.5c82.667 0 139.5 -13 170.5 -39s46.5 -57.667 46.5 -95c0 -5.33301 -0.333008 -11 -1 -17l-2 -18
c-0.666992 -2.66699 -1.33398 -5.66699 -2.00098 -9s-1.33398 -6.33301 -2.00098 -9l-56 -264l-8 -89h-194v16c0 5.33301 0.333008 10.666 1 15.999c0.666992 4.66699 1.5 9.5 2.5 14.5s2.5 10.5 4.5 16.5c-16.667 -23.333 -38.834 -41.166 -66.501 -53.499
s-56.5 -20.166 -86.5 -23.499c-4.66699 0 -9.16699 -0.166992 -13.5 -0.5s-8.5 -0.5 -12.5 -0.5c-40 0 -76.167 9.5 -108.5 28.5s-49.5 48.833 -51.5 89.5v3v3v2.5v2.5c-0.666992 52 15.333 93.833 48 125.5s68 55.5 106 71.5c19.333 7.33301 38 13.333 56 18
s34 7.66699 48 9c12 2 24.167 3.5 36.5 4.5s24.5 1.83301 36.5 2.5s24 1 36 1h37c1.33301 8.66699 2.16602 16.667 2.49902 24s0.5 13.666 0.5 18.999c0 22 -3.83301 36.333 -11.5 43s-20.834 10 -39.501 10c-20.667 0 -38.334 -7.33301 -53.001 -22
s-24 -34.334 -28 -59.001l-186 1v0zM427.008 250c-1.33301 -0.666992 -2.83301 -0.998047 -4.5 -0.998047s-3.16699 0.333008 -4.5 1h-4h-4c-39.333 -0.666992 -73.833 -9.5 -103.5 -26.5s-44.834 -38.167 -45.501 -63.5c0 -6.66699 1 -13.334 3 -20.001
s5.33301 -13.334 10 -20.001c4.66699 -6 10.334 -10.667 17.001 -14s13.667 -5 21 -5c5.33301 0 11 0.666992 17 2s11.667 3.33301 17 6c20.667 8.66699 39.5 24 56.5 46s25.5 47 25.5 75v10c0 3.33301 -0.333008 6.33301 -1 9v1zM258.008 597.002l161 161h170l104 -161
h-145l-56 80l-97 -80h-137v0z" />
    <glyph glyph-name="atilde" unicode="&#xe3;" horiz-adv-x="628" 
d="M145 362c3.33301 54.667 29.1738 95.834 77.5068 123.501s100.833 44.834 157.5 51.501c9.33301 1.33301 18.666 2.16602 27.999 2.49902s18.333 0.5 27 0.5c82.667 0 139.5 -13 170.5 -39s46.5 -57.667 46.5 -95c0 -5.33301 -0.333008 -11 -1 -17l-2 -18
c-0.666992 -2.66699 -1.33398 -5.66699 -2.00098 -9s-1.33398 -6.33301 -2.00098 -9l-56 -264l-8 -89h-194v16c0 5.33301 0.333008 10.666 1 15.999c0.666992 4.66699 1.5 9.5 2.5 14.5s2.5 10.5 4.5 16.5c-16.667 -23.333 -38.834 -41.166 -66.501 -53.499
s-56.5 -20.166 -86.5 -23.499c-4.66699 0 -9.16699 -0.166992 -13.5 -0.5s-8.5 -0.5 -12.5 -0.5c-40 0 -76.167 9.5 -108.5 28.5s-49.5 48.833 -51.5 89.5v3v3v2.5v2.5c-0.666992 52 15.333 93.833 48 125.5s68 55.5 106 71.5c19.333 7.33301 38 13.333 56 18
s34 7.66699 48 9c12 2 24.167 3.5 36.5 4.5s24.5 1.83301 36.5 2.5s24 1 36 1h37c1.33301 8.66699 2.16602 16.667 2.49902 24s0.5 13.666 0.5 18.999c0 22 -3.83301 36.333 -11.5 43s-20.834 10 -39.501 10c-20.667 0 -38.334 -7.33301 -53.001 -22
s-24 -34.334 -28 -59.001l-186 1v0zM427.008 250c-1.33301 -0.666992 -2.83301 -0.998047 -4.5 -0.998047s-3.16699 0.333008 -4.5 1h-4h-4c-39.333 -0.666992 -73.833 -9.5 -103.5 -26.5s-44.834 -38.167 -45.501 -63.5c0 -6.66699 1 -13.334 3 -20.001
s5.33301 -13.334 10 -20.001c4.66699 -6 10.334 -10.667 17.001 -14s13.667 -5 21 -5c5.33301 0 11 0.666992 17 2s11.667 3.33301 17 6c20.667 8.66699 39.5 24 56.5 46s25.5 47 25.5 75v10c0 3.33301 -0.333008 6.33301 -1 9v1zM185.008 597.002
c6.66699 35.333 23.5 66.1689 50.5 92.502s56.167 43.833 87.5 52.5c6.66699 2 13.334 3.66699 20.001 5s13 2 19 2c16.667 0 32.167 -2.16699 46.5 -6.5s28.166 -8.83301 41.499 -13.5c12.667 -5.33301 25.167 -10 37.5 -14s24.5 -6 36.5 -6c16 0 28.333 2.66699 37 8
s15.334 16 20.001 32l89 1c-8.66699 -32.667 -21.334 -59.334 -38.001 -80.001s-33.667 -36.334 -51 -47.001c-15.333 -10 -30.333 -17 -45 -21s-26.667 -6 -36 -6c-26 0 -46.5 2 -61.5 6s-28.167 8.66699 -39.5 14c-2 0.666992 -4 1.5 -6 2.5s-4 2.16699 -6 3.5
c-8 3.33301 -17 6.5 -27 9.5s-22.333 4.5 -37 4.5c-10.667 0 -20 -2 -28 -6s-16 -12.333 -24 -25c-0.666992 -1.33301 -1.5 -2.83301 -2.5 -4.5s-1.83301 -3.16699 -2.5 -4.5l-81 1v0z" />
    <glyph glyph-name="adieresis" unicode="&#xe4;" horiz-adv-x="628" 
d="M145 362c3.33301 54.667 29.1738 95.834 77.5068 123.501s100.833 44.834 157.5 51.501c9.33301 1.33301 18.666 2.16602 27.999 2.49902s18.333 0.5 27 0.5c82.667 0 139.5 -13 170.5 -39s46.5 -57.667 46.5 -95c0 -5.33301 -0.333008 -11 -1 -17l-2 -18
c-0.666992 -2.66699 -1.33398 -5.66699 -2.00098 -9s-1.33398 -6.33301 -2.00098 -9l-56 -264l-8 -89h-194v16c0 5.33301 0.333008 10.666 1 15.999c0.666992 4.66699 1.5 9.5 2.5 14.5s2.5 10.5 4.5 16.5c-16.667 -23.333 -38.834 -41.166 -66.501 -53.499
s-56.5 -20.166 -86.5 -23.499c-4.66699 0 -9.16699 -0.166992 -13.5 -0.5s-8.5 -0.5 -12.5 -0.5c-40 0 -76.167 9.5 -108.5 28.5s-49.5 48.833 -51.5 89.5v3v3v2.5v2.5c-0.666992 52 15.333 93.833 48 125.5s68 55.5 106 71.5c19.333 7.33301 38 13.333 56 18
s34 7.66699 48 9c12 2 24.167 3.5 36.5 4.5s24.5 1.83301 36.5 2.5s24 1 36 1h37c1.33301 8.66699 2.16602 16.667 2.49902 24s0.5 13.666 0.5 18.999c0 22 -3.83301 36.333 -11.5 43s-20.834 10 -39.501 10c-20.667 0 -38.334 -7.33301 -53.001 -22
s-24 -34.334 -28 -59.001l-186 1v0zM427.008 250c-1.33301 -0.666992 -2.83301 -0.998047 -4.5 -0.998047s-3.16699 0.333008 -4.5 1h-4h-4c-39.333 -0.666992 -73.833 -9.5 -103.5 -26.5s-44.834 -38.167 -45.501 -63.5c0 -6.66699 1 -13.334 3 -20.001
s5.33301 -13.334 10 -20.001c4.66699 -6 10.334 -10.667 17.001 -14s13.667 -5 21 -5c5.33301 0 11 0.666992 17 2s11.667 3.33301 17 6c20.667 8.66699 39.5 24 56.5 46s25.5 47 25.5 75v10c0 3.33301 -0.333008 6.33301 -1 9v1zM225.008 597.002l33 161h177l-32 -161h-178
v0zM492.008 597.002l32 161h177l-31 -161h-178v0z" />
    <glyph glyph-name="aring" unicode="&#xe5;" horiz-adv-x="628" 
d="M145 362c3.33301 54.667 29.1738 95.834 77.5068 123.501s100.833 44.834 157.5 51.501c9.33301 1.33301 18.666 2.16602 27.999 2.49902s18.333 0.5 27 0.5c82.667 0 139.5 -13 170.5 -39s46.5 -57.667 46.5 -95c0 -5.33301 -0.333008 -11 -1 -17l-2 -18
c-0.666992 -2.66699 -1.33398 -5.66699 -2.00098 -9s-1.33398 -6.33301 -2.00098 -9l-56 -264l-8 -89h-194v16c0 5.33301 0.333008 10.666 1 15.999c0.666992 4.66699 1.5 9.5 2.5 14.5s2.5 10.5 4.5 16.5c-16.667 -23.333 -38.834 -41.166 -66.501 -53.499
s-56.5 -20.166 -86.5 -23.499c-4.66699 0 -9.16699 -0.166992 -13.5 -0.5s-8.5 -0.5 -12.5 -0.5c-40 0 -76.167 9.5 -108.5 28.5s-49.5 48.833 -51.5 89.5v3v3v2.5v2.5c-0.666992 52 15.333 93.833 48 125.5s68 55.5 106 71.5c19.333 7.33301 38 13.333 56 18
s34 7.66699 48 9c12 2 24.167 3.5 36.5 4.5s24.5 1.83301 36.5 2.5s24 1 36 1h37c1.33301 8.66699 2.16602 16.667 2.49902 24s0.5 13.666 0.5 18.999c0 22 -3.83301 36.333 -11.5 43s-20.834 10 -39.501 10c-20.667 0 -38.334 -7.33301 -53.001 -22
s-24 -34.334 -28 -59.001l-186 1v0zM427.008 250c-1.33301 -0.666992 -2.83301 -0.998047 -4.5 -0.998047s-3.16699 0.333008 -4.5 1h-4h-4c-39.333 -0.666992 -73.833 -9.5 -103.5 -26.5s-44.834 -38.167 -45.501 -63.5c0 -6.66699 1 -13.334 3 -20.001
s5.33301 -13.334 10 -20.001c4.66699 -6 10.334 -10.667 17.001 -14s13.667 -5 21 -5c5.33301 0 11 0.666992 17 2s11.667 3.33301 17 6c20.667 8.66699 39.5 24 56.5 46s25.5 47 25.5 75v10c0 3.33301 -0.333008 6.33301 -1 9v1zM362.008 693.002
c4 31.333 17.334 60.498 40.001 87.498s58 40.5 106 40.5c36 0 59.833 -10 71.5 -30s17.5 -42 17.5 -66c0 -5.33301 -0.5 -10.666 -1.5 -15.999s-2.16699 -10.666 -3.5 -15.999c-8 -24.667 -23.833 -47 -47.5 -67s-51.834 -30 -84.501 -30c-32 0 -56.333 9 -73 27
s-25 41 -25 69v1zM435.009 710l-0.00195312 -3.00195v-2c-0.666992 -0.666992 -1 -1.5 -1 -2.5v-2.5c0 -12.667 4 -22.167 12 -28.5s16.667 -9.5 26 -9.5h4.5c1.66699 0 3.5 0.333008 5.5 1c10.667 2 20.834 7.33301 30.501 16s16.167 21.334 19.5 38.001v3v2
c0.666992 10 -3.16602 18 -11.499 24s-18.5 9 -30.5 9h-3h-3c-11.333 -1.33301 -21.833 -5.66602 -31.5 -12.999s-15.5 -18.333 -17.5 -33v1z" />
    <glyph glyph-name="Otilde" unicode="&#xe6;" horiz-adv-x="967" 
d="M137 379c8 48 41.3359 88.0059 100.003 120.006s122 48 190 48c36 0 68.167 -5 96.5 -15s52.833 -29 73.5 -57l10 8l11 9c18 13.333 39.333 25.833 64 37.5s55.334 17.5 92.001 17.5c84.667 0 142.667 -18.833 174 -56.5s47 -87.5 47 -149.5c0 -18 -1 -36.667 -3 -56
s-4.66699 -39.666 -8 -60.999l-379 1c-2 -8 -3.5 -15.667 -4.5 -23s-1.5 -14.333 -1.5 -21c0 -28 7.66699 -48.5 23 -61.5s32.666 -19.5 51.999 -19.5h6c2 0 4 0.333008 6 1c20.667 2 39.667 9.66699 57 23s27.666 30.666 30.999 51.999l194 1
c-8 -48 -30.833 -86.5 -68.5 -115.5s-77.834 -49.5 -120.501 -61.5c-20 -5.33301 -39.167 -9.33301 -57.5 -12s-35.5 -4 -51.5 -4h-5.5c-1.66699 0 -3.5 -0.333008 -5.5 -1h-4.5h-4.5c-40.667 0 -72.334 6 -95.001 18s-39.334 25.667 -50.001 41
c-6 8.66699 -10.833 17.167 -14.5 25.5s-6.16699 15.166 -7.5 20.499l-12 -12.5l-12 -13.5c-22.667 -22.667 -49.167 -41.334 -79.5 -56.001s-81.833 -22 -154.5 -22c-68 0 -115.833 13.167 -143.5 39.5s-41.5 55.833 -41.5 88.5
c5.33301 75.333 34.166 129.166 86.499 161.499s109.166 53.166 170.499 62.499c27.333 4 54.333 6.66699 81 8s51.334 2 74.001 2c2.66699 5.33301 4.83398 11.166 6.50098 17.499s2.83398 12.833 3.50098 19.5c0.666992 2.66699 1.16699 5.66699 1.5 9s0.5 6.33301 0.5 9
c0 13.333 -3.33301 25 -10 35s-18.334 15 -35.001 15c-24 0 -41.667 -6 -53 -18s-20.666 -25.333 -27.999 -40c-0.666992 -2 -1.5 -4.16699 -2.5 -6.5s-2.16699 -4.5 -3.5 -6.5v0c-0.666992 -0.666992 -1 -1.33398 -1 -2.00098l-194 1v0zM427.003 250.006
c-2.66699 0 -5.16699 0.166016 -7.5 0.499023s-4.5 0.5 -6.5 0.5h-8h-8c-39.333 0 -72.833 -10.333 -100.5 -31s-41.834 -43.667 -42.501 -69v-6c0 -2 0.333008 -4 1 -6c0 -2 0.333008 -3.83301 1 -5.5s1.33398 -3.5 2.00098 -5.5
c3.33301 -9.33301 9.5 -16.666 18.5 -21.999s18.833 -8 29.5 -8c5.33301 0 11 0.5 17 1.5s11.667 2.5 17 4.5c22 8 42 24 60 48s27 56.333 27 97v1zM814.003 339.005c0.666992 2.66699 1 5.66699 1 9v9c0 26.667 -6.33301 47.5 -19 62.5s-28 22.5 -46 22.5
c-28 0 -51.833 -10.333 -71.5 -31s-33.5 -45 -41.5 -73l177 1v0z" />
    <glyph glyph-name="ccedilla" unicode="&#xe7;" horiz-adv-x="628" 
d="M81 185c0.666992 8.66699 1.49707 18.166 2.49707 28.499s2.16699 20.5 3.5 30.5c12 72.667 43.833 139.667 95.5 201s135.834 95.333 252.501 102c56.667 0 108.834 -13 156.501 -39s71.5 -73.667 71.5 -143v-13c0 -4.66699 -0.333008 -9.33398 -1 -14.001l-202 1
c0.666992 4 1.16699 8 1.5 12s0.5 8.33301 0.5 13c0 26 -5.33301 42.833 -16 50.5s-25 11.5 -43 11.5c-26 0 -47.167 -12.833 -63.5 -38.5s-28.833 -53.834 -37.5 -84.501c-5.33301 -18 -9.5 -35.333 -12.5 -52s-5.16699 -30.667 -6.5 -42l-2 -18
c-0.666992 -6 -1 -11.667 -1 -17c0 -20 3.66699 -36.833 11 -50.5s20.666 -20.5 39.999 -20.5c24 0 45 8.66699 63 26s29 44 33 80l202 1c-12.667 -62 -37.834 -108.5 -75.501 -139.5s-77.5 -53.167 -119.5 -66.5c-21.333 -6 -42.166 -10.5 -62.499 -13.5
s-39.5 -5.16699 -57.5 -6.5l-31 -32c4.66699 0.666992 9.33398 1.16699 14.001 1.5s9.33398 0.833008 14.001 1.5h7.5h7.5c24 0.666992 45.5 -4.16602 64.5 -14.499s28.5 -30.833 28.5 -61.5c-2 -34.667 -21.167 -60 -57.5 -76s-75.5 -25 -117.5 -27
c-4 -0.666992 -8.16699 -1 -12.5 -1h-12.5c-26.667 0 -51.5 2 -74.5 6s-41.5 9.66699 -55.5 17l32 57c18 -8 35.5 -13.833 52.5 -17.5s32.833 -5.5 47.5 -5.5c22.667 -0.666992 41.167 2.83301 55.5 10.5s21.5 17.167 21.5 28.5c0 1.33301 -0.166992 2.5 -0.5 3.5
s-1.16602 2.16699 -2.49902 3.5c-3.33301 4.66699 -9.83301 9.16699 -19.5 13.5s-20.834 6.5 -33.501 6.5c-6.66699 0 -14.167 -1 -22.5 -3s-16.833 -4.66699 -25.5 -8l-25 24l73 81c-45.333 2.66699 -79 14.334 -101 35.001s-37.667 43.334 -47 68.001
c-6 18 -9.66699 35 -11 51s-2 28.667 -2 38v1z" />
    <glyph glyph-name="egrave" unicode="&#xe8;" horiz-adv-x="628" 
d="M81 210c15.333 119.333 54.002 201.503 116.002 246.503s128.333 69.5 199 73.5c5.33301 0.666992 10.666 1 15.999 1h15c78 0 135.667 -14.833 173 -44.5s56 -75.834 56 -138.501c0 -18.667 -1.5 -38.834 -4.5 -60.501s-7.83301 -45.167 -14.5 -70.5l-371 1
c-0.666992 -6 -1.33398 -11.5 -2.00098 -16.5s-1 -10.167 -1 -15.5c0 -30.667 7.33301 -53.334 22 -68.001s32 -22 52 -22c4 0 8.16699 0.333008 12.5 1s8.5 1.66699 12.5 3c16 4 31.333 12.5 46 25.5s26.334 29.833 35.001 50.5l186 1c-16 -60.667 -54.5 -108 -115.5 -142
s-130.167 -51 -207.5 -51c-96.667 0 -158.334 22.5 -185.001 67.5s-40 97.5 -40 157.5v1zM298.002 331.003l178.002 0.00195312c0.666992 2.66699 1.16699 5.5 1.5 8.5s0.5 6.16699 0.5 9.5s-0.166992 6.66602 -0.5 9.99902s-0.5 6.66602 -0.5 9.99902
c-2.66699 16.667 -9.33398 31.667 -20.001 45s-25.667 20 -45 20c-24.667 0 -47.834 -9.33301 -69.501 -28s-36.5 -44 -44.5 -76v1zM242.004 758.005h226l80 -153h-129l-177 153v0z" />
    <glyph glyph-name="eacute" unicode="&#xe9;" horiz-adv-x="628" 
d="M81 210c15.333 119.333 54.002 201.503 116.002 246.503s128.333 69.5 199 73.5c5.33301 0.666992 10.666 1 15.999 1h15c78 0 135.667 -14.833 173 -44.5s56 -75.834 56 -138.501c0 -18.667 -1.5 -38.834 -4.5 -60.501s-7.83301 -45.167 -14.5 -70.5l-371 1
c-0.666992 -6 -1.33398 -11.5 -2.00098 -16.5s-1 -10.167 -1 -15.5c0 -30.667 7.33301 -53.334 22 -68.001s32 -22 52 -22c4 0 8.16699 0.333008 12.5 1s8.5 1.66699 12.5 3c16 4 31.333 12.5 46 25.5s26.334 29.833 35.001 50.5l186 1c-16 -60.667 -54.5 -108 -115.5 -142
s-130.167 -51 -207.5 -51c-96.667 0 -158.334 22.5 -185.001 67.5s-40 97.5 -40 157.5v1zM298.002 331.003l178.002 0.00195312c0.666992 2.66699 1.16699 5.5 1.5 8.5s0.5 6.16699 0.5 9.5s-0.166992 6.66602 -0.5 9.99902s-0.5 6.66602 -0.5 9.99902
c-2.66699 16.667 -9.33398 31.667 -20.001 45s-25.667 20 -45 20c-24.667 0 -47.834 -9.33301 -69.501 -28s-36.5 -44 -44.5 -76v1zM403.004 605.005l138 153h233l-233 -153h-138v0z" />
    <glyph glyph-name="ecircumflex" unicode="&#xea;" horiz-adv-x="628" 
d="M73 210c15.333 119.333 54.002 201.503 116.002 246.503s128.333 69.5 199 73.5c5.33301 0.666992 10.666 1 15.999 1h15c78 0 135.667 -14.833 173 -44.5s56 -75.834 56 -138.501c0 -18.667 -1.5 -38.834 -4.5 -60.501s-7.83301 -45.167 -14.5 -70.5l-371 1
c-0.666992 -6 -1.33398 -11.5 -2.00098 -16.5s-1 -10.167 -1 -15.5c0 -30.667 7.33301 -53.334 22 -68.001s32 -22 52 -22c4 0 8.16699 0.333008 12.5 1s8.5 1.66699 12.5 3c16 4 31.333 12.5 46 25.5s26.334 29.833 35.001 50.5l186 1c-16 -60.667 -54.5 -108 -115.5 -142
s-130.167 -51 -207.5 -51c-96.667 0 -158.334 22.5 -185.001 67.5s-40 97.5 -40 157.5v1zM290.002 331.003h178.001c0.666992 2.66699 1.16699 5.66699 1.5 9s0.5 6.66602 0.5 9.99902c0 2.66699 -0.166992 5.66699 -0.5 9s-0.5 6.33301 -0.5 9
c-2.66699 16.667 -9.33398 31.834 -20.001 45.501s-26 20.5 -46 20.5c-24.667 0 -47.667 -9.33301 -69 -28s-36 -44 -44 -76v1zM250.003 605.003l162 161h169l104 -161h-144l-58 80l-96 -80h-137v0z" />
    <glyph glyph-name="edieresis" unicode="&#xeb;" horiz-adv-x="628" 
d="M73 210c15.333 119.333 54.002 201.503 116.002 246.503s128.333 69.5 199 73.5c5.33301 0.666992 10.666 1 15.999 1h15c78 0 135.667 -14.833 173 -44.5s56 -75.834 56 -138.501c0 -18.667 -1.5 -38.834 -4.5 -60.501s-7.83301 -45.167 -14.5 -70.5l-371 1
c-0.666992 -6 -1.33398 -11.5 -2.00098 -16.5s-1 -10.167 -1 -15.5c0 -30.667 7.33301 -53.334 22 -68.001s32 -22 52 -22c4 0 8.16699 0.333008 12.5 1s8.5 1.66699 12.5 3c16 4 31.333 12.5 46 25.5s26.334 29.833 35.001 50.5l186 1c-16 -60.667 -54.5 -108 -115.5 -142
s-130.167 -51 -207.5 -51c-96.667 0 -158.334 22.5 -185.001 67.5s-40 97.5 -40 157.5v1zM290.002 331.003h178.001c0.666992 2.66699 1.16699 5.66699 1.5 9s0.5 6.66602 0.5 9.99902c0 2.66699 -0.166992 5.66699 -0.5 9s-0.5 6.33301 -0.5 9
c-2.66699 16.667 -9.33398 31.834 -20.001 45.501s-26 20.5 -46 20.5c-24.667 0 -47.667 -9.33301 -69 -28s-36 -44 -44 -76v1zM242.003 597.003l32 161h178l-33 -161h-177v0zM508.003 597.003l33 161h177l-33 -161h-177v0z" />
    <glyph glyph-name="igrave" unicode="&#xec;" 
d="M65 0l112 516h202l-113 -516h-201v0zM89 741h225l81 -152h-129l-177 152v0z" />
    <glyph glyph-name="iacute" unicode="&#xed;" 
d="M65 0l112 516h202l-113 -516h-201v0zM242 589l137 152h233l-233 -152h-137v0z" />
    <glyph glyph-name="icircumflex" unicode="&#xee;" 
d="M65 0l112 516h202l-113 -516h-201v0zM89 589l161 161h169l105 -161h-145l-56 81l-98 -81h-136v0z" />
    <glyph glyph-name="idieresis" unicode="&#xef;" 
d="M65 0l112 516h202l-113 -516h-201v0zM96 589l33 161h177l-32 -161h-178v0zM362 589l33 161h177l-31 -161h-179v0z" />
    <glyph glyph-name="glyph233" unicode="&#xf0;" horiz-adv-x="685" 
 />
    <glyph glyph-name="ntilde" unicode="&#xf1;" horiz-adv-x="685" 
d="M65 0l12.5 58.5029l13.5 58.5l47 209.5c14.667 67.667 25 133.167 31 196.5l202 1l-9 -56c28 19.333 57.167 36.166 87.5 50.499s63.166 21.5 98.499 21.5c48.667 -4.66699 84 -17.334 106 -38.001s36.333 -42.667 43 -66c2.66699 -8.66699 4.66699 -17.167 6 -25.5
s2 -16.166 2 -23.499c0 -6.66699 -0.333008 -12.834 -1 -18.501s-1.66699 -10.834 -3 -15.501l-80 -353h-202l64 298c2.66699 10 4.5 19.5 5.5 28.5s1.5 16.833 1.5 23.5c0 18 -4.16699 31.167 -12.5 39.5s-22.5 12.5 -42.5 12.5c-30.667 0 -53.167 -9.83301 -67.5 -29.5
s-25.166 -41.5 -32.499 -65.5l-6 -19.5c-2 -6.33301 -3.66699 -12.833 -5 -19.5c0 -0.666992 -0.166992 -1.16699 -0.5 -1.5s-0.5 -0.833008 -0.5 -1.5l-57 -265h-201v0zM266 589.003c6.66699 35.333 23.499 66.167 50.499 92.5s55.833 43.833 86.5 52.5
c6.66699 2 13.5 3.5 20.5 4.5s13.5 1.5 19.5 1.5c16.667 0 32 -2 46 -6s27.667 -8.33301 41 -13c11.333 -4.66699 22.666 -9 33.999 -13s22.333 -6.66699 33 -8h4h4c16 0 28.333 2.83301 37 8.5s15.334 16.167 20.001 31.5l88 1c-8 -32.667 -20.333 -59.167 -37 -79.5
s-33.667 -36.166 -51 -47.499c-16 -9.33301 -31.167 -16 -45.5 -20s-26.166 -6 -35.499 -6c-26 0 -46.5 2 -61.5 6s-28.167 8.66699 -39.5 14l-6 2c-2 0.666992 -4 1.66699 -6 3c-8 3.33301 -17 6.66602 -27 9.99902s-22.667 5 -38 5c-12 0 -22.5 -2.83301 -31.5 -8.5
s-17.167 -16.167 -24.5 -31.5l-81 1v0z" />
    <glyph glyph-name="ograve" unicode="&#xf2;" horiz-adv-x="685" 
d="M89 194c3.33301 106 37.6689 187.333 103.002 244s137 89.667 215 99c7.33301 1.33301 14.666 2.16602 21.999 2.49902s15 0.5 23 0.5c94.667 -4 160 -26 196 -66s54 -86.333 54 -139v-11c0 -4 -0.333008 -7.66699 -1 -11c0 -18.667 -2.33301 -40.167 -7 -64.5
s-13 -49.166 -25 -74.499c-22 -48 -58.333 -91.667 -109 -131s-121.667 -59 -213 -59c-96.667 0 -163.834 19.667 -201.501 59s-56.5 89.333 -56.5 150v1zM290.003 194c0 -24.667 4.00098 -46 12.001 -64s28 -27 60 -27h5h4c30.667 -0.666992 56.167 13 76.5 41
s35.166 59 44.499 93c2 7.33301 3.66699 14.666 5 21.999s2.33301 15 3 23c0.666992 5.33301 1.16699 10.333 1.5 15s0.5 9.33398 0.5 14.001c0 2 0.166992 4.33301 0.5 7s0.5 5 0.5 7c0 28 -5.33301 50.5 -16 67.5s-30.667 25.5 -60 25.5
c-28.667 0 -53.167 -13.667 -73.5 -41s-35.833 -57.333 -46.5 -90c-6 -18 -10.333 -35.167 -13 -51.5s-4 -30.5 -4 -42.5v1zM250.004 741h226l80 -152h-129l-177 152v0z" />
    <glyph glyph-name="oacute" unicode="&#xf3;" horiz-adv-x="685" 
d="M89 194c3.33301 106 37.6689 187.333 103.002 244s137 89.667 215 99c7.33301 1.33301 14.666 2.16602 21.999 2.49902s15 0.5 23 0.5c94.667 -4 160 -26 196 -66s54 -86.333 54 -139v-11c0 -4 -0.333008 -7.66699 -1 -11c0 -18.667 -2.33301 -40.167 -7 -64.5
s-13 -49.166 -25 -74.499c-22 -48 -58.333 -91.667 -109 -131s-121.667 -59 -213 -59c-96.667 0 -163.834 19.667 -201.501 59s-56.5 89.333 -56.5 150v1zM290.003 194c0 -24.667 4.00098 -46 12.001 -64s28 -27 60 -27h5h4c30.667 -0.666992 56.167 13 76.5 41
s35.166 59 44.499 93c2 7.33301 3.66699 14.666 5 21.999s2.33301 15 3 23c0.666992 5.33301 1.16699 10.333 1.5 15s0.5 9.33398 0.5 14.001c0 2 0.166992 4.33301 0.5 7s0.5 5 0.5 7c0 28 -5.33301 50.5 -16 67.5s-30.667 25.5 -60 25.5
c-28.667 0 -53.167 -13.667 -73.5 -41s-35.833 -57.333 -46.5 -90c-6 -18 -10.333 -35.167 -13 -51.5s-4 -30.5 -4 -42.5v1zM412.004 597l136 153h234l-234 -153h-136v0z" />
    <glyph glyph-name="ocircumflex" unicode="&#xf4;" horiz-adv-x="685" 
d="M89 194c3.33301 106 37.6689 187.333 103.002 244s137 89.667 215 99c7.33301 1.33301 14.666 2.16602 21.999 2.49902s15 0.5 23 0.5c94.667 -4 160 -26 196 -66s54 -86.333 54 -139v-11c0 -4 -0.333008 -7.66699 -1 -11c0 -18.667 -2.33301 -40.167 -7 -64.5
s-13 -49.166 -25 -74.499c-22 -48 -58.333 -91.667 -109 -131s-121.667 -59 -213 -59c-96.667 0 -163.834 19.667 -201.501 59s-56.5 89.333 -56.5 150v1zM290.003 194c0 -24.667 4.00098 -46 12.001 -64s28 -27 60 -27h5h4c30.667 -0.666992 56.167 13 76.5 41
s35.166 59 44.499 93c2 7.33301 3.66699 14.666 5 21.999s2.33301 15 3 23c0.666992 5.33301 1.16699 10.333 1.5 15s0.5 9.33398 0.5 14.001c0 2 0.166992 4.33301 0.5 7s0.5 5 0.5 7c0 28 -5.33301 50.5 -16 67.5s-30.667 25.5 -60 25.5
c-28.667 0 -53.167 -13.667 -73.5 -41s-35.833 -57.333 -46.5 -90c-6 -18 -10.333 -35.167 -13 -51.5s-4 -30.5 -4 -42.5v1zM266.004 589l161 161h170l104 -161h-145l-56 81l-97 -81h-137v0z" />
    <glyph glyph-name="otilde" unicode="&#xf5;" horiz-adv-x="685" 
d="M89 194c3.33301 106 37.6689 187.333 103.002 244s137 89.667 215 99c7.33301 1.33301 14.666 2.16602 21.999 2.49902s15 0.5 23 0.5c94.667 -4 160 -26 196 -66s54 -86.333 54 -139v-11c0 -4 -0.333008 -7.66699 -1 -11c0 -18.667 -2.33301 -40.167 -7 -64.5
s-13 -49.166 -25 -74.499c-22 -48 -58.333 -91.667 -109 -131s-121.667 -59 -213 -59c-96.667 0 -163.834 19.667 -201.501 59s-56.5 89.333 -56.5 150v1zM290.003 194c0 -24.667 4.00098 -46 12.001 -64s28 -27 60 -27h5h4c30.667 -0.666992 56.167 13 76.5 41
s35.166 59 44.499 93c2 7.33301 3.66699 14.666 5 21.999s2.33301 15 3 23c0.666992 5.33301 1.16699 10.333 1.5 15s0.5 9.33398 0.5 14.001c0 2 0.166992 4.33301 0.5 7s0.5 5 0.5 7c0 28 -5.33301 50.5 -16 67.5s-30.667 25.5 -60 25.5
c-28.667 0 -53.167 -13.667 -73.5 -41s-35.833 -57.333 -46.5 -90c-6 -18 -10.333 -35.167 -13 -51.5s-4 -30.5 -4 -42.5v1zM225.004 597c6.66699 35.333 23.332 66.165 49.999 92.498s55.667 43.833 87 52.5c6.66699 2 13.5 3.66699 20.5 5s13.833 2 20.5 2
c16.667 0 32 -2.16699 46 -6.5s27.667 -8.83301 41 -13.5c12.667 -5.33301 25.167 -10 37.5 -14s24.5 -6 36.5 -6c16.667 0 29.167 2.66699 37.5 8s14.833 16 19.5 32l89 1c-8.66699 -32.667 -21.167 -59.167 -37.5 -79.5s-33.166 -36.166 -50.499 -47.499
c-16 -9.33301 -31.167 -16.166 -45.5 -20.499s-26.166 -6.5 -35.499 -6.5c-26.667 0 -47.5 2 -62.5 6s-28.167 8.66699 -39.5 14c-2 0.666992 -4 1.66699 -6 3s-4 2.33301 -6 3c-8.66699 4 -17.834 7.33301 -27.501 10s-22.167 4 -37.5 4c-11.333 0 -21.5 -2.66699 -30.5 -8
s-17.5 -16 -25.5 -32l-81 1v0z" />
    <glyph glyph-name="odieresis" unicode="&#xf6;" horiz-adv-x="685" 
d="M89 194c3.33301 106 37.6689 187.333 103.002 244s137 89.667 215 99c7.33301 1.33301 14.666 2.16602 21.999 2.49902s15 0.5 23 0.5c94.667 -4 160 -26 196 -66s54 -86.333 54 -139v-11c0 -4 -0.333008 -7.66699 -1 -11c0 -18.667 -2.33301 -40.167 -7 -64.5
s-13 -49.166 -25 -74.499c-22 -48 -58.333 -91.667 -109 -131s-121.667 -59 -213 -59c-96.667 0 -163.834 19.667 -201.501 59s-56.5 89.333 -56.5 150v1zM290.003 194c0 -24.667 4.00098 -46 12.001 -64s28 -27 60 -27h5h4c30.667 -0.666992 56.167 13 76.5 41
s35.166 59 44.499 93c2 7.33301 3.66699 14.666 5 21.999s2.33301 15 3 23c0.666992 5.33301 1.16699 10.333 1.5 15s0.5 9.33398 0.5 14.001c0 2 0.166992 4.33301 0.5 7s0.5 5 0.5 7c0 28 -5.33301 50.5 -16 67.5s-30.667 25.5 -60 25.5
c-28.667 0 -53.167 -13.667 -73.5 -41s-35.833 -57.333 -46.5 -90c-6 -18 -10.333 -35.167 -13 -51.5s-4 -30.5 -4 -42.5v1zM242.004 597l32 161h178l-33 -161h-177v0zM508.004 597l33 161h177l-33 -161h-177v0z" />
    <glyph glyph-name="Aacute" unicode="&#xf7;" 
 />
    <glyph glyph-name="OE" unicode="&#xf8;" horiz-adv-x="685" 
d="M137 48c-11.333 8.66699 -20.6689 19.001 -28.002 31.001s-12.666 24.667 -15.999 38c-6 18 -9.5 35.5 -10.5 52.5s-1.5 30.167 -1.5 39.5c0 92.667 35.5 171 106.5 235s159.167 96 264.5 96c48.667 0 83.667 -3.5 105 -10.5s39.666 -14.5 54.999 -22.5l81 74l48 -40
l-79 -73c18.667 -21.333 31.834 -43.5 39.501 -66.5s11.5 -46.833 11.5 -71.5c0 -8 -0.333008 -16.333 -1 -25s-2 -17.334 -4 -26.001c-3.33301 -21.333 -9.16602 -42.833 -17.499 -64.5s-17.833 -42.167 -28.5 -61.5c-23.333 -42 -63.833 -80.667 -121.5 -116
s-121.167 -53.333 -190.5 -54h-4.5h-4.5c-2 0.666992 -3.83301 1 -5.5 1h-4.5h-8h-7c-22 0.666992 -43.5 3.5 -64.5 8.5s-40.167 12.5 -57.5 22.5l-98 -96l-48 49l89 80v0zM305.997 129.001c8.66699 -8.66699 17.8311 -15.001 27.498 -19.001s19.834 -6 30.501 -6
c13.333 0 26.333 3 39 9s23.334 13.667 32.001 23c8.66699 8.66699 17 20.667 25 36s15 31 21 47c6 17.333 10.833 33.833 14.5 49.5s5.5 27.5 5.5 35.5v5.5c0 1.66699 -0.333008 2.83398 -1 3.50098l-194 -184v0zM289.994 194l202.001 201
c-8.66699 8.66699 -18.334 15.334 -29.001 20.001s-21.334 7 -32.001 7c-4.66699 0 -9.66699 -0.5 -15 -1.5s-10.666 -2.5 -15.999 -4.5c-12 -4.66699 -24 -12.334 -36 -23.001s-23 -24 -33 -40c-16.667 -28 -27.667 -55.833 -33 -83.5s-8 -53.167 -8 -76.5v1z" />
    <glyph glyph-name="ugrave" unicode="&#xf9;" horiz-adv-x="685" 
d="M113 225l64.002 291.003h194l-57 -291c-2 -9.33301 -3.5 -17.833 -4.5 -25.5s-1.5 -14.834 -1.5 -21.501c0 -23.333 5.16699 -40.333 15.5 -51s22.5 -16 36.5 -16c4 0 8.33301 0.333008 13 1s9 2 13 4c17.333 6 33.166 17.167 47.499 33.5s23.166 36.166 26.499 59.499
l64 307h202l-105 -516h-202l8 56c-14.667 -15.333 -31 -28 -49 -38s-36.333 -17.667 -55 -23c-12 -3.33301 -24.333 -6 -37 -8s-24.667 -3 -36 -3c-50 6 -87.667 20 -113 42s-38 56 -38 102c0 13.333 1 28.166 3 44.499s5.66699 33.5 11 51.5v1zM250.002 750.003h226
l80 -153h-129l-177 153v0z" />
    <glyph glyph-name="uacute" unicode="&#xfa;" horiz-adv-x="685" 
d="M113 225l64.002 291.003h194l-57 -291c-2 -9.33301 -3.5 -17.833 -4.5 -25.5s-1.5 -14.834 -1.5 -21.501c0 -23.333 5.16699 -40.333 15.5 -51s22.5 -16 36.5 -16c4 0 8.33301 0.333008 13 1s9 2 13 4c17.333 6 33.166 17.167 47.499 33.5s23.166 36.166 26.499 59.499
l64 307h202l-105 -516h-202l8 56c-14.667 -15.333 -31 -28 -49 -38s-36.333 -17.667 -55 -23c-12 -3.33301 -24.333 -6 -37 -8s-24.667 -3 -36 -3c-50 6 -87.667 20 -113 42s-38 56 -38 102c0 13.333 1 28.166 3 44.499s5.66699 33.5 11 51.5v1zM412.002 597.003l136 153
h234l-234 -153h-136v0z" />
    <glyph glyph-name="ucircumflex" unicode="&#xfb;" horiz-adv-x="685" 
d="M113 225l64.002 291.003h194l-57 -291c-2 -9.33301 -3.5 -17.833 -4.5 -25.5s-1.5 -14.834 -1.5 -21.501c0 -23.333 5.16699 -40.333 15.5 -51s22.5 -16 36.5 -16c4 0 8.33301 0.333008 13 1s9 2 13 4c17.333 6 33.166 17.167 47.499 33.5s23.166 36.166 26.499 59.499
l64 307h202l-105 -516h-202l8 56c-14.667 -15.333 -31 -28 -49 -38s-36.333 -17.667 -55 -23c-12 -3.33301 -24.333 -6 -37 -8s-24.667 -3 -36 -3c-50 6 -87.667 20 -113 42s-38 56 -38 102c0 13.333 1 28.166 3 44.499s5.66699 33.5 11 51.5v1zM266.002 597.003l161 161
h170l104 -161h-145l-56 80l-97 -80h-137v0z" />
    <glyph glyph-name="udieresis" unicode="&#xfc;" horiz-adv-x="685" 
d="M113 225l64.002 291.003h194l-57 -291c-2 -9.33301 -3.5 -17.833 -4.5 -25.5s-1.5 -14.834 -1.5 -21.501c0 -23.333 5.16699 -40.333 15.5 -51s22.5 -16 36.5 -16c4 0 8.33301 0.333008 13 1s9 2 13 4c17.333 6 33.166 17.167 47.499 33.5s23.166 36.166 26.499 59.499
l64 307h202l-105 -516h-202l8 56c-14.667 -15.333 -31 -28 -49 -38s-36.333 -17.667 -55 -23c-12 -3.33301 -24.333 -6 -37 -8s-24.667 -3 -36 -3c-50 6 -87.667 20 -113 42s-38 56 -38 102c0 13.333 1 28.166 3 44.499s5.66699 33.5 11 51.5v1zM250.002 589.003l33 161h177
l-33 -161h-177v0zM516.002 589.003l32 161h178l-33 -161h-177v0z" />
    <glyph glyph-name="yacute" unicode="&#xfd;" 
 />
    <glyph glyph-name="glyph237" unicode="&#xfe;" horiz-adv-x="685" 
 />
    <glyph glyph-name="Egrave" unicode="&#xff;" horiz-adv-x="628" 
d="M210 -16l-114 532h218l25 -362l193 362h194l-443 -718h-194l121 186v0zM218 589l32 161h177l-32 -161h-177v0zM483 589l33 161h177l-31 -161h-179v0z" />
    <glyph glyph-name="Abreve" unicode="&#x102;" 
 />
    <glyph glyph-name="abreve" unicode="&#x103;" 
 />
    <glyph glyph-name="Aogonek" unicode="&#x104;" 
 />
    <glyph glyph-name="aogonek" unicode="&#x105;" 
 />
    <glyph glyph-name="Cacute" unicode="&#x106;" 
 />
    <glyph glyph-name="cacute" unicode="&#x107;" 
 />
    <glyph glyph-name="Ccaron" unicode="&#x10c;" 
 />
    <glyph glyph-name="ccaron" unicode="&#x10d;" 
 />
    <glyph glyph-name="Dcaron" unicode="&#x10e;" 
 />
    <glyph glyph-name="dcaron" unicode="&#x10f;" 
 />
    <glyph glyph-name="Dcroat" unicode="&#x110;" 
 />
    <glyph glyph-name="dcroat" unicode="&#x111;" 
 />
    <glyph glyph-name="Eogonek" unicode="&#x118;" 
 />
    <glyph glyph-name="eogonek" unicode="&#x119;" 
 />
    <glyph glyph-name="Ecaron" unicode="&#x11a;" 
 />
    <glyph glyph-name="ecaron" unicode="&#x11b;" 
 />
    <glyph glyph-name="Gbreve" unicode="&#x11e;" 
 />
    <glyph glyph-name="gbreve" unicode="&#x11f;" 
 />
    <glyph glyph-name="Idotaccent" unicode="&#x130;" 
 />
    <glyph glyph-name="thorn" unicode="&#x131;" 
d="M65 0l112 516h202l-113 -516h-201v0z" />
    <glyph glyph-name="Lacute" unicode="&#x139;" 
 />
    <glyph glyph-name="lacute" unicode="&#x13a;" 
 />
    <glyph glyph-name="Lcaron" unicode="&#x13d;" 
 />
    <glyph glyph-name="lcaron" unicode="&#x13e;" 
 />
    <glyph glyph-name="Ldot" unicode="&#x13f;" 
 />
    <glyph glyph-name="ldot" unicode="&#x140;" 
 />
    <glyph glyph-name="glyph225" unicode="&#x141;" horiz-adv-x="512" 
 />
    <glyph glyph-name="glyph226" unicode="&#x142;" horiz-adv-x="512" 
 />
    <glyph glyph-name="Nacute" unicode="&#x143;" 
 />
    <glyph glyph-name="nacute" unicode="&#x144;" 
 />
    <glyph glyph-name="Ncaron" unicode="&#x147;" 
 />
    <glyph glyph-name="ncaron" unicode="&#x148;" 
 />
    <glyph glyph-name="Ohungarumlaut" unicode="&#x150;" 
 />
    <glyph glyph-name="ohungarumlaut" unicode="&#x151;" 
 />
    <glyph glyph-name="fi" unicode="&#x152;" horiz-adv-x="1024" 
d="M104 274c0 25.333 3.16699 56 9.5 92s16.833 72.667 31.5 110c27.333 65.333 71.833 125.833 133.5 181.5s149.167 86.167 262.5 91.5l579 1l-23 -145h-275l-31 -153h249l-32 -154h-250l-32 -153h282l-24 -145h-501h-9.5c-3 0 -6.16699 -0.333008 -9.5 -1h-8.5h-10.5
c-102 0 -183.167 19.167 -243.5 57.5s-92.833 110.5 -97.5 216.5v1zM508 137l103.998 474.997c-8 1.33301 -16.167 2.5 -24.5 3.5s-16.5 1.5 -24.5 1.5c-66 0.666992 -122.5 -30.166 -169.5 -92.499s-70.5 -138.166 -70.5 -227.499c0 -64.667 14.333 -107.667 43 -129
s60.334 -32.666 95.001 -33.999h4h4c6.66699 0 13.334 0.166992 20.001 0.5s13 0.833008 19 1.5v1z" />
    <glyph glyph-name="fl" unicode="&#x153;" horiz-adv-x="1024" 
d="M81 202l0.000976562 1.99805c0.666992 84 32.167 161.333 94.5 232s151.5 107.667 267.5 111c36 0 69 -5.66699 99 -17s53.667 -23.666 71 -36.999c8 -6 14.667 -12 20 -18s9.33301 -11.333 12 -16c2 2.66699 4.33301 5.5 7 8.5s6 5.83301 10 8.5
c17.333 18 40.666 34.333 69.999 49s65 22 107 22c10.667 0 22.667 -0.833008 36 -2.5s26.333 -4.5 39 -8.5c33.333 -9.33301 64.166 -27.333 92.499 -54s42.5 -65.334 42.5 -116.001v-6.5v-6.5c0 -11.333 -0.833008 -29.833 -2.5 -55.5s-6.5 -52.5 -14.5 -80.5l-362 1
c-0.666992 -5.33301 -1.16699 -10.166 -1.5 -14.499s-0.5 -8.83301 -0.5 -13.5c0 -2 -0.166992 -3.83301 -0.5 -5.5s-0.5 -3.5 -0.5 -5.5c0 -24.667 5 -43.5 15 -56.5s29.667 -19.5 59 -19.5c28.667 0 51.167 7.16699 67.5 21.5s26.5 31.5 30.5 51.5l193 1
c-12.667 -48 -39.667 -87.833 -81 -119.5s-85.666 -52.834 -132.999 -63.501c-12.667 -3.33301 -25.5 -5.83301 -38.5 -7.5s-25.833 -2.5 -38.5 -2.5c-10.667 0 -25.167 0.5 -43.5 1.5s-37.833 5.16699 -58.5 12.5c-17.333 4.66699 -34 13 -50 25s-29.667 28.333 -41 49
l-15.5 -16c-5.66699 -6 -12.167 -11.667 -19.5 -17c-17.333 -14.667 -41.333 -27.5 -72 -38.5s-73 -16.5 -127 -16.5c-8 0 -16.333 0.333008 -25 1l-26 2c-46 6.66699 -87.833 25.334 -125.5 56.001s-56.5 83.334 -56.5 158.001v1zM290.001 241.998
c-0.666992 -6.66699 -1.16504 -13.166 -1.49805 -19.499s-0.5 -12.833 -0.5 -19.5c0 -26 4.5 -49.167 13.5 -69.5s26.5 -30.5 52.5 -30.5c36 0 66 15.667 90 47s40 75.333 48 132c1.33301 8.66699 2.16602 16.667 2.49902 24s0.5 14.666 0.5 21.999
c0 38 -6.83301 62.333 -20.5 73s-28.834 16.334 -45.501 17.001h-5.5h-4.5c-28 0 -53.5 -14.333 -76.5 -43s-40.5 -73.334 -52.5 -134.001v1zM701.003 338.999h178.002v16.5c0 6.33301 -0.333008 12.833 -1 19.5c-2 17.333 -7.83301 32.833 -17.5 46.5
s-27.834 20.5 -54.501 20.5c-24 0 -46.333 -9.33301 -67 -28s-33.334 -44 -38.001 -76v1z" />
    <glyph glyph-name="Racute" unicode="&#x154;" 
 />
    <glyph glyph-name="racute" unicode="&#x155;" 
 />
    <glyph glyph-name="Rcaron" unicode="&#x158;" 
 />
    <glyph glyph-name="rcaron" unicode="&#x159;" 
 />
    <glyph glyph-name="Sacute" unicode="&#x15a;" 
 />
    <glyph glyph-name="sacute" unicode="&#x15b;" 
 />
    <glyph glyph-name="Scedilla" unicode="&#x15e;" 
 />
    <glyph glyph-name="scedilla" unicode="&#x15f;" 
 />
    <glyph glyph-name="glyph227" unicode="&#x160;" horiz-adv-x="512" 
 />
    <glyph glyph-name="glyph228" unicode="&#x161;" horiz-adv-x="512" 
 />
    <glyph glyph-name="uni0162" unicode="&#x162;" 
 />
    <glyph glyph-name="uni0163" unicode="&#x163;" 
 />
    <glyph glyph-name="Tcaron" unicode="&#x164;" 
 />
    <glyph glyph-name="tcaron" unicode="&#x165;" 
 />
    <glyph glyph-name="Uring" unicode="&#x16e;" 
 />
    <glyph glyph-name="uring" unicode="&#x16f;" 
 />
    <glyph glyph-name="Uhungarumlaut" unicode="&#x170;" 
 />
    <glyph glyph-name="uhungarumlaut" unicode="&#x171;" 
 />
    <glyph glyph-name="Iacute" unicode="&#x178;" horiz-adv-x="512" 
 />
    <glyph glyph-name="Zacute" unicode="&#x179;" 
 />
    <glyph glyph-name="zacute" unicode="&#x17a;" 
 />
    <glyph glyph-name="Zdotaccent" unicode="&#x17b;" 
 />
    <glyph glyph-name="zdotaccent" unicode="&#x17c;" 
 />
    <glyph glyph-name="Zcaron" unicode="&#x17d;" 
 />
    <glyph glyph-name="zcaron" unicode="&#x17e;" 
 />
    <glyph glyph-name="quotedblright" unicode="&#x192;" horiz-adv-x="378" 
d="M73 0l160 750h129l-160 -750h-129v0z" />
    <glyph glyph-name="uni02BA" unicode="&#x2ba;" horiz-adv-x="512" 
 />
    <glyph glyph-name="arrowright" unicode="&#x2c6;" 
d="M96 581c6.66699 35.333 23.332 66.168 49.999 92.501s55.667 44.166 87 53.499c6.66699 2 13.5 3.5 20.5 4.5s13.833 1.5 20.5 1.5c16.667 0 32 -2 46 -6s27.667 -8.66699 41 -14l37.5 -14c12.333 -4.66699 24.5 -7 36.5 -7c16.667 0 29.167 2.83301 37.5 8.5
s14.833 16.5 19.5 32.5l89 1c-8.66699 -32.667 -21.167 -59.167 -37.5 -79.5s-33.166 -36.5 -50.499 -48.5c-16 -9.33301 -31.167 -16 -45.5 -20s-26.166 -6 -35.499 -6c-26.667 0 -47.5 2 -62.5 6s-28.167 8.66699 -39.5 14c-2 0.666992 -4 1.5 -6 2.5s-4 1.83301 -6 2.5
c-8.66699 4 -17.834 7.5 -27.501 10.5s-22.167 4.5 -37.5 4.5c-11.333 0 -21.5 -2.83301 -30.5 -8.5s-17.5 -16.167 -25.5 -31.5l-81 1v0z" />
    <glyph glyph-name="glyph224" unicode="&#x2c7;" horiz-adv-x="512" 
 />
    <glyph glyph-name="house" unicode="&#x2c9;" horiz-adv-x="512" 
 />
    <glyph glyph-name="endash" unicode="&#x2d8;" 
d="M129 758h81.001c0 -28.667 10.333 -49.5 31 -62.5s45 -19.5 73 -19.5c27.333 0 52.333 8.16699 75 24.5s40 34.166 52 53.499l1.5 1.5c0.333008 0.333008 0.5 0.833008 0.5 1.5l81 1c-3.33301 -9.33301 -7.16602 -19.166 -11.499 -29.499s-9.5 -20.833 -15.5 -31.5
c-16.667 -27.333 -40.667 -52.333 -72 -75s-76.333 -34 -135 -34c-50.667 0 -91.334 9.66699 -122.001 29s-46.334 49 -47.001 89c0 7.33301 0.666992 15.333 2 24s3.33301 17.667 6 27v1z" />
    <glyph glyph-name="sfthyphen" unicode="&#x2d9;" horiz-adv-x="512" 
 />
    <glyph glyph-name="filledbox" unicode="&#x2da;" 
d="M194 645c4 31.333 17.001 60.498 39.001 87.498s57.333 40.5 106 40.5c36 0 59.667 -10 71 -30s17 -42.333 17 -67c0 -5.33301 -0.5 -10.666 -1.5 -15.999s-2.16699 -10.666 -3.5 -15.999c-8 -24.667 -23.833 -47 -47.5 -67s-51.834 -30 -84.501 -30
c-32 0 -56 9.16699 -72 27.5s-24 41.5 -24 69.5v1zM266.001 661.998l-0.000976562 -3.5v-2.5c-0.666992 -0.666992 -1 -1.33398 -1 -2.00098v-2c0 -12.667 4 -22.334 12 -29.001s16.667 -10 26 -10c2 0 4 0.166992 6 0.5s4 0.833008 6 1.5c10 2 19.5 7.5 28.5 16.5
s15.167 21.5 18.5 37.5v3v2c0.666992 10 -3.16602 18 -11.499 24s-17.833 9 -28.5 9h-3.5h-3.5c-11.333 -1.33301 -21.833 -5.66602 -31.5 -12.999s-15.5 -18.666 -17.5 -33.999v2z" />
    <glyph glyph-name="glyph223" unicode="&#x2db;" horiz-adv-x="512" 
 />
    <glyph glyph-name="onehalf" unicode="&#x2dc;" 
d="M81 572l161 162h170l104 -162h-145l-57 81l-96 -81h-137v0z" />
    <glyph glyph-name="Gamma" unicode="&#x393;" 
 />
    <glyph glyph-name="Theta" unicode="&#x398;" 
 />
    <glyph glyph-name="exclamdown" unicode="&#x3a3;" 
 />
    <glyph glyph-name="Phi" unicode="&#x3a6;" 
 />
    <glyph glyph-name="Atilde" unicode="&#x3a9;" 
 />
    <glyph glyph-name="alpha" unicode="&#x3b1;" 
 />
    <glyph glyph-name="delta" unicode="&#x3b4;" 
 />
    <glyph glyph-name="epsilon" unicode="&#x3b5;" 
 />
    <glyph glyph-name="guillemotleft" unicode="&#x3c0;" 
 />
    <glyph glyph-name="sigma" unicode="&#x3c3;" 
 />
    <glyph glyph-name="tau" unicode="&#x3c4;" 
 />
    <glyph glyph-name="phi" unicode="&#x3c6;" 
 />
    <glyph glyph-name="glyph259" unicode="&#x2013;" horiz-adv-x="516" 
d="M40 210l25 137h516l-17 -137h-524v0z" />
    <glyph glyph-name="periodcentered" unicode="&#x2014;" horiz-adv-x="1024" 
d="M65 339h1024h8l-25 -129h-1024h-8l25 129v0z" />
    <glyph glyph-name="underscoredbl" unicode="&#x2017;" 
 />
    <glyph glyph-name="Acircumflex" unicode="&#x2018;" 
d="M121 468l177 282h154l-121 -282h-210v0z" />
    <glyph glyph-name="Ecircumflex" unicode="&#x2019;" 
d="M137 468l129 273h202l-178 -273h-153v0z" />
    <glyph glyph-name="Ugrave" unicode="&#x201a;" 
 />
    <glyph glyph-name="quotedblbase" unicode="&#x201c;" horiz-adv-x="685" 
d="M202 492l169 249h137l-113 -249h-193v0zM452 492l160 249h146l-121 -249h-185v0z" />
    <glyph glyph-name="perthousand" unicode="&#x201d;" horiz-adv-x="685" 
d="M194 500l120 250h186l-169 -250h-137v0zM435 500l121 250h194l-169 -250h-146v0z" />
    <glyph glyph-name="dotlessi" unicode="&#x201e;" horiz-adv-x="685" 
d="M73 -96l112 250h186l-161 -250h-137v0zM314 -96l113 250h185l-160 -250h-138v0z" />
    <glyph glyph-name="dagger" unicode="&#x2020;" horiz-adv-x="685" 
d="M250 0l97 443h-170l33 146h169l33 152h177l-33 -152h170l-33 -146h-169l-89 -443h-185v0z" />
    <glyph glyph-name="Uacute" unicode="&#x2021;" horiz-adv-x="685" 
d="M314 298l33 170h-162l25 137h169l33 161h185l-33 -161h162l-25 -137h-169l-32 -170h162l-25 -137h-169l-33 -161h-177l32 161h-169l24 137h169v0z" />
    <glyph glyph-name="glyph262" unicode="&#x2022;" horiz-adv-x="516" 
d="M104 177l33 162h194l-33 -162h-194v0z" />
    <glyph glyph-name="fraction" unicode="&#x2026;" horiz-adv-x="1024" 
d="M73 0l31 161h194l-32 -161h-193v0zM419 0l33 161h193l-33 -161h-193v0zM758 0l33 161h193l-33 -161h-193v0z" />
    <glyph glyph-name="circumflex" unicode="&#x2030;" horiz-adv-x="1024" 
d="M403 154c11.333 53.333 32.833 97.502 64.5 132.502s70.5 52.5 116.5 52.5h3.5h3.5c0.666992 -0.666992 1.66699 -1 3 -1h3c28 0 53.833 -9.33301 77.5 -28s35.5 -52.334 35.5 -101.001v-9.5c0 -3 -0.333008 -6.5 -1 -10.5c-3.33301 -54 -22.5 -103.167 -57.5 -147.5
s-82.833 -66.5 -143.5 -66.5c-27.333 0 -52.5 11.167 -75.5 33.5s-34.5 54.166 -34.5 95.499c0 7.33301 0.333008 15 1 23s2 16.667 4 26v1zM597 161.002c1.33301 4 2.5 8.83203 3.5 14.499s1.5 11.834 1.5 18.501c0.666992 1.33301 1 3 1 5v6
c0 11.333 -2.16699 21.5 -6.5 30.5s-12.5 13.5 -24.5 13.5s-23.333 -9.16699 -34 -27.5s-18.334 -38.5 -23.001 -60.5c-2 -6.66699 -3.33301 -13.5 -4 -20.5s-1 -13.5 -1 -19.5c-0.666992 -13.333 1.5 -24.833 6.5 -34.5s13.167 -14.5 24.5 -14.5
c13.333 0 24.166 7.33301 32.499 22s14.833 30.667 19.5 48c0.666992 2.66699 1.33398 5.66699 2.00098 9s1.33398 6.33301 2.00098 9v1zM750 129.001c1.33301 10 3.16699 21.332 5.5 33.999s5.5 25.334 9.5 38.001c11.333 34 31.333 65.333 60 94s70.667 43 126 43
c36 0 63.833 -11.167 83.5 -33.5s29.5 -51.5 29.5 -87.5c-4 -72.667 -22 -129.667 -54 -171s-78.667 -62 -140 -62c-56 0 -90 15 -102 45s-18 63 -18 99v1zM951.001 177c1.33301 4.66699 2.16699 9.49707 2.5 14.4971s0.5 9.83301 0.5 14.5
c0 14.667 -2.16699 26.834 -6.5 36.501s-10.833 14.5 -19.5 14.5c-12 0 -23.667 -9.66699 -35 -29s-20 -40.666 -26 -63.999c-2 -7.33301 -3.5 -14.666 -4.5 -21.999s-1.5 -14.333 -1.5 -21c0 -12.667 2 -23.667 6 -33s10.667 -14.666 20 -15.999h1h1l1 -1h1
c10.667 0 20.167 6.83301 28.5 20.5s15.166 28.5 20.499 44.5c2.66699 6.66699 4.83398 13.667 6.50098 21s3.16699 13.666 4.5 18.999v1zM56.002 -0.00292969l597 718h105l-597 -718h-105v0zM129.002 515.997l2.00098 10.499
c0.666992 3.66699 1.33398 7.83398 2.00098 12.501c10 44.667 29.167 85.5 57.5 122.5s72.5 55.5 132.5 55.5c41.333 0 70.333 -8.5 87 -25.5s26.667 -35.833 30 -56.5c1.33301 -5.33301 2.16602 -10.666 2.49902 -15.999s0.5 -10.333 0.5 -15
c0 -12.667 -0.833008 -26.5 -2.5 -41.5s-4.83398 -30.167 -9.50098 -45.5c-10 -37.333 -29 -71.833 -57 -103.5s-69.333 -49.167 -124 -52.5c-44 0 -75.333 11.167 -94 33.5s-28 53.166 -28 92.499v9v10c0 1.33301 0.166992 2.83301 0.5 4.5s0.5 3.16699 0.5 4.5v1z
M323.003 540.996c1.33301 4 2.33008 8.5 2.99707 13.5s1 10.167 1 15.5c0.666992 2.66699 1 5.33398 1 8.00098v8c0 13.333 -1.83301 25 -5.5 35s-9.16699 15 -16.5 15c-1.33301 0 -2.66602 -0.166992 -3.99902 -0.5s-2.66602 -0.833008 -3.99902 -1.5
c-10 -4 -20 -15.167 -30 -33.5s-17.667 -37.5 -23 -57.5c-2 -8.66699 -3.66699 -17.334 -5 -26.001s-2 -16.667 -2 -24c0 -11.333 1.83301 -21.166 5.5 -29.499s9.83398 -12.5 18.501 -12.5v0h2h2v0c13.333 0 24.333 7.66699 33 23s15 31.666 19 48.999
c0.666992 2.66699 1.5 5.5 2.5 8.5s1.83301 5.83301 2.5 8.5v1z" />
    <glyph glyph-name="Igrave" unicode="&#x2039;" 
d="M81 283l177 200h161l-169 -200l81 -210h-162l-88 210v0z" />
    <glyph glyph-name="Oacute" unicode="&#x203a;" 
d="M202 274l-81 209h169l89 -209l-177 -201h-170l170 201v0z" />
    <glyph glyph-name="exclamdbl" unicode="&#x203c;" 
 />
    <glyph glyph-name="uni207F" unicode="&#x207f;" 
 />
    <glyph glyph-name="franc" unicode="&#x20a3;" 
 />
    <glyph glyph-name="peseta" unicode="&#x20a7;" 
 />
    <glyph glyph-name="trademark" unicode="&#x2122;" horiz-adv-x="975" 
d="M210 323l73 330h-129l15 88h363l-16 -88h-137l-65 -330h-104v0zM483 323l89 418h154l40 -233l137 233h153l-88 -418h-98l73 330l-185 -330h-65l-40 330l-72 -330h-98v0z" />
    <glyph glyph-name="arrowleft" unicode="&#x2190;" 
 />
    <glyph glyph-name="arrowup" unicode="&#x2191;" 
 />
    <glyph glyph-name="glyph257" unicode="&#x2192;" horiz-adv-x="512" 
 />
    <glyph glyph-name="arrowdown" unicode="&#x2193;" 
 />
    <glyph glyph-name="arrowboth" unicode="&#x2194;" 
 />
    <glyph glyph-name="arrowupdn" unicode="&#x2195;" 
 />
    <glyph glyph-name="arrowupdnbse" unicode="&#x21a8;" 
 />
    <glyph glyph-name="questiondown" unicode="&#x2202;" 
 />
    <glyph glyph-name="quoteright" unicode="&#x2206;" 
 />
    <glyph glyph-name="florin" unicode="&#x220f;" 
 />
    <glyph glyph-name="minus" unicode="&#x2212;" 
 />
    <glyph glyph-name="Icircumflex" unicode="&#x2215;" horiz-adv-x="512" 
 />
    <glyph glyph-name="Ucircumflex" unicode="&#x2219;" 
d="M145 339c0 56 21.502 107.332 64.502 153.999s96.833 70 161.5 70c51.333 0 88.166 -13.333 110.499 -40s35.833 -56 40.5 -88c0.666992 -5.33301 1.16699 -10.666 1.5 -15.999s0.5 -11 0.5 -17c0 -56.667 -23.833 -107.167 -71.5 -151.5s-101.834 -66.5 -162.501 -66.5
c-44 0 -79.167 15.667 -105.5 47s-39.5 67 -39.5 107v1z" />
    <glyph glyph-name="quotedblleft" unicode="&#x221a;" 
 />
    <glyph glyph-name="yen" unicode="&#x221e;" 
 />
    <glyph glyph-name="orthogonal" unicode="&#x221f;" 
 />
    <glyph glyph-name="intersection" unicode="&#x2229;" 
 />
    <glyph glyph-name="guillemotright" unicode="&#x222b;" 
 />
    <glyph glyph-name="quoteleft" unicode="&#x2248;" 
 />
    <glyph glyph-name="AE" unicode="&#x2260;" 
 />
    <glyph glyph-name="equivalence" unicode="&#x2261;" 
 />
    <glyph glyph-name="ordfeminine" unicode="&#x2264;" 
 />
    <glyph glyph-name="ordmasculine" unicode="&#x2265;" 
 />
    <glyph glyph-name="glyph258" unicode="&#x2302;" 
 />
    <glyph glyph-name="revlogicalnot" unicode="&#x2310;" 
 />
    <glyph glyph-name="integraltp" unicode="&#x2320;" 
 />
    <glyph glyph-name="integralbt" unicode="&#x2321;" 
 />
    <glyph glyph-name="SF100000" unicode="&#x2500;" 
 />
    <glyph glyph-name="SF110000" unicode="&#x2502;" 
 />
    <glyph glyph-name="SF010000" unicode="&#x250c;" 
 />
    <glyph glyph-name="SF030000" unicode="&#x2510;" 
 />
    <glyph glyph-name="SF020000" unicode="&#x2514;" 
 />
    <glyph glyph-name="SF040000" unicode="&#x2518;" 
 />
    <glyph glyph-name="SF080000" unicode="&#x251c;" 
 />
    <glyph glyph-name="SF090000" unicode="&#x2524;" 
 />
    <glyph glyph-name="SF060000" unicode="&#x252c;" 
 />
    <glyph glyph-name="SF070000" unicode="&#x2534;" 
 />
    <glyph glyph-name="SF050000" unicode="&#x253c;" 
 />
    <glyph glyph-name="SF430000" unicode="&#x2550;" 
 />
    <glyph glyph-name="SF240000" unicode="&#x2551;" 
 />
    <glyph glyph-name="SF510000" unicode="&#x2552;" 
 />
    <glyph glyph-name="SF520000" unicode="&#x2553;" 
 />
    <glyph glyph-name="SF390000" unicode="&#x2554;" 
 />
    <glyph glyph-name="SF220000" unicode="&#x2555;" 
 />
    <glyph glyph-name="SF210000" unicode="&#x2556;" 
 />
    <glyph glyph-name="SF250000" unicode="&#x2557;" 
 />
    <glyph glyph-name="SF500000" unicode="&#x2558;" 
 />
    <glyph glyph-name="SF490000" unicode="&#x2559;" 
 />
    <glyph glyph-name="SF380000" unicode="&#x255a;" 
 />
    <glyph glyph-name="SF280000" unicode="&#x255b;" 
 />
    <glyph glyph-name="SF270000" unicode="&#x255c;" 
 />
    <glyph glyph-name="SF260000" unicode="&#x255d;" 
 />
    <glyph glyph-name="SF360000" unicode="&#x255e;" 
 />
    <glyph glyph-name="SF370000" unicode="&#x255f;" 
 />
    <glyph glyph-name="SF420000" unicode="&#x2560;" 
 />
    <glyph glyph-name="SF190000" unicode="&#x2561;" 
 />
    <glyph glyph-name="SF200000" unicode="&#x2562;" 
 />
    <glyph glyph-name="SF230000" unicode="&#x2563;" 
 />
    <glyph glyph-name="SF470000" unicode="&#x2564;" 
 />
    <glyph glyph-name="SF480000" unicode="&#x2565;" 
 />
    <glyph glyph-name="SF410000" unicode="&#x2566;" 
 />
    <glyph glyph-name="SF450000" unicode="&#x2567;" 
 />
    <glyph glyph-name="SF460000" unicode="&#x2568;" 
 />
    <glyph glyph-name="SF400000" unicode="&#x2569;" 
 />
    <glyph glyph-name="SF540000" unicode="&#x256a;" 
 />
    <glyph glyph-name="SF530000" unicode="&#x256b;" 
 />
    <glyph glyph-name="SF440000" unicode="&#x256c;" 
 />
    <glyph glyph-name="upblock" unicode="&#x2580;" 
 />
    <glyph glyph-name="dnblock" unicode="&#x2584;" 
 />
    <glyph glyph-name="block" unicode="&#x2588;" 
 />
    <glyph glyph-name="lfblock" unicode="&#x258c;" 
 />
    <glyph glyph-name="rtblock" unicode="&#x2590;" 
 />
    <glyph glyph-name="ltshade" unicode="&#x2591;" 
 />
    <glyph glyph-name="shade" unicode="&#x2592;" 
 />
    <glyph glyph-name="dkshade" unicode="&#x2593;" 
 />
    <glyph glyph-name="glyph261" unicode="&#x25a0;" horiz-adv-x="512" 
 />
    <glyph glyph-name="filledrect" unicode="&#x25ac;" 
 />
    <glyph glyph-name="triagup" unicode="&#x25b2;" 
 />
    <glyph glyph-name="triagrt" unicode="&#x25ba;" 
 />
    <glyph glyph-name="triagdn" unicode="&#x25bc;" 
 />
    <glyph glyph-name="triaglf" unicode="&#x25c4;" 
 />
    <glyph glyph-name="Edieresis" unicode="&#x25ca;" 
 />
    <glyph glyph-name="circle" unicode="&#x25cb;" 
 />
    <glyph glyph-name="invbullet" unicode="&#x25d8;" 
 />
    <glyph glyph-name="invcircle" unicode="&#x25d9;" 
 />
    <glyph glyph-name="smileface" unicode="&#x263a;" 
 />
    <glyph glyph-name="invsmileface" unicode="&#x263b;" 
 />
    <glyph glyph-name="sun" unicode="&#x263c;" 
 />
    <glyph glyph-name="female" unicode="&#x2640;" 
 />
    <glyph glyph-name="male" unicode="&#x2642;" 
 />
    <glyph glyph-name="spade" unicode="&#x2660;" 
 />
    <glyph glyph-name="club" unicode="&#x2663;" 
 />
    <glyph glyph-name="heart" unicode="&#x2665;" 
 />
    <glyph glyph-name="diamond" unicode="&#x2666;" 
 />
    <glyph glyph-name="musicalnote" unicode="&#x266a;" 
 />
    <glyph glyph-name="musicalnotedbl" unicode="&#x266b;" 
 />
    <glyph glyph-name="Scaron" unicode="&#xf000;" 
 />
    <glyph glyph-name="Ocircumflex" unicode="&#xf001;" horiz-adv-x="741" 
d="M113 0l81.001 387.001h-98l25 129h104c0.666992 4 1.16699 8.66699 1.5 14s1.16602 10.333 2.49902 15c7.33301 44 24.666 84.833 51.999 122.5s68 61.834 122 72.501c8 1.33301 18.833 2.5 32.5 3.5s27.834 1.5 42.501 1.5h12h12
c18 -0.666992 35.5 -1.83398 52.5 -3.50098s31.167 -4.5 42.5 -8.5l-25 -128c-9.33301 4 -19 7.66699 -29 11s-19.667 5 -29 5c-6.66699 0 -13.167 -0.833008 -19.5 -2.5s-12.5 -4.16699 -18.5 -7.5c-16 -7.33301 -28.333 -19.5 -37 -36.5s-15 -35.167 -19 -54.5
c0 -1.33301 -0.166992 -2.33301 -0.5 -3s-0.5 -1.33398 -0.5 -2.00098l122 1l-25 -129h-121l-81 -387h-201v0zM468.001 0.000976562l113 532h201l-105 -532h-209v0zM597.001 612.001l32 129h201l-31 -129h-202v0z" />
    <glyph glyph-name="Ograve" unicode="&#xf002;" horiz-adv-x="741" 
d="M113 0l81.001 387.001h-98l25 129h104c0.666992 4 1.16699 8.66699 1.5 14s1.16602 10.333 2.49902 15c7.33301 44 24.666 84.833 51.999 122.5s68 61.834 122 72.501c8 1.33301 18.833 2.5 32.5 3.5s27.834 1.5 42.501 1.5h12h12
c18 -0.666992 35.5 -1.83398 52.5 -3.50098s31.167 -4.5 42.5 -8.5l-25 -128c-9.33301 4 -19 7.66699 -29 11s-19.667 5 -29 5c-6.66699 0 -13.167 -0.833008 -19.5 -2.5s-12.5 -4.16699 -18.5 -7.5c-16 -7.33301 -28.333 -19.5 -37 -36.5s-15 -35.167 -19 -54.5
c0 -1.33301 -0.166992 -2.33301 -0.5 -3s-0.5 -1.33398 -0.5 -2.00098l122 1l-25 -129h-121l-81 -387h-201v0zM460.001 0.000976562l161 741h193l-152 -741h-202v0z" />
    <glyph glyph-name="glyph1" horiz-adv-x="0" 
 />
    <glyph glyph-name="glyph2" 
 />
    <glyph glyph-name="degree" horiz-adv-x="512" 
 />
    <glyph glyph-name="bullet" horiz-adv-x="516" 
d="M104 177l33 162h194l-33 -162h-194v0z" />
    <glyph glyph-name="daggerdbl" horiz-adv-x="516" 
d="M40 210l25 137h516l-17 -137h-524v0z" />
    </font>
</defs>
</svg>
